# Blender 5.0.0
# www.blender.org
mtllib chair.mtl
o Cube
v -0.500000 0.742672 0.500000
v -0.500000 0.797084 0.500000
v -0.500000 0.742672 -0.500000
v -0.500000 0.797084 -0.500000
v 0.500000 0.742672 0.500000
v 0.500000 0.797084 0.500000
v 0.500000 0.742672 -0.500000
v 0.500000 0.797084 -0.500000
v -0.500000 0.742672 0.000000
v 0.000000 0.742672 -0.500000
v 0.500000 0.742672 0.000000
v 0.000000 0.742672 0.500000
v 0.000000 0.742672 0.000000
v -0.500000 0.742672 0.250000
v -0.250000 0.742672 -0.500000
v 0.500000 0.742672 -0.250000
v 0.250000 0.742672 0.500000
v -0.500000 0.742672 -0.250000
v 0.250000 0.742672 -0.500000
v 0.500000 0.742672 0.250000
v -0.250000 0.742672 0.500000
v 0.000000 0.742672 0.250000
v 0.000000 0.742672 -0.250000
v -0.250000 0.742672 0.000000
v 0.250000 0.742672 0.000000
v 0.250000 0.742672 -0.250000
v -0.250000 0.742672 -0.250000
v -0.250000 0.742672 0.250000
v 0.250000 0.742672 0.250000
v -0.500000 0.742672 0.250000
v -0.500000 0.742672 0.500000
v -0.250000 0.742672 -0.500000
v -0.500000 0.742672 -0.500000
v 0.500000 0.742672 -0.250000
v 0.500000 0.742672 -0.500000
v 0.250000 0.742672 0.500000
v 0.500000 0.742672 0.500000
v -0.500000 0.742672 -0.250000
v 0.250000 0.742672 -0.500000
v 0.500000 0.742672 0.250000
v -0.250000 0.742672 0.500000
v 0.250000 0.742672 -0.250000
v -0.250000 0.742672 -0.250000
v -0.250000 0.742672 0.250000
v 0.250000 0.742672 0.250000
v -0.500000 0.742672 0.250000
v -0.500000 0.742672 0.500000
v -0.250000 0.742672 -0.500000
v -0.500000 0.742672 -0.500000
v 0.500000 0.742672 -0.250000
v 0.500000 0.742672 -0.500000
v 0.250000 0.742672 0.500000
v 0.500000 0.742672 0.500000
v -0.500000 0.742672 -0.250000
v 0.250000 0.742672 -0.500000
v 0.500000 0.742672 0.250000
v -0.250000 0.742672 0.500000
v 0.250000 0.742672 -0.250000
v -0.250000 0.742672 -0.250000
v -0.250000 0.742672 0.250000
v 0.250000 0.742672 0.250000
v -0.500000 0.742672 0.250000
v -0.500000 0.742672 0.500000
v -0.250000 0.742672 -0.500000
v -0.500000 0.742672 -0.500000
v 0.500000 0.742672 -0.250000
v 0.500000 0.742672 -0.500000
v 0.250000 0.742672 0.500000
v 0.500000 0.742672 0.500000
v -0.500000 0.742672 -0.250000
v 0.250000 0.742672 -0.500000
v 0.500000 0.742672 0.250000
v -0.250000 0.742672 0.500000
v 0.250000 0.742672 -0.250000
v -0.250000 0.742672 -0.250000
v -0.250000 0.742672 0.250000
v 0.250000 0.742672 0.250000
v -0.500000 0.010672 0.250000
v -0.500000 0.010672 0.500000
v -0.250000 0.010672 -0.500000
v -0.500000 0.010672 -0.500000
v 0.500000 0.010672 -0.250000
v 0.500000 0.010672 -0.500000
v 0.250000 0.010672 0.500000
v 0.500000 0.010672 0.500000
v -0.500000 0.010672 -0.250000
v 0.250000 0.010672 -0.500000
v 0.500000 0.010672 0.250000
v -0.250000 0.010672 0.500000
v 0.250000 0.010672 -0.250000
v -0.250000 0.010672 -0.250000
v -0.250000 0.010672 0.250000
v 0.250000 0.010672 0.250000
v -0.500000 0.797084 0.000000
v 0.000000 0.797084 -0.500000
v 0.500000 0.797084 0.000000
v 0.000000 0.797084 0.500000
v 0.000000 0.797084 0.000000
v 0.500000 0.797084 0.250000
v -0.250000 0.797084 0.500000
v -0.500000 0.797084 0.250000
v 0.250000 0.797084 0.500000
v 0.000000 0.797084 0.250000
v 0.250000 0.797084 0.000000
v -0.250000 0.797084 0.000000
v 0.250000 0.797084 0.250000
v -0.250000 0.797084 0.250000
v 0.500000 0.797084 0.375000
v -0.375000 0.797084 0.500000
v 0.125000 0.797084 0.500000
v 0.000000 0.797084 0.375000
v -0.125000 0.797084 0.500000
v -0.500000 0.797084 0.375000
v 0.375000 0.797084 0.500000
v 0.250000 0.797084 0.375000
v 0.375000 0.797084 0.250000
v 0.125000 0.797084 0.250000
v -0.250000 0.797084 0.375000
v -0.125000 0.797084 0.250000
v -0.375000 0.797084 0.250000
v -0.125000 0.797084 0.375000
v 0.375000 0.797084 0.375000
v 0.125000 0.797084 0.375000
v -0.375000 0.797084 0.375000
v 0.500000 1.626666 0.375000
v 0.500000 1.626666 0.500000
v -0.375000 1.626666 0.500000
v -0.500000 1.626666 0.500000
v 0.125000 1.626666 0.500000
v 0.000000 1.626666 0.500000
v 0.000000 1.626666 0.375000
v -0.125000 1.626666 0.500000
v -0.250000 1.626666 0.500000
v 0.375000 1.626666 0.500000
v 0.250000 1.626666 0.500000
v 0.250000 1.626666 0.375000
v -0.250000 1.626666 0.375000
v -0.500000 1.626666 0.375000
v -0.125000 1.626666 0.375000
v 0.375000 1.626666 0.375000
v 0.125000 1.626666 0.375000
v -0.375000 1.626666 0.375000
v 0.125000 1.766406 0.500000
v 0.000000 1.766406 0.500000
v 0.000000 1.766406 0.375000
v -0.125000 1.766406 0.500000
v -0.250000 1.766406 0.500000
v 0.375000 1.766406 0.500000
v 0.250000 1.766406 0.500000
v 0.250000 1.766406 0.375000
v -0.250000 1.766406 0.375000
v -0.375000 1.766406 0.500000
v -0.125000 1.766406 0.375000
v 0.375000 1.766406 0.375000
v 0.125000 1.766406 0.375000
v -0.375000 1.766406 0.375000
v 0.500000 0.010672 -0.250000
v 0.500000 0.010672 -0.500000
v 0.250000 0.010672 -0.500000
v 0.250000 0.010672 -0.250000
v 0.500000 0.742672 -0.250000
v 0.500000 0.742672 -0.500000
v 0.250000 0.742672 -0.500000
v 0.250000 0.742672 -0.250000
v 0.500000 0.010672 -0.250000
v 0.500000 0.010672 -0.500000
v 0.250000 0.010672 -0.500000
v 0.250000 0.010672 -0.250000
v 0.500000 0.010672 -0.250000
v 0.500000 0.010672 -0.500000
v 0.250000 0.010672 -0.500000
v 0.250000 0.010672 -0.250000
vn -1.0000 -0.0000 -0.0000
vn -0.0000 -0.0000 -1.0000
vn 1.0000 -0.0000 -0.0000
vn -0.0000 -0.0000 1.0000
vn -0.0000 1.0000 -0.0000
vn -0.0000 -1.0000 -0.0000
vt 0.369974 0.451869
vt 0.369974 0.482860
vt 0.409910 0.482860
vt 0.449847 0.482860
vt 0.529719 0.482860
vt 0.689463 0.482860
vt 0.689463 0.451869
vt 0.609591 0.451869
vt 0.529719 0.451869
vt 0.449847 0.451869
vt 0.327808 0.451869
vt 0.327808 0.482860
vt 0.487552 0.482860
vt 0.647297 0.482860
vt 0.647297 0.451869
vt 0.567425 0.451869
vt 0.487552 0.451869
vt 0.407680 0.451869
vt 0.607361 0.482860
vt 0.567425 0.482860
vt 0.527488 0.482860
vt 0.447616 0.482860
vt 0.407680 0.482860
vt 0.367744 0.482860
vt 0.327808 0.268199
vt 0.327808 0.410590
vt 0.487552 0.955359
vt 0.527488 0.955359
vt 0.407680 0.410590
vt 0.487552 0.410590
vt 0.487552 0.268199
vt 0.407680 0.268199
vt 0.407680 0.695371
vt 0.487552 0.695371
vt 0.487552 0.552980
vt 0.407680 0.552980
vt 0.567425 0.695371
vt 0.647297 0.695371
vt 0.647297 0.552980
vt 0.567425 0.552980
vt 0.487552 0.837762
vt 0.567425 0.837762
vt 0.647297 0.837762
vt 0.327808 0.695371
vt 0.327808 0.552980
vt 0.567425 0.268199
vt 0.567425 0.410590
vt 0.407680 0.837762
vt 0.647297 0.410590
vt 0.647297 0.268199
vt 0.327808 0.837762
vt 0.369974 0.034950
vt 0.449847 0.034950
vt 0.407680 0.034950
vt 0.327808 0.034950
vt 0.647297 0.034950
vt 0.567425 0.034950
vt 0.609591 0.034950
vt 0.689463 0.034950
vt 0.409910 0.955359
vt 0.369974 0.955359
vt 0.407680 0.955359
vt 0.447616 0.955359
vt 0.607361 0.410590
vt 0.527488 0.410590
vt 0.367744 0.955359
vt 0.447616 0.410590
vt 0.367744 0.410590
vt 0.447616 0.339395
vt 0.487552 0.339395
vt 0.407680 0.339395
vt 0.567425 0.955359
vt 0.607361 0.339395
vt 0.647297 0.339395
vt 0.567425 0.339395
vt 0.527488 0.339395
vt 0.647297 0.955359
vt 0.607361 0.955359
vt 0.367744 0.339395
vt 0.327808 0.339395
vt 0.367744 0.268199
vt 0.409910 1.034950
vt 0.369974 1.034950
vt 0.367744 1.034950
vt 0.407680 1.034950
vt 0.447616 1.034950
vt 0.607361 0.268199
vt 0.487552 1.034950
vt 0.327808 0.955359
vt 0.527488 0.268199
vt 0.447616 0.268199
vt 0.567425 1.034950
vt 0.527488 1.034950
vt 0.607361 1.034950
s 0
usemtl Material.003
f 1/1/1 2/2/1 113/3/1 101/4/1 94/5/1 4/6/1 3/7/1 18/8/1 9/9/1 14/10/1
f 3/11/2 4/12/2 95/13/2 8/14/2 7/15/2 19/16/2 10/17/2 15/18/2
f 7/7/3 8/6/3 96/5/3 99/4/3 108/3/3 6/2/3 5/1/3 20/10/3 11/9/3 16/8/3
f 5/15/4 6/14/4 114/19/4 102/20/4 110/21/4 97/13/4 112/22/4 100/23/4 109/24/4 2/12/4 1/11/4 21/18/4 12/17/4 17/16/4
f 1/25/5 14/26/5 30/26/5 31/25/5
f 123/21/2 111/13/2 131/27/2 141/28/2
f 28/29/6 22/30/6 12/31/6 21/32/6
f 27/33/6 23/34/6 13/35/6 24/36/6
f 26/37/6 16/38/6 11/39/6 25/40/6
f 23/34/6 26/37/6 25/40/6 13/35/6
f 10/41/6 19/42/6 26/37/6 23/34/6
f 7/43/5 16/38/5 34/38/5 35/43/5
f 18/44/6 27/33/6 24/36/6 9/45/6
f 17/46/5 29/47/5 45/47/5 36/46/5
f 15/48/6 10/41/6 23/34/6 27/33/6
f 16/38/5 26/37/5 42/37/5 34/38/5
f 9/45/6 24/36/6 28/29/6 14/26/6
f 24/36/6 13/35/6 22/30/6 28/29/6
f 22/30/6 29/47/6 17/46/6 12/31/6
f 13/35/6 25/40/6 29/47/6 22/30/6
f 25/40/6 11/39/6 20/49/6 29/47/6
f 37/50/5 36/46/5 52/46/5 53/50/5
f 32/48/5 43/33/5 59/33/5 48/48/5
f 35/43/5 34/38/5 50/38/5 51/43/5
f 34/38/5 42/37/5 58/37/5 50/38/5
f 15/48/5 27/33/5 43/33/5 32/48/5
f 27/33/5 18/44/5 38/44/5 43/33/5
f 18/44/5 3/51/5 33/51/5 38/44/5
f 29/47/5 20/49/5 40/49/5 45/47/5
f 5/50/5 17/46/5 36/46/5 37/50/5
f 19/42/5 7/43/5 35/43/5 39/42/5
f 28/29/5 21/32/5 41/32/5 44/29/5
f 26/37/5 19/42/5 39/42/5 42/37/5
f 20/49/5 5/50/5 37/50/5 40/49/5
f 3/51/5 15/48/5 32/48/5 33/51/5
f 21/32/5 1/25/5 31/25/5 41/32/5
f 14/26/5 28/29/5 44/29/5 30/26/5
f 61/47/5 56/49/5 72/49/5 77/47/5
f 47/25/5 46/26/5 62/26/5 63/25/5
f 57/32/5 47/25/5 63/25/5 73/32/5
f 52/46/5 61/47/5 77/47/5 68/46/5
f 43/33/5 38/44/5 54/44/5 59/33/5
f 38/44/5 33/51/5 49/51/5 54/44/5
f 44/29/5 41/32/5 57/32/5 60/29/5
f 39/42/5 35/43/5 51/43/5 55/42/5
f 30/26/5 44/29/5 60/29/5 46/26/5
f 40/49/5 37/50/5 53/50/5 56/49/5
f 36/46/5 45/47/5 61/47/5 52/46/5
f 41/32/5 31/25/5 47/25/5 57/32/5
f 31/25/5 30/26/5 46/26/5 47/25/5
f 45/47/5 40/49/5 56/49/5 61/47/5
f 42/37/5 39/42/5 55/42/5 58/37/5
f 33/51/5 32/48/5 48/48/5 49/51/5
f 72/10/3 69/1/3 85/52/3 88/53/3
f 62/11/2 76/18/2 92/54/2 78/55/2
f 66/38/5 74/37/5 164/37/5 161/38/5
f 76/10/3 73/1/3 89/52/3 92/53/3
f 58/37/5 55/42/5 71/42/5 74/37/5
f 49/51/5 48/48/5 64/48/5 65/51/5
f 50/38/5 58/37/5 74/37/5 66/38/5
f 51/43/5 50/38/5 66/38/5 67/43/5
f 48/48/5 59/33/5 75/33/5 64/48/5
f 53/50/5 52/46/5 68/46/5 69/50/5
f 59/33/5 54/44/5 70/44/5 75/33/5
f 54/44/5 49/51/5 65/51/5 70/44/5
f 60/29/5 57/32/5 73/32/5 76/29/5
f 55/42/5 51/43/5 67/43/5 71/42/5
f 46/26/5 60/29/5 76/29/5 62/26/5
f 56/49/5 53/50/5 69/50/5 72/49/5
f 93/47/6 88/49/6 85/50/6 84/46/6
f 90/37/5 87/42/5 159/42/5 160/37/5
f 81/51/6 80/48/6 91/33/6 86/44/6
f 78/26/6 92/29/6 89/32/6 79/25/6
f 68/1/1 77/10/1 93/53/1 84/52/1
f 73/18/4 63/11/4 79/55/4 89/54/4
f 63/1/1 62/10/1 78/53/1 79/52/1
f 77/16/2 72/15/2 88/56/2 93/57/2
f 67/43/5 66/38/5 161/38/5 162/43/5
f 65/11/2 64/18/2 80/54/2 81/55/2
f 160/37/5 159/42/5 171/42/5 172/37/5
f 71/42/5 67/43/5 162/43/5 163/42/5
f 64/7/3 75/8/3 91/58/3 80/59/3
f 69/15/4 68/16/4 84/57/4 85/56/4
f 75/18/4 70/11/4 86/55/4 91/54/4
f 70/8/1 65/7/1 81/59/1 86/58/1
f 6/2/3 108/3/3 125/60/3 126/61/3
f 8/43/5 95/41/5 98/35/5 104/40/5 96/39/5
f 95/41/5 4/51/5 94/45/5 105/36/5 98/35/5
f 121/22/2 118/23/2 137/62/2 139/63/2
f 96/39/5 104/40/5 106/47/5 116/64/5 99/49/5
f 104/40/5 98/35/5 103/30/5 117/65/5 106/47/5
f 109/24/4 100/23/4 133/62/4 127/66/4
f 98/35/5 105/36/5 107/29/5 119/67/5 103/30/5
f 105/36/5 94/45/5 101/26/5 120/68/5 107/29/5
f 100/23/4 112/22/4 132/63/4 133/62/4
f 103/30/5 119/67/5 121/69/5 111/70/5
f 119/67/5 107/29/5 118/71/5 121/69/5
f 115/20/2 123/21/2 141/28/2 136/72/2
f 99/49/5 116/64/5 122/73/5 108/74/5
f 116/64/5 106/47/5 115/75/5 122/73/5
f 111/13/2 121/22/2 139/63/2 131/27/2
f 106/47/5 117/65/5 123/76/5 115/75/5
f 117/65/5 103/30/5 111/70/5 123/76/5
f 114/19/4 6/14/4 126/77/4 134/78/4
f 107/29/5 120/68/5 124/79/5 118/71/5
f 120/68/5 101/26/5 113/80/5 124/79/5
f 142/79/5 138/80/5 128/25/5 127/81/5
f 134/61/3 140/60/3 154/82/3 148/83/3
f 137/62/2 142/66/2 156/84/2 151/85/2
f 127/66/4 133/62/4 147/85/4 152/84/4
f 139/63/2 137/62/2 151/85/2 153/86/2
f 125/74/5 140/73/5 134/87/5 126/50/5
f 142/60/1 127/61/1 152/83/1 156/82/1
f 131/27/2 139/63/2 153/86/2 145/88/2
f 110/21/4 102/20/4 135/72/4 129/28/4
f 97/13/4 110/21/4 129/28/4 130/27/4
f 102/20/4 114/19/4 134/78/4 135/72/4
f 112/22/4 97/13/4 130/27/4 132/63/4
f 108/14/2 122/19/2 140/78/2 125/77/2
f 2/12/4 109/24/4 127/66/4 128/89/4
f 118/23/2 124/24/2 142/66/2 137/62/2
f 113/3/1 2/2/1 128/61/1 138/60/1
f 122/19/2 115/20/2 136/72/2 140/78/2
f 124/24/2 113/12/2 138/89/2 142/66/2
f 155/76/5 145/70/5 144/31/5 143/90/5
f 154/73/5 150/75/5 149/46/5 148/87/5
f 153/69/5 151/71/5 147/32/5 146/91/5
f 145/70/5 153/69/5 146/91/5 144/31/5
f 150/75/5 155/76/5 143/90/5 149/46/5
f 151/71/5 156/79/5 152/81/5 147/32/5
f 129/28/4 135/72/4 149/92/4 143/93/4
f 130/27/4 129/28/4 143/93/4 144/88/4
f 132/63/4 130/27/4 144/88/4 146/86/4
f 140/78/2 136/72/2 150/92/2 154/94/2
f 133/62/4 132/63/4 146/86/4 147/85/4
f 135/72/4 134/78/4 148/94/4 149/92/4
f 136/72/2 141/28/2 155/93/2 150/92/2
f 141/28/2 131/27/2 145/88/2 155/93/2
f 74/37/5 71/42/5 163/42/5 164/37/5
f 83/43/5 82/38/5 157/38/5 158/43/5
f 82/38/5 90/37/5 160/37/5 157/38/5
f 87/42/5 83/43/5 158/43/5 159/42/5
f 163/16/2 162/15/2 166/56/2 167/57/2
f 164/8/1 163/7/1 167/59/1 168/58/1
f 161/15/4 164/16/4 168/57/4 165/56/4
f 162/7/3 161/8/3 165/58/3 166/59/3
f 171/42/6 170/43/6 169/38/6 172/37/6
f 87/42/5 90/37/5 168/37/5 167/42/5
f 157/38/5 160/37/5 172/37/5 169/38/5
f 83/43/5 87/42/5 167/42/5 166/43/5
f 158/43/5 157/38/5 169/38/5 170/43/5
f 82/38/5 83/43/5 166/43/5 165/38/5
f 90/37/5 82/38/5 165/38/5 168/37/5
f 159/42/5 158/43/5 170/43/5 171/42/5
