# Blender 5.1.2
# www.blender.org
o corridor
v -1.750000 0.000000 8.000000
v 1.750000 0.000000 8.000000
v 1.750000 0.000000 0.000000
v -1.750000 0.000000 0.000000
v -0.900000 0.000000 0.000000
v 0.900000 0.000000 0.000000
v 0.900000 0.000000 -8.000000
v -0.900000 0.000000 -8.000000
v -1.950000 0.000000 8.000000
v -1.750000 0.000000 8.000000
v -1.750000 0.000000 0.000000
v -1.950000 0.000000 0.000000
v -1.950000 2.000000 8.000000
v -1.750000 2.000000 8.000000
v -1.750000 2.000000 0.000000
v -1.950000 2.000000 0.000000
v 1.750000 0.000000 8.000000
v 1.950000 0.000000 8.000000
v 1.950000 0.000000 0.000000
v 1.750000 0.000000 0.000000
v 1.750000 2.000000 8.000000
v 1.950000 2.000000 8.000000
v 1.950000 2.000000 0.000000
v 1.750000 2.000000 0.000000
v -1.100000 0.000000 0.000000
v -0.900000 0.000000 0.000000
v -0.900000 0.000000 -8.000000
v -1.100000 0.000000 -8.000000
v -1.100000 2.000000 0.000000
v -0.900000 2.000000 0.000000
v -0.900000 2.000000 -8.000000
v -1.100000 2.000000 -8.000000
v 0.900000 0.000000 0.000000
v 1.100000 0.000000 0.000000
v 1.100000 0.000000 -8.000000
v 0.900000 0.000000 -8.000000
v 0.900000 2.000000 0.000000
v 1.100000 2.000000 0.000000
v 1.100000 2.000000 -8.000000
v 0.900000 2.000000 -8.000000
v -1.750000 0.000000 0.200000
v -0.900000 0.000000 0.200000
v -0.900000 0.000000 0.000000
v -1.750000 0.000000 0.000000
v -1.750000 2.000000 0.200000
v -0.900000 2.000000 0.200000
v -0.900000 2.000000 0.000000
v -1.750000 2.000000 0.000000
v 0.900000 0.000000 0.200000
v 1.750000 0.000000 0.200000
v 1.750000 0.000000 0.000000
v 0.900000 0.000000 0.000000
v 0.900000 2.000000 0.200000
v 1.750000 2.000000 0.200000
v 1.750000 2.000000 0.000000
v 0.900000 2.000000 0.000000
vn -0.0000 1.0000 -0.0000
vn -0.0000 -1.0000 -0.0000
vn -0.0000 -0.0000 1.0000
vn 1.0000 -0.0000 -0.0000
vn -0.0000 -0.0000 -1.0000
vn -1.0000 -0.0000 -0.0000
s 0
f 2//1 4//1 1//1
f 6//1 8//1 5//1
f 14//1 16//1 13//1
f 11//2 9//2 12//2
f 10//3 13//3 9//3
f 11//4 14//4 10//4
f 12//5 15//5 11//5
f 9//6 16//6 12//6
f 22//1 24//1 21//1
f 19//2 17//2 20//2
f 18//3 21//3 17//3
f 19//4 22//4 18//4
f 20//5 23//5 19//5
f 17//6 24//6 20//6
f 30//1 32//1 29//1
f 27//2 25//2 28//2
f 26//3 29//3 25//3
f 27//4 30//4 26//4
f 28//5 31//5 27//5
f 25//6 32//6 28//6
f 38//1 40//1 37//1
f 35//2 33//2 36//2
f 34//3 37//3 33//3
f 35//4 38//4 34//4
f 36//5 39//5 35//5
f 33//6 40//6 36//6
f 46//1 48//1 45//1
f 43//2 41//2 44//2
f 42//3 45//3 41//3
f 43//4 46//4 42//4
f 44//5 47//5 43//5
f 41//6 48//6 44//6
f 54//1 56//1 53//1
f 51//2 49//2 52//2
f 50//3 53//3 49//3
f 51//4 54//4 50//4
f 52//5 55//5 51//5
f 49//6 56//6 52//6
f 2//1 3//1 4//1
f 6//1 7//1 8//1
f 14//1 15//1 16//1
f 11//2 10//2 9//2
f 10//3 14//3 13//3
f 11//4 15//4 14//4
f 12//5 16//5 15//5
f 9//6 13//6 16//6
f 22//1 23//1 24//1
f 19//2 18//2 17//2
f 18//3 22//3 21//3
f 19//4 23//4 22//4
f 20//5 24//5 23//5
f 17//6 21//6 24//6
f 30//1 31//1 32//1
f 27//2 26//2 25//2
f 26//3 30//3 29//3
f 27//4 31//4 30//4
f 28//5 32//5 31//5
f 25//6 29//6 32//6
f 38//1 39//1 40//1
f 35//2 34//2 33//2
f 34//3 38//3 37//3
f 35//4 39//4 38//4
f 36//5 40//5 39//5
f 33//6 37//6 40//6
f 46//1 47//1 48//1
f 43//2 42//2 41//2
f 42//3 46//3 45//3
f 43//4 47//4 46//4
f 44//5 48//5 47//5
f 41//6 45//6 48//6
f 54//1 55//1 56//1
f 51//2 50//2 49//2
f 50//3 54//3 53//3
f 51//4 55//4 54//4
f 52//5 56//5 55//5
f 49//6 53//6 56//6
