# Blender 5.0.0
# www.blender.org
mtllib cube-textured-multiple.mtl
o Cube
v 1.000000 1.000000 -1.000000
v 1.000000 -1.000000 -1.000000
v 1.000000 1.000000 1.000000
v 1.000000 -1.000000 1.000000
v -1.000000 1.000000 -1.000000
v -1.000000 -1.000000 -1.000000
v -1.000000 1.000000 1.000000
v -1.000000 -1.000000 1.000000
v -1.000000 -1.000000 0.000000
v 0.000000 -1.000000 -1.000000
v 1.000000 0.000000 -1.000000
v -1.000000 0.000000 1.000000
v 1.000000 0.000000 1.000000
v -1.000000 0.000000 -1.000000
v 0.000000 1.000000 1.000000
v 1.000000 1.000000 0.000000
v 0.000000 -1.000000 1.000000
v -1.000000 1.000000 0.000000
v 0.000000 1.000000 -1.000000
v 1.000000 -1.000000 0.000000
v 0.000000 0.000000 -1.000000
v 1.000000 0.069387 0.069387
v 0.000000 -1.000000 0.000000
v -1.000000 0.000000 0.000000
v 0.000000 0.000000 1.000000
v 0.000000 1.000000 0.000000
v -1.000000 -1.000000 0.500000
v -0.500000 -1.000000 -1.000000
v 1.000000 -0.500000 -1.000000
v -1.000000 0.500000 1.000000
v 1.000000 -0.500000 1.000000
v -1.000000 -0.500000 -1.000000
v -0.500000 1.000000 1.000000
v 1.000000 1.000000 0.500000
v 0.500000 -1.000000 1.000000
v -1.000000 1.000000 -0.500000
v 0.500000 1.000000 -1.000000
v 1.000000 -1.000000 -0.500000
v -1.000000 -1.000000 -0.500000
v 0.500000 -1.000000 -1.000000
v 1.000000 0.500000 -1.000000
v -1.000000 -0.500000 1.000000
v 1.000000 0.500000 1.000000
v -1.000000 0.500000 -1.000000
v 0.500000 1.000000 1.000000
v 1.000000 1.000000 -0.500000
v -0.500000 -1.000000 1.000000
v -1.000000 1.000000 0.500000
v -0.500000 1.000000 -1.000000
v 1.000000 -1.000000 0.500000
v 0.500000 0.000000 -1.000000
v -0.500000 0.000000 -1.000000
v 0.000000 -0.500000 -1.000000
v 0.000000 0.500000 -1.000000
v 1.000000 0.069387 0.430613
v 1.000000 0.000000 -0.500000
v 1.000000 -0.500000 0.000000
v 1.000000 0.430613 0.069387
v 0.000000 -1.000000 0.500000
v 0.000000 -1.000000 -0.500000
v -0.500000 -1.000000 0.000000
v 0.500000 -1.000000 0.000000
v -1.000000 0.000000 -0.500000
v -1.000000 0.000000 0.500000
v -1.000000 -0.500000 0.000000
v -1.000000 0.500000 0.000000
v -0.500000 0.000000 1.000000
v 0.500000 0.000000 1.000000
v 0.000000 -0.500000 1.000000
v 0.000000 0.500000 1.000000
v 0.000000 1.000000 0.500000
v 0.000000 1.000000 -0.500000
v 0.500000 1.000000 0.000000
v -0.500000 1.000000 0.000000
v -0.500000 1.000000 -0.500000
v 0.500000 1.000000 -0.500000
v 0.500000 1.000000 0.500000
v 0.500000 0.500000 1.000000
v 0.500000 -0.500000 1.000000
v -0.500000 -0.500000 1.000000
v -1.000000 0.500000 0.500000
v -1.000000 -0.500000 0.500000
v -1.000000 -0.500000 -0.500000
v 0.500000 -1.000000 -0.500000
v -0.500000 -1.000000 -0.500000
v -0.500000 -1.000000 0.500000
v 1.000000 0.500000 -0.500000
v 1.000000 -0.500000 -0.500000
v 1.000000 -0.500000 0.500000
v -0.500000 0.500000 -1.000000
v -0.500000 -0.500000 -1.000000
v 0.500000 -0.500000 -1.000000
v 0.500000 0.500000 -1.000000
v 1.000000 0.430613 0.430613
v 0.500000 -1.000000 0.500000
v -1.000000 0.500000 -0.500000
v -0.500000 0.500000 1.000000
v -0.500000 1.000000 0.500000
v 1.000000 0.500000 0.000000
v 1.000000 0.000000 0.000000
v 1.000000 0.000000 0.500000
v 1.000000 0.500000 0.500000
v 1.192661 2.089513 -1.589513
v 1.192661 -1.589513 -1.589513
v 1.192661 -1.589513 2.089513
v 1.192661 2.089513 2.089513
v -0.500000 -1.000000 1.000000
v 0.000000 -1.000000 1.000000
v 0.000000 -0.500000 1.000000
v 0.000000 0.500000 1.000000
v 0.000000 0.000000 1.000000
v -0.500000 0.000000 1.000000
v -0.500000 -0.500000 1.000000
v -0.500000 0.500000 1.000000
vn -0.0000 1.0000 -0.0000
vn -0.0000 -0.0000 1.0000
vn -1.0000 -0.0000 -0.0000
vn -0.0000 -1.0000 -0.0000
vn 1.0000 -0.0000 -0.0000
vn -0.0000 -0.0000 -1.0000
vn -0.9933 0.1154 -0.0000
vn -0.9933 -0.0000 -0.1154
vn -0.9933 -0.0000 0.1154
vn -0.9933 -0.1154 -0.0000
vt 0.250000 0.312500
vt 0.000000 0.312500
vt 0.000000 0.125000
vt 0.250000 0.125000
vt 0.250000 0.687500
vt 0.250000 0.875000
vt 0.000000 0.875000
vt 0.000000 0.687500
vt 0.750000 0.687500
vt 0.750000 0.875000
vt 1.000000 0.875000
vt 1.000000 0.687500
vt 0.750000 0.312500
vt 1.000000 0.312500
vt 1.000000 0.125000
vt 0.750000 0.125000
vt 0.750000 0.500000
vt 1.000000 0.500000
vt 0.250000 0.500000
vt 0.500000 0.500000
vt 0.500000 0.312500
vt 0.500000 0.875000
vt 0.500000 0.687500
vt 0.000000 0.500000
vt 0.500000 0.125000
vt 0.465306 0.661480
vt 0.284694 0.661480
vt 0.465307 0.526020
vt 0.284694 0.526020
s 0
usemtl HammerTexture
f 98/1/1 48/2/1 7/3/1 33/4/1
f 97/5/2 33/6/2 7/7/2 30/8/2
f 96/9/3 36/10/3 5/11/3 44/12/3
f 95/13/4 50/14/4 4/15/4 35/16/4
f 102/5/5 34/6/5 3/7/5 43/8/5
f 93/9/6 37/10/6 1/11/6 41/12/6
f 92/13/6 51/17/6 11/18/6 29/14/6
f 91/1/6 52/19/6 21/20/6 53/21/6
f 90/5/6 49/6/6 19/22/6 54/23/6
f 89/1/5 101/19/5 13/24/5 31/2/5
f 88/13/5 56/17/5 100/20/5 57/21/5
f 87/9/5 46/10/5 16/22/5 99/23/5
f 86/1/4 59/21/4 17/25/4 47/4/4
f 85/5/4 60/23/4 23/20/4 61/19/4
f 84/9/4 38/12/4 20/18/4 62/17/4
f 83/13/3 63/17/3 14/18/3 32/14/3
f 82/1/3 64/19/3 24/20/3 65/21/3
f 81/5/3 48/6/3 18/22/3 66/23/3
f 80/1/2 67/19/2 12/24/2 42/2/2
f 79/13/2 68/17/2 25/20/2 69/21/2
f 78/9/2 45/10/2 15/22/2 70/23/2
f 77/13/1 71/21/1 15/25/1 45/16/1
f 76/9/1 72/23/1 26/20/1 73/17/1
f 75/5/1 36/8/1 18/24/1 74/19/1
f 72/23/1 75/5/1 74/19/1 26/20/1
f 19/22/1 49/6/1 75/5/1 72/23/1
f 49/6/1 5/7/1 36/8/1 75/5/1
f 46/12/1 76/9/1 73/17/1 16/18/1
f 1/11/1 37/10/1 76/9/1 46/12/1
f 37/10/1 19/22/1 72/23/1 76/9/1
f 34/14/1 77/13/1 45/16/1 3/15/1
f 16/18/1 73/17/1 77/13/1 34/14/1
f 73/17/1 26/20/1 71/21/1 77/13/1
f 68/17/2 78/9/2 70/23/2 25/20/2
f 13/18/2 43/12/2 78/9/2 68/17/2
f 43/12/2 3/11/2 45/10/2 78/9/2
f 35/16/2 79/13/2 69/21/2 17/25/2
f 4/15/2 31/14/2 79/13/2 35/16/2
f 31/14/2 13/18/2 68/17/2 79/13/2
f 47/4/2 80/1/2 42/2/2 8/3/2
f 47/4/1 17/25/1 108/25/1 107/4/1
f 67/19/1 80/1/1 113/1/1 112/19/1
f 64/19/3 81/5/3 66/23/3 24/20/3
f 12/24/3 30/8/3 81/5/3 64/19/3
f 30/8/3 7/7/3 48/6/3 81/5/3
f 27/4/3 82/1/3 65/21/3 9/25/3
f 8/3/3 42/2/3 82/1/3 27/4/3
f 42/2/3 12/24/3 64/19/3 82/1/3
f 39/16/3 83/13/3 32/14/3 6/15/3
f 9/25/3 65/21/3 83/13/3 39/16/3
f 65/21/3 24/20/3 63/17/3 83/13/3
f 60/23/4 84/9/4 62/17/4 23/20/4
f 10/22/4 40/10/4 84/9/4 60/23/4
f 40/10/4 2/11/4 38/12/4 84/9/4
f 39/8/4 85/5/4 61/19/4 9/24/4
f 6/7/4 28/6/4 85/5/4 39/8/4
f 28/6/4 10/22/4 60/23/4 85/5/4
f 27/2/4 86/1/4 47/4/4 8/3/4
f 9/24/4 61/19/4 86/1/4 27/2/4
f 61/19/4 23/20/4 59/21/4 86/1/4
f 56/17/5 87/9/5 99/23/5 100/20/5
f 11/18/5 41/12/5 87/9/5 56/17/5
f 41/12/5 1/11/5 46/10/5 87/9/5
f 38/16/5 88/13/5 57/21/5 20/25/5
f 2/15/5 29/14/5 88/13/5 38/16/5
f 29/14/5 11/18/5 56/17/5 88/13/5
f 50/4/5 89/1/5 31/2/5 4/3/5
f 20/25/5 57/21/5 89/1/5 50/4/5
f 57/21/5 100/20/5 101/19/5 89/1/5
f 52/19/6 90/5/6 54/23/6 21/20/6
f 14/24/6 44/8/6 90/5/6 52/19/6
f 44/8/6 5/7/6 49/6/6 90/5/6
f 28/4/6 91/1/6 53/21/6 10/25/6
f 6/3/6 32/2/6 91/1/6 28/4/6
f 32/2/6 14/24/6 52/19/6 91/1/6
f 40/16/6 92/13/6 29/14/6 2/15/6
f 10/25/6 53/21/6 92/13/6 40/16/6
f 53/21/6 21/20/6 51/17/6 92/13/6
f 51/17/6 93/9/6 41/12/6 11/18/6
f 21/20/6 54/23/6 93/9/6 51/17/6
f 54/23/6 19/22/6 37/10/6 93/9/6
f 101/19/5 102/5/5 43/8/5 13/24/5
f 58/26/7 94/27/7 106/27/7 103/26/7
f 99/23/5 16/22/5 34/6/5 102/5/5
f 59/21/4 95/13/4 35/16/4 17/25/4
f 23/20/4 62/17/4 95/13/4 59/21/4
f 62/17/4 20/18/4 50/14/4 95/13/4
f 63/17/3 96/9/3 44/12/3 14/18/3
f 24/20/3 66/23/3 96/9/3 63/17/3
f 66/23/3 18/22/3 36/10/3 96/9/3
f 67/19/2 97/5/2 30/8/2 12/24/2
f 70/23/1 97/5/1 114/5/1 110/23/1
f 70/23/2 15/22/2 33/6/2 97/5/2
f 71/21/1 98/1/1 33/4/1 15/25/1
f 26/20/1 74/19/1 98/1/1 71/21/1
f 74/19/1 18/24/1 48/2/1 98/1/1
f 58/26/5 22/28/5 100/20/5 99/23/5
f 22/28/5 55/29/5 101/19/5 100/20/5
f 94/27/5 58/26/5 99/23/5 102/5/5
f 55/29/5 94/27/5 102/5/5 101/19/5
f 104/28/5 103/26/5 106/27/5 105/29/5
f 22/28/8 58/26/8 103/26/8 104/28/8
f 94/27/9 55/29/9 105/29/9 106/27/9
f 55/29/10 22/28/10 104/28/10 105/29/10
f 108/25/2 109/21/2 113/1/2 107/4/2
f 109/21/2 111/20/2 112/19/2 113/1/2
f 111/20/2 110/23/2 114/5/2 112/19/2
f 17/25/1 69/21/1 109/21/1 108/25/1
f 97/5/1 67/19/1 112/19/1 114/5/1
f 25/20/1 70/23/1 110/23/1 111/20/1
f 80/1/1 47/4/1 107/4/1 113/1/1
f 69/21/1 25/20/1 111/20/1 109/21/1
