# Blender 4.1.1
# www.blender.org
mtllib cube-cut.mtl
o Cube
v -1.000000 -1.000000 1.000000
v -1.000000 1.000000 1.000000
v -1.000000 -1.000000 -1.000000
v -1.000000 1.000000 -1.000000
v 1.000000 -1.000000 1.000000
v 1.000000 1.000000 1.000000
v 1.000000 -1.000000 -1.000000
v 1.000000 1.000000 -1.000000
v -1.000000 -1.000000 0.000000
v -1.000000 0.000000 1.000000
v -1.000000 1.000000 0.000000
v -1.000000 0.000000 -1.000000
v 0.000000 -1.000000 -1.000000
v 0.000000 1.000000 -1.000000
v 1.000000 0.000000 -1.000000
v 1.000000 -1.000000 0.000000
v 1.000000 1.000000 0.000000
v 1.000000 0.000000 1.000000
v 0.000000 -1.000000 1.000000
v 0.000000 1.000000 1.000000
v 0.000000 1.000000 0.000000
v 0.000000 -1.000000 0.000000
v 0.000000 0.000000 1.000000
v 1.000000 0.000000 0.000000
v 0.000000 0.000000 -1.000000
v -1.000000 0.000000 0.000000
v -1.000000 -1.000000 0.500000
v -1.000000 0.500000 1.000000
v -1.000000 1.000000 -0.500000
v -1.000000 -0.500000 -1.000000
v -0.500000 -1.000000 -1.000000
v 0.500000 1.000000 -1.000000
v 1.000000 -0.500000 -1.000000
v 1.000000 -1.000000 -0.500000
v 1.000000 1.000000 0.500000
v 1.000000 -0.500000 1.000000
v 0.500000 -1.000000 1.000000
v -0.500000 1.000000 1.000000
v -1.000000 -1.000000 -0.500000
v -1.000000 -0.500000 1.000000
v -1.000000 1.000000 0.500000
v -1.000000 0.500000 -1.000000
v 0.500000 -1.000000 -1.000000
v -0.500000 1.000000 -1.000000
v 1.000000 0.500000 -1.000000
v 1.000000 -1.000000 0.500000
v 1.000000 1.000000 -0.500000
v 1.000000 0.500000 1.000000
v -0.500000 -1.000000 1.000000
v 0.500000 1.000000 1.000000
v 0.000000 1.000000 0.500000
v 0.000000 1.000000 -0.500000
v 0.500000 1.000000 0.000000
v -0.500000 1.000000 0.000000
v 0.000000 -1.000000 0.500000
v 0.000000 -1.000000 -0.500000
v -0.500000 -1.000000 0.000000
v 0.500000 -1.000000 0.000000
v -0.500000 0.000000 1.000000
v 0.500000 0.000000 1.000000
v 0.000000 -0.500000 1.000000
v 0.000000 0.500000 1.000000
v 1.000000 0.000000 0.500000
v 1.000000 0.000000 -0.500000
v 1.000000 -0.500000 0.000000
v 1.000000 0.500000 0.000000
v 0.500000 0.000000 -1.000000
v -0.500000 0.000000 -1.000000
v 0.000000 -0.500000 -1.000000
v 0.000000 0.500000 -1.000000
v -1.000000 0.000000 -0.500000
v -1.000000 0.000000 0.500000
v -1.000000 -0.500000 0.000000
v -1.000000 0.500000 0.000000
v -1.000000 0.500000 0.500000
v -1.000000 -0.500000 0.500000
v -1.000000 -0.500000 -0.500000
v -0.500000 0.500000 -1.000000
v -0.500000 -0.500000 -1.000000
v 0.500000 -0.500000 -1.000000
v 1.000000 0.500000 -0.500000
v 1.000000 -0.500000 -0.500000
v 1.000000 -0.500000 0.500000
v 0.500000 0.500000 1.000000
v 0.500000 -0.500000 1.000000
v -0.500000 -0.500000 1.000000
v 0.500000 -1.000000 -0.500000
v -0.500000 -1.000000 -0.500000
v -0.500000 -1.000000 0.500000
v -0.500000 1.000000 -0.500000
v 0.500000 1.000000 -0.500000
v 0.500000 1.000000 0.500000
v -0.500000 1.000000 0.500000
v 0.500000 -1.000000 0.500000
v -0.500000 0.500000 1.000000
v 1.000000 0.500000 0.500000
v 0.500000 0.500000 -1.000000
v -1.000000 0.500000 -0.500000
v 0.000000 0.500000 1.000000
v 0.000000 0.000000 1.000000
v -0.500000 0.000000 1.000000
v -0.500000 0.500000 1.000000
v 0.000000 -1.000000 0.000000
v 0.000000 -1.000000 0.500000
v -0.500000 -1.000000 0.000000
v -0.500000 -1.000000 0.500000
v -1.000000 -1.000000 0.500000
v -1.000000 -1.000000 1.000000
v -1.000000 0.500000 1.000000
v -1.000000 1.000000 1.000000
v -1.000000 1.000000 -0.500000
v -1.000000 1.000000 -1.000000
v -1.000000 -0.500000 -1.000000
v -1.000000 -1.000000 -1.000000
v -0.500000 -1.000000 -1.000000
v 0.500000 1.000000 -1.000000
v 1.000000 1.000000 -1.000000
v 1.000000 -0.500000 -1.000000
v 1.000000 -1.000000 -1.000000
v 1.000000 -1.000000 -0.500000
v 1.000000 1.000000 0.500000
v 1.000000 1.000000 1.000000
v 1.000000 -0.500000 1.000000
v 1.000000 -1.000000 1.000000
v 0.500000 -1.000000 1.000000
v -0.500000 1.000000 1.000000
v -1.000000 -1.000000 -0.500000
v -1.000000 -1.000000 0.000000
v -1.000000 -0.500000 1.000000
v -1.000000 0.000000 1.000000
v -1.000000 1.000000 0.500000
v -1.000000 1.000000 0.000000
v -1.000000 0.500000 -1.000000
v -1.000000 0.000000 -1.000000
v 0.500000 -1.000000 -1.000000
v 0.000000 -1.000000 -1.000000
v -0.500000 1.000000 -1.000000
v 0.000000 1.000000 -1.000000
v 1.000000 0.500000 -1.000000
v 1.000000 0.000000 -1.000000
v 1.000000 -1.000000 0.500000
v 1.000000 -1.000000 0.000000
v 1.000000 1.000000 -0.500000
v 1.000000 1.000000 0.000000
v 1.000000 0.500000 1.000000
v 1.000000 0.000000 1.000000
v -0.500000 -1.000000 1.000000
v 0.000000 -1.000000 1.000000
v 0.500000 1.000000 1.000000
v 0.000000 1.000000 1.000000
v 0.000000 1.000000 0.500000
v 0.000000 1.000000 -0.500000
v 0.000000 1.000000 0.000000
v 0.500000 1.000000 0.000000
v -0.500000 1.000000 0.000000
v 0.000000 -1.000000 0.500000
v 0.000000 -1.000000 -0.500000
v 0.000000 -1.000000 0.000000
v -0.500000 -1.000000 0.000000
v 0.500000 -1.000000 0.000000
v -0.500000 0.000000 1.000000
v 0.500000 0.000000 1.000000
v 0.000000 0.000000 1.000000
v 0.000000 -0.500000 1.000000
v 0.000000 0.500000 1.000000
v 1.000000 0.000000 0.500000
v 1.000000 0.000000 -0.500000
v 1.000000 0.000000 0.000000
v 1.000000 -0.500000 0.000000
v 1.000000 0.500000 0.000000
v 0.500000 0.000000 -1.000000
v -0.500000 0.000000 -1.000000
v 0.000000 0.000000 -1.000000
v 0.000000 -0.500000 -1.000000
v 0.000000 0.500000 -1.000000
v -1.000000 0.000000 -0.500000
v -1.000000 0.000000 0.500000
v -1.000000 0.000000 0.000000
v -1.000000 -0.500000 0.000000
v -1.000000 0.500000 0.000000
v -1.000000 0.500000 0.500000
v -1.000000 -0.500000 0.500000
v -1.000000 -0.500000 -0.500000
v -0.500000 0.500000 -1.000000
v -0.500000 -0.500000 -1.000000
v 0.500000 -0.500000 -1.000000
v 1.000000 0.500000 -0.500000
v 1.000000 -0.500000 -0.500000
v 1.000000 -0.500000 0.500000
v 0.500000 0.500000 1.000000
v 0.500000 -0.500000 1.000000
v -0.500000 -0.500000 1.000000
v 0.500000 -1.000000 -0.500000
v -0.500000 -1.000000 -0.500000
v -0.500000 -1.000000 0.500000
v -0.500000 1.000000 -0.500000
v 0.500000 1.000000 -0.500000
v 0.500000 1.000000 0.500000
v -0.500000 1.000000 0.500000
v 0.500000 -1.000000 0.500000
v -0.500000 0.500000 1.000000
v 1.000000 0.500000 0.500000
v 0.500000 0.500000 -1.000000
v -1.000000 0.500000 -0.500000
v 0.000000 0.500000 1.000000
v 0.000000 0.000000 1.000000
v -0.500000 0.000000 1.000000
v -0.500000 0.500000 1.000000
v 0.000000 -1.000000 0.000000
v 0.000000 -1.000000 0.500000
v -0.500000 -1.000000 0.000000
v -0.500000 -1.000000 0.500000
v -1.000000 -1.000000 0.500000
v -1.000000 -1.000000 1.000000
v -1.000000 0.500000 1.000000
v -1.000000 1.000000 1.000000
v -1.000000 1.000000 -0.500000
v -1.000000 1.000000 -1.000000
v -1.000000 -0.500000 -1.000000
v -1.000000 -1.000000 -1.000000
v -0.500000 -1.000000 -1.000000
v 0.500000 1.000000 -1.000000
v 1.000000 1.000000 -1.000000
v 1.000000 -0.500000 -1.000000
v 1.000000 -1.000000 -1.000000
v 1.000000 -1.000000 -0.500000
v 1.000000 1.000000 0.500000
v 1.000000 1.000000 1.000000
v 1.000000 -0.500000 1.000000
v 1.000000 -1.000000 1.000000
v 0.500000 -1.000000 1.000000
v -0.500000 1.000000 1.000000
v -1.000000 -1.000000 -0.500000
v -1.000000 -1.000000 0.000000
v -1.000000 -0.500000 1.000000
v -1.000000 0.000000 1.000000
v -1.000000 1.000000 0.500000
v -1.000000 1.000000 0.000000
v -1.000000 0.500000 -1.000000
v -1.000000 0.000000 -1.000000
v 0.500000 -1.000000 -1.000000
v 0.000000 -1.000000 -1.000000
v -0.500000 1.000000 -1.000000
v 0.000000 1.000000 -1.000000
v 1.000000 0.500000 -1.000000
v 1.000000 0.000000 -1.000000
v 1.000000 -1.000000 0.500000
v 1.000000 -1.000000 0.000000
v 1.000000 1.000000 -0.500000
v 1.000000 1.000000 0.000000
v 1.000000 0.500000 1.000000
v 1.000000 0.000000 1.000000
v -0.500000 -1.000000 1.000000
v 0.000000 -1.000000 1.000000
v 0.500000 1.000000 1.000000
v 0.000000 1.000000 1.000000
v 0.000000 1.000000 0.500000
v 0.000000 1.000000 -0.500000
v 0.000000 1.000000 0.000000
v 0.500000 1.000000 0.000000
v -0.500000 1.000000 0.000000
v 0.000000 -1.000000 0.500000
v 0.000000 -1.000000 -0.500000
v 0.000000 -1.000000 0.000000
v -0.500000 -1.000000 0.000000
v 0.500000 -1.000000 0.000000
v -0.500000 0.000000 1.000000
v 0.500000 0.000000 1.000000
v 0.000000 0.000000 1.000000
v 0.000000 -0.500000 1.000000
v 0.000000 0.500000 1.000000
v 1.000000 0.000000 0.500000
v 1.000000 0.000000 -0.500000
v 1.000000 0.000000 0.000000
v 1.000000 -0.500000 0.000000
v 1.000000 0.500000 0.000000
v 0.500000 0.000000 -1.000000
v -0.500000 0.000000 -1.000000
v 0.000000 0.000000 -1.000000
v 0.000000 -0.500000 -1.000000
v 0.000000 0.500000 -1.000000
v -1.000000 0.000000 -0.500000
v -1.000000 0.000000 0.500000
v -1.000000 0.000000 0.000000
v -1.000000 -0.500000 0.000000
v -1.000000 0.500000 0.000000
v -1.000000 0.500000 0.500000
v -1.000000 -0.500000 0.500000
v -1.000000 -0.500000 -0.500000
v -0.500000 0.500000 -1.000000
v -0.500000 -0.500000 -1.000000
v 0.500000 -0.500000 -1.000000
v 1.000000 0.500000 -0.500000
v 1.000000 -0.500000 -0.500000
v 1.000000 -0.500000 0.500000
v 0.500000 0.500000 1.000000
v 0.500000 -0.500000 1.000000
v -0.500000 -0.500000 1.000000
v 0.500000 -1.000000 -0.500000
v -0.500000 -1.000000 -0.500000
v -0.500000 -1.000000 0.500000
v -0.500000 1.000000 -0.500000
v 0.500000 1.000000 -0.500000
v 0.500000 1.000000 0.500000
v -0.500000 1.000000 0.500000
v 0.500000 -1.000000 0.500000
v -0.500000 0.500000 1.000000
v 1.000000 0.500000 0.500000
v 0.500000 0.500000 -1.000000
v -1.000000 0.500000 -0.500000
v 0.000000 0.500000 1.000000
v 0.000000 0.000000 1.000000
v -0.500000 0.000000 1.000000
v -0.500000 0.500000 1.000000
v 0.000000 -1.000000 0.000000
v 0.000000 -1.000000 0.500000
v -0.500000 -1.000000 0.000000
v -0.500000 -1.000000 0.500000
v 1.000000 -1.000000 0.500000
v 1.000000 -1.000000 0.000000
v 1.000000 -0.500000 0.000000
v 0.500000 -1.000000 0.000000
v 1.000000 -0.500000 0.500000
v 0.500000 -1.000000 0.500000
v 1.000000 -1.000000 0.500000
v 1.000000 -1.000000 0.000000
v 1.000000 -0.500000 0.000000
v 0.500000 -1.000000 0.000000
v 1.000000 -0.500000 0.500000
v 0.500000 -1.000000 0.500000
v -1.000000 0.500000 1.000000
v -1.000000 0.500000 1.000000
v -1.000000 1.000000 0.500000
v -1.000000 1.000000 0.500000
v -1.000000 0.500000 0.500000
v -0.500000 1.000000 0.500000
v -0.500000 0.500000 1.000000
v -1.000000 0.500000 1.000000
v -1.000000 0.500000 1.000000
v -1.000000 1.000000 0.500000
v -1.000000 1.000000 0.500000
v -1.000000 0.500000 0.500000
v -0.500000 1.000000 0.500000
v -0.500000 0.500000 1.000000
v -1.000000 1.000000 0.500000
v -1.000000 1.000000 0.500000
v -1.000000 1.000000 0.500000
v -1.000000 0.500000 0.500000
v -0.500000 1.000000 0.500000
v -0.500000 0.500000 1.000000
v -1.000000 1.000000 1.000000
v -0.500000 1.000000 0.500000
v -1.000000 1.000000 0.500000
v -1.000000 0.500000 0.500000
v -0.500000 1.000000 0.500000
v -0.500000 0.500000 1.000000
v 1.000000 1.000000 1.000000
v 1.000000 0.500000 1.000000
v 0.500000 1.000000 1.000000
v 0.500000 0.500000 1.000000
v 0.500000 1.000000 0.500000
v -0.500000 1.000000 0.500000
v 1.000000 1.000000 1.000000
v 1.000000 0.500000 1.000000
v 0.500000 1.000000 1.000000
v 0.500000 0.500000 1.000000
v 0.500000 1.000000 0.500000
v -0.500000 1.000000 0.500000
v -0.500000 1.000000 0.500000
v -1.000000 1.000000 -0.500000
v -1.000000 1.000000 -1.000000
v 0.500000 1.000000 -1.000000
v 1.000000 1.000000 -1.000000
v 1.000000 1.000000 0.500000
v 1.000000 1.000000 1.000000
v -0.500000 0.500000 1.000000
v -0.500000 0.500000 1.000000
v -1.000000 1.000000 0.500000
v -1.000000 1.000000 0.000000
v -0.500000 1.000000 -1.000000
v 0.000000 1.000000 -1.000000
v 1.000000 1.000000 -0.500000
v 1.000000 1.000000 0.000000
v 0.500000 1.000000 1.000000
v 0.000000 1.000000 1.000000
v 0.000000 1.000000 0.500000
v 0.500000 1.000000 0.000000
v -0.500000 1.000000 1.000000
v -0.500000 1.000000 1.000000
v 1.000000 1.000000 1.000000
v 0.000000 1.000000 -0.500000
v -0.500000 1.000000 0.000000
v 0.000000 0.500000 1.000000
v -0.500000 1.000000 -0.500000
v 0.500000 1.000000 -0.500000
v 0.500000 1.000000 0.500000
v -0.500000 0.500000 1.000000
v -0.500000 1.000000 1.000000
v -1.000000 1.000000 0.500000
v -0.500000 1.000000 0.500000
v -0.500000 1.000000 0.500000
v -0.500000 0.500000 1.000000
v -0.500000 1.000000 0.500000
v -0.500000 1.000000 1.000000
v -1.000000 0.500000 1.000000
v -1.000000 1.000000 1.000000
v -0.500000 1.000000 1.000000
v -1.000000 1.000000 0.500000
v -0.500000 0.500000 1.000000
v -0.500000 1.000000 0.500000
v 0.500000 1.000000 0.500000
v 0.500000 1.000000 1.000000
v -0.500000 1.000000 0.500000
v 1.000000 1.000000 1.000000
v 0.500000 1.000000 1.000000
v 0.500000 1.000000 0.500000
v -0.500000 1.000000 0.500000
v -0.500000 1.000000 0.500000
v -0.500000 1.000000 0.500000
v -1.000000 1.000000 0.500000
v -1.000000 1.000000 0.500000
v -0.500000 1.000000 0.500000
v -0.500000 1.000000 0.500000
v -1.000000 1.000000 -0.500000
v -1.000000 1.000000 -1.000000
v 0.500000 1.000000 -1.000000
v 1.000000 1.000000 -1.000000
v 1.000000 1.000000 0.500000
v 1.000000 1.000000 1.000000
v -1.000000 1.000000 0.500000
v -1.000000 1.000000 0.000000
v -0.500000 1.000000 -1.000000
v 0.000000 1.000000 -1.000000
v 1.000000 1.000000 -0.500000
v 1.000000 1.000000 0.000000
v 0.500000 1.000000 1.000000
v 0.000000 1.000000 1.000000
v 0.000000 1.000000 0.500000
v 0.500000 1.000000 0.000000
v -0.500000 1.000000 1.000000
v -0.500000 1.000000 1.000000
v 1.000000 1.000000 1.000000
v 0.000000 1.000000 -0.500000
v -0.500000 1.000000 0.000000
v -0.500000 1.000000 -0.500000
v 0.500000 1.000000 -0.500000
v 0.500000 1.000000 0.500000
v -0.500000 1.000000 1.000000
v -0.500000 1.000000 0.500000
v -0.500000 1.000000 0.500000
v -0.500000 1.000000 1.000000
v -0.500000 1.000000 1.000000
v -1.000000 1.000000 1.000000
v -0.500000 1.000000 0.500000
v 0.500000 1.000000 0.500000
v 0.500000 1.000000 1.000000
v -0.500000 1.000000 0.500000
v 1.000000 1.000000 1.000000
v 0.500000 1.000000 1.000000
v 0.500000 1.000000 0.500000
v -1.000000 1.000000 0.500000
v -1.000000 1.000000 0.500000
v -1.000000 1.000000 0.500000
v -1.000000 1.000000 0.500000
v -0.500000 1.000000 0.500000
v -0.500000 1.000000 0.500000
v -0.500000 1.000000 0.500000
v -1.000000 1.000000 0.500000
v -1.000000 1.000000 0.500000
v -0.500000 1.000000 0.500000
v -0.500000 1.000000 0.500000
v -1.000000 1.000000 -0.500000
v -1.000000 1.000000 -1.000000
v 0.500000 1.000000 -1.000000
v 1.000000 1.000000 -1.000000
v 1.000000 1.000000 0.500000
v 1.000000 1.000000 1.000000
v -1.000000 1.000000 0.500000
v -1.000000 1.000000 0.000000
v -0.500000 1.000000 -1.000000
v 0.000000 1.000000 -1.000000
v 1.000000 1.000000 -0.500000
v 1.000000 1.000000 0.000000
v 0.500000 1.000000 1.000000
v 0.000000 1.000000 1.000000
v 0.000000 1.000000 0.500000
v 0.500000 1.000000 0.000000
v -0.500000 1.000000 1.000000
v -0.500000 1.000000 1.000000
v 1.000000 1.000000 1.000000
v 0.000000 1.000000 -0.500000
v -0.500000 1.000000 0.000000
v -0.500000 1.000000 -0.500000
v 0.500000 1.000000 -0.500000
v 0.500000 1.000000 0.500000
v -0.500000 1.000000 1.000000
v -0.500000 1.000000 0.500000
v -0.500000 1.000000 0.500000
v -0.500000 1.000000 1.000000
v -0.500000 1.000000 1.000000
v -1.000000 1.000000 1.000000
v -1.000000 1.000000 0.500000
v 0.500000 1.000000 0.500000
v 0.500000 1.000000 1.000000
v -0.500000 1.000000 0.500000
v 1.000000 1.000000 1.000000
v 0.500000 1.000000 1.000000
v 0.500000 1.000000 0.500000
v -1.000000 1.000000 0.500000
v -1.000000 1.000000 0.500000
v -1.000000 1.000000 0.500000
v -1.000000 1.000000 0.500000
v -0.500000 1.000000 0.500000
v -0.500000 1.000000 0.500000
v -0.500000 1.000000 0.500000
v -1.000000 1.000000 0.500000
v -1.000000 1.000000 0.500000
v -0.500000 1.000000 0.500000
v -0.500000 1.000000 0.500000
v -1.000000 1.000000 -0.500000
v -1.000000 1.000000 -1.000000
v 0.500000 1.000000 -1.000000
v 1.000000 1.000000 -1.000000
v 1.000000 1.000000 0.500000
v 1.000000 1.000000 1.000000
v -1.000000 1.000000 0.500000
v -1.000000 1.000000 0.000000
v -0.500000 1.000000 -1.000000
v 0.000000 1.000000 -1.000000
v 1.000000 1.000000 -0.500000
v 1.000000 1.000000 0.000000
v 0.500000 1.000000 1.000000
v 0.000000 1.000000 1.000000
v 0.000000 1.000000 0.500000
v 0.500000 1.000000 0.000000
v -0.500000 1.000000 1.000000
v -0.500000 1.000000 1.000000
v 1.000000 1.000000 1.000000
v 0.000000 1.000000 -0.500000
v -0.500000 1.000000 0.000000
v -0.500000 1.000000 -0.500000
v 0.500000 1.000000 -0.500000
v 0.500000 1.000000 0.500000
v -0.500000 1.000000 1.000000
v -0.500000 1.000000 0.500000
v -0.500000 1.000000 0.500000
v -0.500000 1.000000 1.000000
v -0.500000 1.000000 1.000000
v -1.000000 1.000000 1.000000
v 1.000000 1.000000 0.500000
v 0.500000 1.000000 0.500000
v 0.500000 1.000000 1.000000
v 1.000000 1.000000 0.500000
v 1.000000 1.000000 1.000000
v 0.500000 1.000000 1.000000
v 0.500000 1.000000 0.500000
v -1.000000 1.000000 0.500000
v -0.500000 1.000000 0.500000
v -0.500000 1.000000 0.500000
v -1.000000 1.000000 0.500000
v -1.000000 1.000000 0.500000
v -0.500000 1.000000 0.500000
v -0.500000 1.000000 0.500000
v -1.000000 1.000000 0.500000
v -1.000000 1.000000 0.500000
v -0.500000 1.000000 0.500000
v -1.000000 1.000000 0.500000
v -0.500000 1.000000 0.500000
v -0.500000 1.000000 0.500000
v -1.000000 1.000000 0.500000
v -0.500000 1.000000 0.500000
v -1.000000 1.000000 0.500000
v -1.000000 1.000000 0.500000
v -0.500000 1.000000 0.500000
v -0.500000 1.000000 1.000000
v -0.500000 1.000000 0.500000
v -0.500000 1.000000 0.500000
v -0.500000 1.000000 1.000000
v 0.500000 1.000000 0.500000
v 0.000000 1.000000 0.500000
v 0.000000 1.000000 1.000000
v 0.500000 1.000000 1.000000
v -0.500000 1.000000 -0.500000
v -1.000000 1.000000 -0.500000
v -1.000000 1.000000 0.000000
v -0.500000 1.000000 0.000000
v 0.000000 1.000000 -1.000000
v -0.500000 1.000000 -1.000000
v -0.500000 1.000000 -0.500000
v 0.000000 1.000000 -0.500000
v -0.500000 1.000000 -1.000000
v -1.000000 1.000000 -1.000000
v -1.000000 1.000000 -0.500000
v -0.500000 1.000000 -0.500000
v 1.000000 1.000000 -0.500000
v 0.500000 1.000000 -0.500000
v 0.500000 1.000000 0.000000
v 1.000000 1.000000 0.000000
v 1.000000 1.000000 -1.000000
v 0.500000 1.000000 -1.000000
v 0.500000 1.000000 -0.500000
v 1.000000 1.000000 -0.500000
v 0.500000 1.000000 -1.000000
v 0.000000 1.000000 -1.000000
v 0.000000 1.000000 -0.500000
v 0.500000 1.000000 -0.500000
v 1.000000 1.000000 0.000000
v 0.500000 1.000000 0.000000
v 0.500000 1.000000 0.500000
v 1.000000 1.000000 0.500000
v 0.000000 1.000000 0.500000
v -0.500000 1.000000 0.500000
v -0.500000 1.000000 1.000000
v 0.000000 1.000000 1.000000
v -0.500000 1.000000 0.000000
v -1.000000 1.000000 0.000000
v -1.000000 1.000000 0.500000
v -0.500000 1.000000 0.500000
v -0.500000 1.000000 1.000000
v -0.500000 1.000000 0.500000
v -0.500000 1.000000 0.500000
v -0.500000 1.000000 1.000000
v -0.500000 1.000000 1.000000
v -0.500000 1.000000 0.500000
v -0.500000 1.000000 0.500000
v -0.500000 1.000000 1.000000
v -0.500000 1.000000 0.500000
v -1.000000 1.000000 0.500000
v -1.000000 1.000000 1.000000
v -0.500000 1.000000 1.000000
v -0.500000 1.000000 1.000000
v -0.500000 1.000000 0.500000
v -0.500000 1.000000 0.500000
v -0.500000 1.000000 1.000000
v 1.000000 1.000000 1.000000
v 1.000000 1.000000 0.500000
v 1.000000 1.000000 0.500000
v 1.000000 1.000000 1.000000
v 1.000000 1.000000 0.500000
v 0.500000 1.000000 0.500000
v 0.500000 1.000000 0.500000
v 1.000000 1.000000 0.500000
v 0.500000 1.000000 0.500000
v 0.500000 1.000000 1.000000
v 0.500000 1.000000 1.000000
v 0.500000 1.000000 0.500000
v 1.000000 1.000000 1.000000
v 1.000000 1.000000 0.500000
v 1.000000 1.000000 0.500000
v 1.000000 1.000000 1.000000
v 1.000000 1.000000 0.500000
v 0.500000 1.000000 0.500000
v 0.500000 1.000000 1.000000
v 1.000000 1.000000 1.000000
v 1.000000 1.000000 0.500000
v 0.500000 1.000000 0.500000
v 0.500000 1.000000 0.500000
v 1.000000 1.000000 0.500000
v -0.500000 1.000000 0.500000
v -1.000000 1.000000 0.500000
v -1.000000 1.000000 0.500000
v -0.500000 1.000000 0.500000
v -1.000000 1.000000 0.500000
v -0.500000 1.000000 0.500000
v -1.000000 1.000000 0.500000
v -0.500000 1.000000 0.500000
v -1.000000 1.000000 0.500000
v -0.500000 1.000000 0.500000
v -1.000000 1.000000 0.500000
v -0.500000 1.000000 0.500000
v -1.000000 1.000000 0.500000
v -0.500000 1.000000 0.500000
v -1.000000 1.000000 0.500000
v -0.500000 1.000000 0.500000
v -0.500000 1.000000 0.500000
v -1.000000 1.000000 0.500000
v -0.500000 1.000000 0.500000
v -1.000000 1.000000 0.500000
v -1.000000 1.000000 0.500000
v -0.500000 1.000000 0.500000
v -1.000000 1.000000 0.500000
v -0.500000 1.000000 0.500000
v -0.500000 1.000000 0.500000
v -0.500000 1.000000 1.000000
v -0.500000 1.000000 0.500000
v -0.500000 1.000000 1.000000
v 0.000000 1.000000 0.500000
v 0.500000 1.000000 0.500000
v 0.000000 1.000000 1.000000
v 0.500000 1.000000 1.000000
v -1.000000 1.000000 -0.500000
v -0.500000 1.000000 -0.500000
v -1.000000 1.000000 0.000000
v -0.500000 1.000000 0.000000
v -0.500000 1.000000 -1.000000
v 0.000000 1.000000 -1.000000
v -0.500000 1.000000 -0.500000
v 0.000000 1.000000 -0.500000
v -1.000000 1.000000 -1.000000
v -0.500000 1.000000 -1.000000
v -1.000000 1.000000 -0.500000
v -0.500000 1.000000 -0.500000
v 0.500000 1.000000 -0.500000
v 1.000000 1.000000 -0.500000
v 0.500000 1.000000 0.000000
v 1.000000 1.000000 0.000000
v 0.500000 1.000000 -1.000000
v 1.000000 1.000000 -1.000000
v 0.500000 1.000000 -0.500000
v 1.000000 1.000000 -0.500000
v 0.000000 1.000000 -1.000000
v 0.500000 1.000000 -1.000000
v 0.000000 1.000000 -0.500000
v 0.500000 1.000000 -0.500000
v 0.500000 1.000000 0.000000
v 1.000000 1.000000 0.000000
v 0.500000 1.000000 0.500000
v 1.000000 1.000000 0.500000
v -0.500000 1.000000 0.500000
v 0.000000 1.000000 0.500000
v -0.500000 1.000000 1.000000
v 0.000000 1.000000 1.000000
v -1.000000 1.000000 0.000000
v -0.500000 1.000000 0.000000
v -1.000000 1.000000 0.500000
v -0.500000 1.000000 0.500000
v -0.500000 1.000000 0.500000
v -0.500000 1.000000 1.000000
v -0.500000 1.000000 0.500000
v -0.500000 1.000000 1.000000
v -0.500000 1.000000 0.500000
v -0.500000 1.000000 1.000000
v -0.500000 1.000000 0.500000
v -0.500000 1.000000 1.000000
v -1.000000 1.000000 0.500000
v -0.500000 1.000000 0.500000
v -1.000000 1.000000 1.000000
v -0.500000 1.000000 1.000000
v -0.500000 1.000000 0.500000
v -0.500000 1.000000 1.000000
v -0.500000 1.000000 0.500000
v -0.500000 1.000000 1.000000
v 1.000000 1.000000 0.500000
v 1.000000 1.000000 1.000000
v 1.000000 1.000000 0.500000
v 1.000000 1.000000 1.000000
v 0.500000 1.000000 0.500000
v 1.000000 1.000000 0.500000
v 0.500000 1.000000 0.500000
v 1.000000 1.000000 0.500000
v 0.500000 1.000000 1.000000
v 0.500000 1.000000 0.500000
v 0.500000 1.000000 1.000000
v 0.500000 1.000000 0.500000
v 1.000000 1.000000 0.500000
v 1.000000 1.000000 1.000000
v 1.000000 1.000000 0.500000
v 1.000000 1.000000 1.000000
v 0.500000 1.000000 0.500000
v 1.000000 1.000000 0.500000
v 0.500000 1.000000 1.000000
v 1.000000 1.000000 1.000000
v 0.500000 1.000000 0.500000
v 1.000000 1.000000 0.500000
v 0.500000 1.000000 0.500000
v 1.000000 1.000000 0.500000
v -1.000000 1.000000 0.500000
v -0.500000 1.000000 0.500000
v -1.000000 1.000000 0.500000
v -0.500000 1.000000 0.500000
v -1.000000 -0.500000 -1.000000
v -1.000000 -1.000000 -1.000000
v -1.000000 -1.000000 -0.500000
v -1.000000 -0.500000 -0.500000
v -3.344980 -1.000000 0.500000
v -3.344980 -1.000000 1.000000
v -3.344980 -1.000000 -0.500000
v -3.344980 -1.000000 0.000000
v -3.344980 -0.500000 0.000000
v -3.344980 -0.500000 1.000000
v -3.344980 -0.500000 0.500000
v -3.344980 -0.500000 -0.500000
v -3.344980 -0.500000 -1.000000
v -3.344980 -1.000000 -1.000000
v -3.344980 -1.000000 -0.500000
v -3.344980 -0.500000 -0.500000
v -1.000000 -0.500000 1.000000
v -1.000000 0.000000 1.000000
v -1.000000 0.000000 0.500000
v -1.000000 0.000000 0.000000
v -1.000000 0.000000 -0.500000
v -1.000000 -0.500000 0.000000
v -1.000000 -0.500000 0.500000
v -1.000000 -0.500000 -0.500000
v -2.758108 -0.500000 1.000000
v -2.758108 0.000000 1.000000
v -2.758108 0.000000 0.500000
v -2.758108 0.000000 0.000000
v -2.758108 0.000000 -0.500000
v -2.758108 -0.500000 0.000000
v -2.758108 -0.500000 0.500000
v -2.758108 -0.500000 -0.500000
v -1.000000 0.000000 0.500000
v -1.000000 0.000000 0.000000
v -1.000000 0.500000 0.000000
v -1.000000 0.000000 1.000000
v -1.000000 0.500000 1.000000
v -1.000000 0.500000 0.500000
v -2.175345 0.000000 0.500000
v -2.175345 0.000000 0.000000
v -2.175345 0.500000 0.000000
v -2.175345 0.000000 1.000000
v -2.175345 0.500000 1.000000
v -2.175345 0.500000 0.500000
v -1.635814 0.500000 1.000000
v -1.635814 1.000000 1.000000
v -1.635814 1.000000 0.500000
v -1.635814 0.500000 0.500000
v 1.000000 -0.500000 1.000000
v 1.000000 -1.000000 1.000000
v 0.500000 -1.000000 1.000000
v -1.000000 -0.500000 1.000000
v -1.000000 0.000000 1.000000
v -0.500000 -1.000000 1.000000
v 0.000000 -1.000000 1.000000
v -0.500000 0.000000 1.000000
v 0.500000 0.000000 1.000000
v 0.000000 0.000000 1.000000
v -1.000000 -1.000000 -1.000000
v -1.000000 0.500000 1.000000
v -1.000000 -1.000000 1.000000
v 0.500000 -0.500000 1.000000
v -1.000000 -0.500000 -1.000000
v -0.500000 0.500000 1.000000
v 0.000000 0.500000 1.000000
v 0.000000 0.000000 1.000000
v -0.500000 0.000000 1.000000
v -0.500000 0.500000 1.000000
v -1.000000 0.500000 1.000000
v -1.000000 1.000000 1.000000
v -0.500000 1.000000 1.000000
v -0.500000 0.500000 1.000000
v 1.000000 -0.500000 3.000000
v 1.000000 -1.000000 3.000000
v 0.500000 -1.000000 3.000000
v -1.000000 -0.500000 3.000000
v -1.000000 0.000000 3.000000
v -0.500000 -1.000000 3.000000
v 0.000000 -1.000000 3.000000
v -0.500000 0.000000 3.000000
v 0.500000 0.000000 3.000000
v 0.000000 0.000000 3.000000
v 0.000000 -0.500000 3.000000
v -1.000000 0.500000 3.000000
v -1.000000 -1.000000 3.000000
v 0.500000 -0.500000 3.000000
v -0.500000 -0.500000 3.000000
v -0.500000 0.500000 3.000000
v 0.000000 0.500000 3.000000
v 0.000000 0.000000 3.000000
v -0.500000 0.000000 3.000000
v -0.500000 0.500000 3.000000
v -1.000000 0.500000 3.000000
v -1.000000 1.000000 3.000000
v -0.500000 1.000000 3.000000
v -0.500000 0.500000 3.000000
v -0.500000 -1.000000 -1.000000
v 1.000000 -0.500000 -1.000000
v 1.000000 -1.000000 -1.000000
v 1.000000 -1.000000 -0.500000
v 1.000000 -0.500000 1.000000
v 1.000000 -1.000000 1.000000
v 0.500000 -1.000000 -1.000000
v 0.000000 -1.000000 -1.000000
v 1.000000 -0.500000 0.000000
v 1.000000 -1.000000 0.000000
v 0.000000 -0.500000 -1.000000
v 1.000000 -1.000000 0.500000
v -0.500000 -0.500000 -1.000000
v 0.500000 -0.500000 -1.000000
v 1.000000 -0.500000 -0.500000
v 1.000000 -0.500000 0.500000
v 1.000000 -1.000000 0.500000
v 1.000000 -1.000000 0.000000
v 1.000000 -0.500000 0.000000
v 1.000000 -0.500000 0.500000
v 3.209260 -0.500000 -1.000000
v 3.209260 -1.000000 -1.000000
v 3.209260 -1.000000 -0.500000
v 3.209260 -0.500000 1.000000
v 3.209260 -1.000000 1.000000
v 3.209260 -0.500000 0.000000
v 3.209260 -1.000000 0.000000
v 3.209260 -1.000000 0.500000
v 3.209260 -0.500000 -0.500000
v 3.209260 -0.500000 0.500000
v 3.209260 -1.000000 0.500000
v 3.209260 -1.000000 0.000000
v 3.209260 -0.500000 0.000000
v 3.209260 -0.500000 0.500000
v -1.000000 -0.500000 -3.181722
v -1.000000 -1.000000 -3.181722
v -0.500000 -1.000000 -3.181722
v 1.000000 -0.500000 -3.181722
v 1.000000 -1.000000 -3.181722
v 0.500000 -1.000000 -3.181722
v 0.000000 -1.000000 -3.181722
v 0.000000 -0.500000 -3.181722
v -0.500000 -0.500000 -3.181722
v 0.500000 -0.500000 -3.181722
v 1.000000 -0.750000 -1.000000
v 3.209260 -0.750000 -1.000000
v 2.104630 -0.500000 -1.000000
v 2.104630 -1.000000 -1.000000
v 1.000000 -0.750000 -3.181722
v 1.000000 -0.500000 -2.090861
v 1.000000 -1.000000 -2.090861
v 1.000000 -0.750000 -2.090861
v 2.104630 -0.750000 -1.000000
v 1.000000 0.500000 -1.000000
v 1.000000 0.500000 -0.500000
v 3.209260 0.500000 -1.000000
v 3.209260 0.500000 -0.500000
v 2.104630 0.500000 -1.000000
v 0.500000 1.500000 -1.000000
v 1.000000 1.500000 -1.000000
v 0.500000 1.500000 -3.181722
v 1.000000 1.500000 -3.181722
v 1.000000 1.500000 -2.090861
vn 1.0000 -0.0000 -0.0000
vn -0.0000 -0.0000 1.0000
vn -1.0000 -0.0000 -0.0000
vn -0.0000 -0.0000 -1.0000
vn -0.0000 1.0000 -0.0000
vn -0.0000 -1.0000 -0.0000
vt 0.562500 0.187500
vt 0.562500 0.250000
vt 0.625000 0.250000
vt 0.625000 0.187500
vt 0.562500 0.437500
vt 0.562500 0.500000
vt 0.625000 0.500000
vt 0.625000 0.437500
vt 0.562500 0.687500
vt 0.562500 0.750000
vt 0.625000 0.750000
vt 0.625000 0.687500
vt 0.562500 0.937500
vt 0.562500 1.000000
vt 0.625000 1.000000
vt 0.625000 0.937500
vt 0.312500 0.687500
vt 0.312500 0.750000
vt 0.375000 0.750000
vt 0.375000 0.687500
vt 0.812500 0.687500
vt 0.812500 0.750000
vt 0.875000 0.750000
vt 0.875000 0.687500
vt 0.687500 0.687500
vt 0.687500 0.750000
vt 0.750000 0.750000
vt 0.750000 0.687500
vt 0.687500 0.562500
vt 0.687500 0.625000
vt 0.750000 0.625000
vt 0.750000 0.562500
vt 0.812500 0.562500
vt 0.812500 0.625000
vt 0.875000 0.625000
vt 0.875000 0.562500
vt 0.187500 0.687500
vt 0.187500 0.750000
vt 0.250000 0.750000
vt 0.250000 0.687500
vt 0.187500 0.562500
vt 0.187500 0.625000
vt 0.250000 0.625000
vt 0.250000 0.562500
vt 0.312500 0.562500
vt 0.312500 0.625000
vt 0.375000 0.625000
vt 0.375000 0.562500
vt 0.437500 0.937500
vt 0.437500 1.000000
vt 0.500000 1.000000
vt 0.500000 0.937500
vt 0.437500 0.812500
vt 0.437500 0.875000
vt 0.500000 0.875000
vt 0.500000 0.812500
vt 0.562500 0.812500
vt 0.562500 0.875000
vt 0.625000 0.875000
vt 0.625000 0.812500
vt 0.437500 0.687500
vt 0.437500 0.750000
vt 0.500000 0.750000
vt 0.500000 0.687500
vt 0.437500 0.562500
vt 0.437500 0.625000
vt 0.500000 0.625000
vt 0.500000 0.562500
vt 0.562500 0.562500
vt 0.562500 0.625000
vt 0.625000 0.625000
vt 0.625000 0.562500
vt 0.437500 0.437500
vt 0.437500 0.500000
vt 0.500000 0.500000
vt 0.500000 0.437500
vt 0.437500 0.312500
vt 0.437500 0.375000
vt 0.500000 0.375000
vt 0.500000 0.312500
vt 0.562500 0.312500
vt 0.562500 0.375000
vt 0.625000 0.375000
vt 0.625000 0.312500
vt 0.437500 0.187500
vt 0.437500 0.250000
vt 0.500000 0.250000
vt 0.500000 0.187500
vt 0.437500 0.062500
vt 0.437500 0.125000
vt 0.500000 0.125000
vt 0.500000 0.062500
vt 0.562500 0.062500
vt 0.562500 0.125000
vt 0.625000 0.125000
vt 0.625000 0.062500
vt 0.500000 0.000000
vt 0.562500 0.000000
vt 0.625000 0.000000
vt 0.375000 0.062500
vt 0.375000 0.125000
vt 0.375000 0.000000
vt 0.437500 0.000000
vt 0.375000 0.187500
vt 0.375000 0.250000
vt 0.375000 0.312500
vt 0.375000 0.375000
vt 0.375000 0.437500
vt 0.375000 0.500000
vt 0.375000 0.812500
vt 0.375000 0.875000
vt 0.375000 0.937500
vt 0.375000 1.000000
vt 0.250000 0.500000
vt 0.312500 0.500000
vt 0.125000 0.562500
vt 0.125000 0.625000
vt 0.125000 0.500000
vt 0.187500 0.500000
vt 0.125000 0.687500
vt 0.125000 0.750000
vt 0.750000 0.500000
vt 0.812500 0.500000
vt 0.875000 0.500000
vt 0.687500 0.500000
vt 0.406250 0.500000
s 0
f 98/1/1 42/2/1 4/3/1 29/4/1
f 97/5/2 45/6/2 8/7/2 32/8/2
f 96/9/3 48/10/3 6/11/3 35/12/3
f 95/13/4 28/14/4 2/15/4 38/16/4
f 94/17/5 37/18/5 5/19/5 46/20/5
f 93/21/6 38/22/6 2/23/6 41/24/6
f 92/25/6 50/26/6 20/27/6 51/28/6
f 91/29/6 53/30/6 21/31/6 52/32/6
f 90/33/6 54/34/6 11/35/6 29/36/6
f 89/37/5 49/38/5 19/39/5 55/40/5
f 88/41/5 57/42/5 22/43/5 56/44/5
f 87/45/5 58/46/5 16/47/5 34/48/5
f 86/49/4 40/50/4 10/51/4 59/52/4
f 85/53/4 61/54/4 23/55/4 60/56/4
f 84/57/4 62/58/4 20/59/4 50/60/4
f 83/61/3 36/62/3 18/63/3 63/64/3
f 82/65/3 65/66/3 24/67/3 64/68/3
f 81/69/3 66/70/3 17/71/3 47/72/3
f 80/73/2 33/74/2 15/75/2 67/76/2
f 79/77/2 69/78/2 25/79/2 68/80/2
f 78/81/2 70/82/2 14/83/2 44/84/2
f 77/85/1 30/86/1 12/87/1 71/88/1
f 76/89/1 73/90/1 26/91/1 72/92/1
f 75/93/1 74/94/1 11/95/1 41/96/1
f 72/92/1 26/91/1 74/94/1 75/93/1
f 10/97/1 72/92/1 75/93/1 28/98/1
f 28/98/1 75/93/1 41/96/1 2/99/1
f 27/100/1 9/101/1 73/90/1 76/89/1
f 1/102/1 27/100/1 76/89/1 40/103/1
f 40/103/1 76/89/1 72/92/1 10/97/1
f 39/104/1 3/105/1 30/86/1 77/85/1
f 9/101/1 39/104/1 77/85/1 73/90/1
f 73/90/1 77/85/1 71/88/1 26/91/1
f 68/80/2 25/79/2 70/82/2 78/81/2
f 12/87/2 68/80/2 78/81/2 42/2/2
f 42/2/2 78/81/2 44/84/2 4/3/2
f 31/106/2 13/107/2 69/78/2 79/77/2
f 3/105/2 31/106/2 79/77/2 30/86/2
f 30/86/2 79/77/2 68/80/2 12/87/2
f 43/108/2 7/109/2 33/74/2 80/73/2
f 13/107/2 43/108/2 80/73/2 69/78/2
f 69/78/2 80/73/2 67/76/2 25/79/2
f 64/68/3 24/67/3 66/70/3 81/69/3
f 15/75/3 64/68/3 81/69/3 45/6/3
f 45/6/3 81/69/3 47/72/3 8/7/3
f 34/48/3 16/47/3 65/66/3 82/65/3
f 7/109/3 34/48/3 82/65/3 33/74/3
f 33/74/3 82/65/3 64/68/3 15/75/3
f 46/20/3 5/19/3 36/62/3 83/61/3
f 16/47/3 46/20/3 83/61/3 65/66/3
f 65/66/3 83/61/3 63/64/3 24/67/3
f 60/56/4 23/55/4 62/58/4 84/57/4
f 18/63/4 60/56/4 84/57/4 48/10/4
f 48/10/4 84/57/4 50/60/4 6/11/4
f 37/110/4 19/111/4 61/54/4 85/53/4
f 5/19/4 37/110/4 85/53/4 36/62/4
f 36/62/4 85/53/4 60/56/4 18/63/4
f 49/112/4 1/113/4 40/50/4 86/49/4
f 19/111/4 49/112/4 86/49/4 61/54/4
f 61/54/4 86/49/4 59/52/4 23/55/4
f 56/44/5 22/43/5 58/46/5 87/45/5
f 13/114/5 56/44/5 87/45/5 43/115/5
f 43/115/5 87/45/5 34/48/5 7/109/5
f 39/116/5 9/117/5 57/42/5 88/41/5
f 3/118/5 39/116/5 88/41/5 31/119/5
f 31/119/5 88/41/5 56/44/5 13/114/5
f 27/120/5 1/121/5 49/38/5 89/37/5
f 9/117/5 27/120/5 89/37/5 57/42/5
f 57/42/5 105/42/5 103/43/5 22/43/5
f 52/32/6 21/31/6 54/34/6 90/33/6
f 14/122/6 52/32/6 90/33/6 44/123/6
f 44/123/6 90/33/6 29/36/6 4/124/6
f 47/72/6 17/71/6 53/30/6 91/29/6
f 8/7/6 47/72/6 91/29/6 32/125/6
f 32/125/6 91/29/6 52/32/6 14/122/6
f 35/12/6 6/11/6 50/26/6 92/25/6
f 17/71/6 35/12/6 92/25/6 53/30/6
f 53/30/6 92/25/6 51/28/6 21/31/6
f 51/28/6 20/27/6 38/22/6 93/21/6
f 21/31/6 51/28/6 93/21/6 54/34/6
f 54/34/6 93/21/6 41/24/6 11/35/6
f 55/40/5 19/39/5 37/18/5 94/17/5
f 22/43/5 55/40/5 94/17/5 58/46/5
f 58/46/5 94/17/5 46/20/5 16/47/5
f 59/52/4 10/51/4 28/14/4 95/13/4
f 23/55/5 100/55/5 99/58/5 62/58/5
f 62/58/4 95/13/4 38/16/4 20/59/4
f 63/64/3 18/63/3 48/10/3 96/9/3
f 24/67/3 63/64/3 96/9/3 66/70/3
f 66/70/3 96/9/3 35/12/3 17/71/3
f 67/76/2 15/75/2 45/6/2 97/5/2
f 25/79/2 67/76/2 97/5/2 70/82/2
f 70/82/2 97/5/2 32/8/2 14/83/2
f 71/88/1 12/87/1 42/2/1 98/1/1
f 26/91/1 71/88/1 98/1/1 74/94/1
f 74/94/1 98/1/1 29/4/1 11/95/1
f 100/55/4 101/52/4 102/13/4 99/58/4
f 95/13/5 102/13/5 101/52/5 59/52/5
f 59/52/5 101/52/5 100/55/5 23/55/5
f 62/58/5 99/58/5 102/13/5 95/13/5
f 105/42/5 106/37/5 104/40/5 103/43/5
f 55/40/5 104/40/5 106/37/5 89/37/5
f 22/43/5 103/43/5 104/40/5 55/40/5
f 89/37/5 106/37/5 105/42/5 57/42/5
f 204/1/3 111/4/3 112/3/3 133/2/3
f 203/5/4 116/8/4 117/7/4 139/6/4
f 202/9/1 121/12/1 122/11/1 145/10/1
f 165/58/5 150/59/5 385/59/5 393/58/5
f 200/17/6 141/20/6 124/19/6 125/18/6
f 121/12/5 144/71/5 383/71/5 374/12/5
f 359/26/5 361/25/5 411/25/5 412/26/5
f 197/29/5 152/32/5 153/31/5 154/30/5
f 152/32/5 197/29/5 395/29/5 391/32/5
f 195/37/6 156/40/6 148/39/6 147/38/6
f 194/41/6 157/44/6 158/43/6 159/42/6
f 193/45/6 120/48/6 142/47/6 160/46/6
f 161/52/5 201/13/5 834/13/5 826/52/5
f 147/38/5 148/39/5 825/39/5 824/38/5
f 190/57/2 149/60/2 150/59/2 165/58/2
f 189/61/1 166/64/1 146/63/1 123/62/1
f 188/65/1 167/68/1 168/67/1 169/66/1
f 187/69/1 143/72/1 144/71/1 170/70/1
f 186/73/4 171/76/4 140/75/4 118/74/4
f 185/77/4 172/80/4 173/79/4 174/78/4
f 184/81/4 137/84/4 138/83/4 175/82/4
f 183/85/3 176/88/3 134/87/3 113/86/3
f 177/92/5 178/91/5 790/91/5 789/92/5
f 181/93/3 131/96/3 132/95/3 180/94/3
f 177/92/5 130/97/5 806/97/5 803/92/5
f 130/51/5 109/14/5 807/14/5 806/51/5
f 112/3/5 111/4/5 370/4/5 371/3/5
f 179/90/5 183/85/5 782/85/5 779/90/5
f 129/103/5 182/89/5 781/89/5 780/103/5
f 179/90/5 182/89/5 793/89/5 792/90/5
f 114/118/5 127/116/5 773/116/5 772/118/5
f 774/85/5 771/86/5 783/86/5 786/85/5
f 130/97/5 177/92/5 789/92/5 788/97/5
f 172/80/4 184/81/4 175/82/4 173/79/4
f 134/87/4 133/2/4 184/81/4 172/80/4
f 133/2/4 112/3/4 137/84/4 184/81/4
f 169/66/5 142/47/5 876/47/5 875/66/5
f 124/19/5 141/20/5 878/20/5 872/19/5
f 113/86/4 134/87/4 172/80/4 185/77/4
f 325/20/5 326/47/5 884/47/5 883/20/5
f 136/114/5 115/119/5 867/119/5 874/114/5
f 174/78/4 173/79/4 171/76/4 186/73/4
f 167/68/1 187/69/1 170/70/1 168/67/1
f 140/75/1 139/6/1 187/69/1 167/68/1
f 139/6/1 117/7/1 143/72/1 187/69/1
f 120/48/5 119/109/5 869/109/5 870/48/5
f 118/74/5 188/65/5 881/65/5 868/74/5
f 118/74/1 140/75/1 167/68/1 188/65/1
f 174/78/5 186/73/5 880/73/5 877/78/5
f 141/20/5 200/17/5 324/17/5 319/20/5
f 169/66/1 168/67/1 166/64/1 189/61/1
f 162/56/2 190/57/2 165/58/2 163/55/2
f 146/63/2 145/10/2 190/57/2 162/56/2
f 149/60/5 190/57/5 360/57/5 359/60/5
f 407/16/5 406/15/5 840/15/5 841/16/5
f 206/55/5 205/58/5 835/58/5 836/55/5
f 123/62/2 146/63/2 162/56/2 191/53/2
f 148/39/5 125/18/5 821/18/5 825/39/5
f 406/99/5 405/98/5 839/98/5 840/99/5
f 163/55/5 161/52/5 826/52/5 828/55/5
f 157/44/6 193/45/6 160/46/6 158/43/6
f 136/114/6 135/115/6 193/45/6 157/44/6
f 135/115/6 119/109/6 120/48/6 193/45/6
f 127/116/6 194/41/6 159/42/6 128/117/6
f 114/118/6 115/119/6 194/41/6 127/116/6
f 115/119/6 136/114/6 157/44/6 194/41/6
f 107/120/6 195/37/6 147/38/6 108/121/6
f 128/117/6 159/42/6 195/37/6 107/120/6
f 159/42/5 158/43/5 209/43/5 211/42/5
f 152/32/5 196/33/5 155/34/5 153/31/5
f 343/21/5 349/21/5 401/21/5 400/21/5
f 349/21/5 355/21/5 403/21/5 401/21/5
f 143/72/5 117/7/5 373/7/5 382/72/5
f 367/25/5 365/26/5 415/26/5 416/25/5
f 353/96/5 351/99/5 406/99/5 408/96/5
f 145/10/5 122/11/5 357/11/5 358/10/5
f 132/95/5 131/96/5 378/96/5 379/95/5
f 154/30/5 153/31/5 151/28/5 198/25/5
f 116/8/5 138/83/5 381/83/5 372/8/5
f 153/31/5 155/34/5 199/21/5 151/28/5
f 197/29/5 154/30/5 387/30/5 395/29/5
f 156/40/6 200/17/6 125/18/6 148/39/6
f 158/43/6 160/46/6 200/17/6 156/40/6
f 142/47/5 169/66/5 321/66/5 320/47/5
f 201/13/5 109/14/5 830/14/5 834/13/5
f 163/55/5 165/58/5 205/58/5 206/55/5
f 351/99/5 339/98/5 405/98/5 406/99/5
f 166/64/1 202/9/1 145/10/1 146/63/1
f 168/67/1 170/70/1 202/9/1 166/64/1
f 170/70/1 144/71/1 121/12/1 202/9/1
f 171/76/4 203/5/4 139/6/4 140/75/4
f 173/79/4 175/82/4 203/5/4 171/76/4
f 175/82/4 138/83/4 116/8/4 203/5/4
f 176/88/3 204/1/3 133/2/3 134/87/3
f 178/91/3 180/94/3 204/1/3 176/88/3
f 180/94/3 132/95/3 111/4/3 204/1/3
f 191/53/5 162/56/5 827/56/5 832/53/5
f 201/13/5 161/52/5 207/52/5 208/13/5
f 161/52/5 163/55/5 206/55/5 207/52/5
f 165/58/5 201/13/5 208/13/5 205/58/5
f 211/42/6 209/43/6 210/40/6 212/37/6
f 156/40/5 195/37/5 212/37/5 210/40/5
f 158/43/5 156/40/5 210/40/5 209/43/5
f 195/37/5 159/42/5 211/42/5 212/37/5
f 323/61/5 319/20/5 325/20/5 329/61/5
f 319/20/5 324/17/5 330/17/5 325/20/5
f 200/17/5 160/46/5 322/46/5 324/17/5
f 169/66/5 189/61/5 323/61/5 321/66/5
f 160/46/5 142/47/5 320/47/5 322/46/5
f 189/61/5 141/20/5 319/20/5 323/61/5
f 188/65/5 169/66/5 875/66/5 881/65/5
f 328/46/6 326/47/6 325/20/6 330/17/6
f 322/46/5 320/47/5 326/47/5 328/46/5
f 324/17/5 322/46/5 328/46/5 330/17/5
f 321/66/5 323/61/5 329/61/5 327/66/5
f 320/47/5 321/66/5 327/66/5 326/47/5
f 334/96/5 335/93/5 342/93/5 341/96/5
f 355/21/5 349/21/5 419/21/5 362/21/5
f 131/96/5 334/96/5 399/96/5 378/96/5
f 109/14/5 201/13/5 337/13/5 331/14/5
f 131/96/5 181/93/5 335/93/5 334/96/5
f 181/93/5 109/98/5 331/98/5 335/93/5
f 342/93/5 338/98/5 332/98/5 348/93/5
f 137/84/5 112/3/5 371/3/5 380/84/5
f 338/14/5 344/13/5 350/13/5 332/14/5
f 331/14/5 337/13/5 344/13/5 338/14/5
f 365/60/5 363/11/5 414/11/5 415/60/5
f 335/93/5 331/98/5 338/98/5 342/93/5
f 332/14/5 350/13/5 356/13/5 339/14/5
f 347/96/5 348/93/5 354/93/5 353/96/5
f 396/25/5 386/28/5 438/28/5 447/25/5
f 337/13/5 201/13/5 377/13/5 376/13/5
f 381/83/5 380/84/5 432/84/5 433/83/5
f 341/96/5 342/93/5 348/93/5 347/96/5
f 196/33/5 152/32/5 391/32/5 394/33/5
f 336/21/5 343/21/5 400/21/5 369/21/5
f 354/93/6 339/98/6 815/98/6 818/93/6
f 111/4/5 132/95/5 379/95/5 370/4/5
f 348/93/5 332/98/5 339/98/5 354/93/5
f 150/59/5 149/60/5 384/60/5 385/59/5
f 151/28/5 199/21/5 368/21/5 386/28/5
f 359/60/5 360/57/5 366/57/5 365/60/5
f 400/21/5 401/21/5 450/21/5 449/21/5
f 190/57/5 145/10/5 358/10/5 360/57/5
f 155/34/5 196/33/5 394/33/5 392/34/5
f 199/21/5 155/34/5 392/34/5 368/21/5
f 364/10/2 363/11/2 365/60/2 366/57/2
f 122/11/5 121/12/5 374/12/5 375/11/5
f 361/25/5 359/26/5 365/26/5 367/25/5
f 360/57/5 358/10/5 364/10/5 366/57/5
f 358/10/5 357/11/5 363/11/5 364/10/5
f 356/13/5 350/13/5 402/13/5 409/13/5
f 379/95/5 378/96/5 430/96/5 431/95/5
f 416/25/5 415/26/5 459/26/5 460/25/5
f 378/96/5 399/96/5 421/96/5 430/96/5
f 390/11/5 375/11/5 429/11/5 442/11/5
f 377/13/5 388/16/5 389/16/5 376/13/5
f 387/30/5 396/25/5 447/25/5 439/30/5
f 415/60/5 414/11/5 458/11/5 459/60/5
f 382/72/5 373/7/5 427/7/5 434/72/5
f 408/96/5 406/99/5 453/99/5 346/96/5
f 341/96/5 347/96/5 420/96/5 333/96/5
f 375/11/5 374/12/5 428/12/5 429/11/5
f 403/21/5 355/21/5 362/21/5 352/21/5
f 343/21/5 336/21/5 417/21/5 418/21/5
f 393/58/2 385/59/2 388/16/2 377/13/2
f 376/13/5 389/16/5 398/16/5 397/13/5
f 380/84/5 371/3/5 425/3/5 432/84/5
f 406/15/5 407/16/5 452/16/5 453/15/5
f 397/13/5 398/16/5 404/16/5 402/13/5
f 130/51/5 129/50/5 822/50/5 823/51/5
f 391/32/5 395/29/5 446/29/5 443/32/5
f 373/7/5 372/8/5 426/8/5 427/7/5
f 402/13/5 404/16/5 407/16/5 409/13/5
f 336/21/5 369/21/5 422/21/5 417/21/5
f 389/16/5 388/16/5 440/16/5 441/16/5
f 371/3/5 370/4/5 424/4/5 425/3/5
f 398/16/5 389/16/5 441/16/5 448/16/5
f 388/16/5 385/59/5 437/59/5 440/16/5
f 404/16/5 398/16/5 448/16/5 451/16/5
f 201/13/5 165/58/5 393/58/5 377/13/5
f 350/13/5 344/13/5 397/13/5 402/13/5
f 138/83/5 137/84/5 380/84/5 381/83/5
f 344/13/5 337/13/5 376/13/5 397/13/5
f 357/11/5 122/11/5 375/11/5 390/11/5
f 154/30/5 198/25/5 396/25/5 387/30/5
f 384/60/5 412/60/5 456/60/5 436/60/5
f 363/11/5 357/11/5 390/11/5 414/11/5
f 117/7/5 116/8/5 372/8/5 373/7/5
f 339/14/5 356/13/5 409/13/5 405/14/5
f 361/25/5 367/25/5 416/25/5 411/25/5
f 198/25/5 151/28/5 386/28/5 396/25/5
f 149/60/5 359/60/5 412/60/5 384/60/5
f 144/71/5 143/72/5 382/72/5 383/71/5
f 450/21/5 352/21/5 410/21/5 498/21/5
f 434/72/5 427/7/5 475/7/5 482/72/5
f 439/30/5 447/25/5 495/25/5 487/30/5
f 427/7/5 426/8/5 474/8/5 475/7/5
f 422/21/5 449/21/5 497/21/5 470/21/5
f 432/84/5 425/3/5 473/3/5 480/84/5
f 340/96/5 333/96/5 464/96/5 463/96/5
f 425/3/5 424/4/5 472/4/5 473/3/5
f 441/16/5 440/16/5 488/16/5 489/16/5
f 345/96/5 346/96/5 461/96/5 462/96/5
f 436/60/5 456/60/5 504/60/5 484/60/5
f 443/32/5 446/29/5 494/29/5 491/32/5
f 449/21/5 450/21/5 498/21/5 497/21/5
f 440/16/5 437/59/5 485/59/5 488/16/5
f 352/21/5 362/21/5 413/21/5 410/21/5
f 417/21/5 422/21/5 470/21/5 465/21/5
f 430/96/5 421/96/5 469/96/5 478/96/5
f 428/12/5 435/71/5 483/71/5 476/12/5
f 456/26/5 455/25/5 503/25/5 504/26/5
f 421/96/5 340/96/5 463/96/5 469/96/5
f 426/8/5 433/83/5 481/83/5 474/8/5
f 446/29/5 439/30/5 487/30/5 494/29/5
f 424/4/5 431/95/5 479/95/5 472/4/5
f 452/16/5 451/16/5 499/16/5 500/16/5
f 333/96/5 420/96/5 468/96/5 464/96/5
f 455/25/5 460/25/5 508/25/5 503/25/5
f 448/16/5 441/16/5 489/16/5 496/16/5
f 383/71/5 382/72/5 434/72/5 435/71/5
f 349/21/5 343/21/5 418/21/5 419/21/5
f 347/96/5 353/96/5 345/96/5 420/96/5
f 414/11/5 390/11/5 442/11/5 458/11/5
f 385/59/5 384/60/5 436/60/5 437/59/5
f 368/21/5 392/34/5 444/34/5 423/21/5
f 334/96/5 341/96/5 333/96/5 340/96/5
f 392/34/5 394/33/5 445/33/5 444/34/5
f 411/25/5 416/25/5 460/25/5 455/25/5
f 386/28/5 368/21/5 423/21/5 438/28/5
f 407/16/5 404/16/5 451/16/5 452/16/5
f 369/21/5 400/21/5 449/21/5 422/21/5
f 394/33/5 391/32/5 443/32/5 445/33/5
f 401/21/5 403/21/5 352/21/5 450/21/5
f 370/4/5 379/95/5 431/95/5 424/4/5
f 412/26/5 411/25/5 455/25/5 456/26/5
f 353/96/5 408/96/5 346/96/5 345/96/5
f 372/8/5 381/83/5 433/83/5 426/8/5
f 399/96/5 334/96/5 340/96/5 421/96/5
f 395/29/5 387/30/5 439/30/5 446/29/5
f 374/12/5 383/71/5 435/71/5 428/12/5
f 463/96/5 464/96/5 512/96/5 511/96/5
f 473/3/5 472/4/5 520/4/5 521/3/5
f 489/16/5 488/16/5 536/16/5 537/16/5
f 462/96/5 461/96/5 509/96/5 510/96/5
f 484/60/5 504/60/5 552/60/5 532/60/5
f 491/32/5 494/29/5 542/29/5 539/32/5
f 497/21/5 498/21/5 546/21/5 545/21/5
f 488/16/5 485/59/5 533/59/5 536/16/5
f 410/21/5 413/21/5 457/21/5 454/21/5
f 465/21/5 470/21/5 518/21/5 513/21/5
f 478/96/5 469/96/5 517/96/5 526/96/5
f 476/12/5 483/71/5 531/71/5 524/12/5
f 504/26/5 503/25/5 551/25/5 552/26/5
f 469/96/5 463/96/5 511/96/5 517/96/5
f 474/8/5 481/83/5 529/83/5 522/8/5
f 494/29/5 487/30/5 535/30/5 542/29/5
f 472/4/5 479/95/5 527/95/5 520/4/5
f 500/16/5 499/16/5 547/16/5 548/16/5
f 464/96/5 468/96/5 516/96/5 512/96/5
f 503/25/5 508/25/5 556/25/5 551/25/5
f 496/16/5 489/16/5 537/16/5 544/16/5
f 493/33/5 491/32/5 539/32/5 541/33/5
f 506/11/5 490/11/5 538/11/5 554/11/5
f 468/96/5 462/96/5 510/96/5 516/96/5
f 486/28/5 471/21/5 519/21/5 534/28/5
f 485/59/5 484/60/5 532/60/5 533/59/5
f 461/96/5 501/99/5 549/99/5 509/96/5
f 429/11/5 428/12/5 476/12/5 477/11/5
f 419/21/5 418/21/5 466/21/5 467/21/5
f 442/11/5 429/11/5 477/11/5 490/11/5
f 431/95/5 430/96/5 478/96/5 479/95/5
f 447/25/5 438/28/5 486/28/5 495/25/5
f 459/60/5 458/11/5 506/11/5 507/60/5
f 451/16/5 448/16/5 496/16/5 499/16/5
f 433/83/5 432/84/5 480/84/5 481/83/5
f 460/25/5 459/26/5 507/26/5 508/25/5
f 418/21/5 417/21/5 465/21/5 466/21/5
f 453/15/5 452/16/5 500/16/5 501/15/5
f 435/71/5 434/72/5 482/72/5 483/71/5
f 423/21/5 444/34/5 492/34/5 471/21/5
f 362/21/5 419/21/5 467/21/5 413/21/5
f 444/34/5 445/33/5 493/33/5 492/34/5
f 346/96/5 453/99/5 501/99/5 461/96/5
f 437/59/5 436/60/5 484/60/5 485/59/5
f 438/28/5 423/21/5 471/21/5 486/28/5
f 420/96/5 345/96/5 462/96/5 468/96/5
f 458/11/5 442/11/5 490/11/5 506/11/5
f 445/33/5 443/32/5 491/32/5 493/33/5
f 480/84/5 473/3/5 521/3/5 528/84/5
f 470/21/5 497/21/5 545/21/5 518/21/5
f 475/7/5 474/8/5 522/8/5 523/7/5
f 487/30/5 495/25/5 543/25/5 535/30/5
f 482/72/5 475/7/5 523/7/5 530/72/5
f 498/21/5 410/21/5 454/21/5 546/21/5
f 477/11/5 476/12/5 524/12/5 525/11/5
f 467/21/5 466/21/5 514/21/5 515/21/5
f 490/11/5 477/11/5 525/11/5 538/11/5
f 479/95/5 478/96/5 526/96/5 527/95/5
f 495/25/5 486/28/5 534/28/5 543/25/5
f 507/60/5 506/11/5 554/11/5 555/60/5
f 499/16/5 496/16/5 544/16/5 547/16/5
f 481/83/5 480/84/5 528/84/5 529/83/5
f 508/25/5 507/26/5 555/26/5 556/25/5
f 466/21/5 465/21/5 513/21/5 514/21/5
f 501/15/5 500/16/5 548/16/5 549/15/5
f 483/71/5 482/72/5 530/72/5 531/71/5
f 471/21/5 492/34/5 540/34/5 519/21/5
f 413/21/5 467/21/5 515/21/5 457/21/5
f 492/34/5 493/33/5 541/33/5 540/34/5
f 576/21/5 577/21/5 685/21/5 683/21/5
f 511/24/5 502/24/5 505/21/5 513/21/5
f 512/24/5 557/24/5 502/24/5 511/24/5
f 514/21/5 558/21/5 557/24/5 512/24/5
f 513/21/5 505/21/5 558/21/5 514/21/5
f 654/11/5 651/12/5 760/12/5 762/11/5
f 516/24/5 560/24/5 559/21/5 515/21/5
f 510/24/5 561/24/5 560/24/5 516/24/5
f 457/21/5 562/21/5 561/24/5 510/24/5
f 515/21/5 559/21/5 562/21/5 457/21/5
f 575/22/5 576/21/5 683/21/5 684/22/5
f 512/24/5 564/24/5 563/21/5 514/21/5
f 516/24/5 565/24/5 564/24/5 512/24/5
f 515/21/5 566/21/5 565/24/5 516/24/5
f 514/21/5 563/21/5 566/21/5 515/21/5
f 653/26/5 654/11/5 762/11/5 761/26/5
f 513/21/5 568/21/5 567/24/5 511/24/5
f 518/21/5 569/21/5 568/21/5 513/21/5
f 517/24/5 570/24/5 569/21/5 518/21/5
f 511/24/5 567/24/5 570/24/5 517/24/5
f 602/72/5 599/7/5 708/7/5 710/72/5
f 526/24/5 572/24/5 571/21/5 519/21/5
f 517/24/5 573/24/5 572/24/5 526/24/5
f 518/21/5 574/21/5 573/24/5 517/24/5
f 519/21/5 571/21/5 574/21/5 518/21/5
f 652/25/5 653/26/5 761/26/5 759/25/5
f 519/21/5 576/21/5 575/22/5 536/22/5
f 518/21/5 577/21/5 576/21/5 519/21/5
f 537/22/5 578/22/5 577/21/5 518/21/5
f 536/22/5 575/22/5 578/22/5 537/22/5
f 601/29/5 602/72/5 710/72/5 709/29/5
f 534/28/5 580/28/5 579/25/5 543/25/5
f 533/27/5 581/27/5 580/28/5 534/28/5
f 532/26/5 582/26/5 581/27/5 533/27/5
f 543/25/5 579/25/5 582/26/5 532/26/5
f 651/12/5 652/25/5 759/25/5 760/12/5
f 520/36/5 584/36/5 583/33/5 541/33/5
f 527/35/5 585/35/5 584/36/5 520/36/5
f 540/34/5 586/34/5 585/35/5 527/35/5
f 541/33/5 583/33/5 586/34/5 540/34/5
f 600/125/5 601/29/5 709/29/5 707/125/5
f 528/123/5 588/123/5 587/122/5 529/122/5
f 541/33/5 589/33/5 588/123/5 528/123/5
f 539/32/5 590/32/5 589/33/5 541/33/5
f 529/122/5 587/122/5 590/32/5 539/32/5
f 599/7/5 600/125/5 707/125/5 708/7/5
f 521/124/5 592/124/5 591/123/5 528/123/5
f 520/36/5 593/36/5 592/124/5 521/124/5
f 541/33/5 594/33/5 593/36/5 520/36/5
f 528/123/5 591/123/5 594/33/5 541/33/5
f 626/22/5 623/22/5 732/22/5 734/22/5
f 542/29/5 596/29/5 595/72/5 530/72/5
f 535/30/5 597/30/5 596/29/5 542/29/5
f 531/71/5 598/71/5 597/30/5 535/30/5
f 530/72/5 595/72/5 598/71/5 531/71/5
f 625/21/5 626/22/5 734/22/5 733/21/5
f 522/125/5 600/125/5 599/7/5 523/7/5
f 542/29/5 601/29/5 600/125/5 522/125/5
f 530/72/5 602/72/5 601/29/5 542/29/5
f 523/7/5 599/7/5 602/72/5 530/72/5
f 574/21/5 571/21/5 680/21/5 682/21/5
f 529/122/5 604/122/5 603/125/5 522/125/5
f 539/32/5 605/32/5 604/122/5 529/122/5
f 542/29/5 606/29/5 605/32/5 539/32/5
f 522/125/5 603/125/5 606/29/5 542/29/5
f 624/21/5 625/21/5 733/21/5 731/21/5
f 535/30/5 608/30/5 607/71/5 531/71/5
f 543/25/5 609/25/5 608/30/5 535/30/5
f 524/12/5 610/12/5 609/25/5 543/25/5
f 531/71/5 607/71/5 610/12/5 524/12/5
f 573/24/5 574/21/5 682/21/5 681/24/5
f 519/21/5 612/21/5 611/28/5 534/28/5
f 536/22/5 613/22/5 612/21/5 519/21/5
f 533/27/5 614/27/5 613/22/5 536/22/5
f 534/28/5 611/28/5 614/27/5 533/27/5
f 623/22/5 624/21/5 731/21/5 732/22/5
f 527/35/5 616/35/5 615/34/5 540/34/5
f 526/24/5 617/24/5 616/35/5 527/35/5
f 519/21/5 618/21/5 617/24/5 526/24/5
f 540/34/5 615/34/5 618/21/5 519/21/5
f 572/24/5 573/24/5 681/24/5 679/24/5
f 545/21/5 620/21/5 619/22/5 544/22/5
f 546/21/5 621/21/5 620/21/5 545/21/5
f 547/22/5 622/22/5 621/21/5 546/21/5
f 544/22/5 619/22/5 622/22/5 547/22/5
f 650/11/5 647/11/5 756/11/5 758/11/5
f 518/21/5 624/21/5 623/22/5 537/22/5
f 545/21/5 625/21/5 624/21/5 518/21/5
f 544/22/5 626/22/5 625/21/5 545/21/5
f 537/22/5 623/22/5 626/22/5 544/22/5
f 571/21/5 572/24/5 679/24/5 680/21/5
f 509/24/5 628/24/5 627/21/5 454/21/5
f 549/23/5 629/23/5 628/24/5 509/24/5
f 548/22/5 630/22/5 629/23/5 549/23/5
f 454/21/5 627/21/5 630/22/5 548/22/5
f 649/12/5 650/11/5 758/11/5 757/12/5
f 546/21/5 632/21/5 631/22/5 547/22/5
f 454/21/5 633/21/5 632/21/5 546/21/5
f 548/22/5 634/22/5 633/21/5 454/21/5
f 547/22/5 631/22/5 634/22/5 548/22/5
f 598/71/5 595/72/5 704/72/5 706/71/5
f 550/12/5 636/12/5 635/11/5 538/11/5
f 553/12/5 637/12/5 636/12/5 550/12/5
f 554/11/5 638/11/5 637/12/5 553/12/5
f 538/11/5 635/11/5 638/11/5 554/11/5
f 648/12/5 649/12/5 757/12/5 755/12/5
f 543/25/5 640/25/5 639/12/5 524/12/5
f 551/25/5 641/25/5 640/25/5 543/25/5
f 550/12/5 642/12/5 641/25/5 551/25/5
f 524/12/5 639/12/5 642/12/5 550/12/5
f 597/30/5 598/71/5 706/71/5 705/30/5
f 532/26/5 644/26/5 643/25/5 543/25/5
f 552/26/5 645/26/5 644/26/5 532/26/5
f 551/25/5 646/25/5 645/26/5 552/26/5
f 543/25/5 643/25/5 646/25/5 551/25/5
f 647/11/5 648/12/5 755/12/5 756/11/5
f 524/12/5 648/12/5 647/11/5 525/11/5
f 550/12/5 649/12/5 648/12/5 524/12/5
f 538/11/5 650/11/5 649/12/5 550/12/5
f 525/11/5 647/11/5 650/11/5 538/11/5
f 596/29/5 597/30/5 705/30/5 703/29/5
f 556/25/5 652/25/5 651/12/5 553/12/5
f 555/26/5 653/26/5 652/25/5 556/25/5
f 554/11/5 654/11/5 653/26/5 555/26/5
f 553/12/5 651/12/5 654/11/5 554/11/5
f 595/72/5 596/29/5 703/29/5 704/72/5
f 551/25/5 656/25/5 655/12/5 550/12/5
f 556/25/5 657/25/5 656/25/5 551/25/5
f 553/12/5 658/12/5 657/25/5 556/25/5
f 550/12/5 655/12/5 658/12/5 553/12/5
f 622/22/5 619/22/5 728/22/5 730/22/5
f 510/24/5 660/24/5 659/21/5 457/21/5
f 509/24/5 661/24/5 660/24/5 510/24/5
f 454/21/5 662/21/5 661/24/5 509/24/5
f 457/21/5 659/21/5 662/21/5 454/21/5
f 664/21/5 663/24/5 665/24/5 666/21/5
f 668/21/5 667/24/5 669/24/5 670/21/5
f 672/21/5 671/24/5 673/24/5 674/21/5
f 676/24/5 675/21/5 677/21/5 678/24/5
f 680/21/5 679/24/5 681/24/5 682/21/5
f 684/22/5 683/21/5 685/21/5 686/22/5
f 688/25/5 687/28/5 689/27/5 690/26/5
f 692/33/5 691/36/5 693/35/5 694/34/5
f 696/122/5 695/123/5 697/33/5 698/32/5
f 700/123/5 699/124/5 701/36/5 702/33/5
f 704/72/5 703/29/5 705/30/5 706/71/5
f 708/7/5 707/125/5 709/29/5 710/72/5
f 712/125/5 711/122/5 713/32/5 714/29/5
f 716/71/5 715/30/5 717/25/5 718/12/5
f 720/28/5 719/21/5 721/22/5 722/27/5
f 724/34/5 723/35/5 725/24/5 726/21/5
f 728/22/5 727/21/5 729/21/5 730/22/5
f 732/22/5 731/21/5 733/21/5 734/22/5
f 736/21/5 735/24/5 737/23/5 738/22/5
f 740/22/5 739/21/5 741/21/5 742/22/5
f 744/11/5 743/12/5 745/12/5 746/11/5
f 748/12/5 747/25/5 749/25/5 750/12/5
f 752/25/5 751/26/5 753/26/5 754/25/5
f 756/11/5 755/12/5 757/12/5 758/11/5
f 760/12/5 759/25/5 761/26/5 762/11/5
f 764/12/5 763/25/5 765/25/5 766/12/5
f 768/21/5 767/24/5 769/24/5 770/21/5
f 627/21/5 628/24/5 735/24/5 736/21/5
f 577/21/5 578/22/5 686/22/5 685/21/5
f 628/24/5 629/23/5 737/23/5 735/24/5
f 578/22/5 575/22/5 684/22/5 686/22/5
f 629/23/5 630/22/5 738/22/5 737/23/5
f 630/22/5 627/21/5 736/21/5 738/22/5
f 603/125/5 604/122/5 711/122/5 712/125/5
f 604/122/5 605/32/5 713/32/5 711/122/5
f 655/12/5 656/25/5 763/25/5 764/12/5
f 605/32/5 606/29/5 714/29/5 713/32/5
f 656/25/5 657/25/5 765/25/5 763/25/5
f 606/29/5 603/125/5 712/125/5 714/29/5
f 657/25/5 658/12/5 766/12/5 765/25/5
f 579/25/5 580/28/5 687/28/5 688/25/5
f 658/12/5 655/12/5 764/12/5 766/12/5
f 580/28/5 581/27/5 689/27/5 687/28/5
f 631/22/5 632/21/5 739/21/5 740/22/5
f 581/27/5 582/26/5 690/26/5 689/27/5
f 632/21/5 633/21/5 741/21/5 739/21/5
f 582/26/5 579/25/5 688/25/5 690/26/5
f 633/21/5 634/22/5 742/22/5 741/21/5
f 505/21/5 502/24/5 663/24/5 664/21/5
f 634/22/5 631/22/5 740/22/5 742/22/5
f 502/24/5 557/24/5 665/24/5 663/24/5
f 607/71/5 608/30/5 715/30/5 716/71/5
f 557/24/5 558/21/5 666/21/5 665/24/5
f 608/30/5 609/25/5 717/25/5 715/30/5
f 659/21/5 660/24/5 767/24/5 768/21/5
f 558/21/5 505/21/5 664/21/5 666/21/5
f 609/25/5 610/12/5 718/12/5 717/25/5
f 660/24/5 661/24/5 769/24/5 767/24/5
f 610/12/5 607/71/5 716/71/5 718/12/5
f 661/24/5 662/21/5 770/21/5 769/24/5
f 583/33/5 584/36/5 691/36/5 692/33/5
f 662/21/5 659/21/5 768/21/5 770/21/5
f 584/36/5 585/35/5 693/35/5 691/36/5
f 635/11/5 636/12/5 743/12/5 744/11/5
f 585/35/5 586/34/5 694/34/5 693/35/5
f 636/12/5 637/12/5 745/12/5 743/12/5
f 586/34/5 583/33/5 692/33/5 694/34/5
f 637/12/5 638/11/5 746/11/5 745/12/5
f 559/21/5 560/24/5 667/24/5 668/21/5
f 638/11/5 635/11/5 744/11/5 746/11/5
f 560/24/5 561/24/5 669/24/5 667/24/5
f 611/28/5 612/21/5 719/21/5 720/28/5
f 561/24/5 562/21/5 670/21/5 669/24/5
f 612/21/5 613/22/5 721/22/5 719/21/5
f 562/21/5 559/21/5 668/21/5 670/21/5
f 613/22/5 614/27/5 722/27/5 721/22/5
f 614/27/5 611/28/5 720/28/5 722/27/5
f 587/122/5 588/123/5 695/123/5 696/122/5
f 588/123/5 589/33/5 697/33/5 695/123/5
f 639/12/5 640/25/5 747/25/5 748/12/5
f 589/33/5 590/32/5 698/32/5 697/33/5
f 640/25/5 641/25/5 749/25/5 747/25/5
f 590/32/5 587/122/5 696/122/5 698/32/5
f 641/25/5 642/12/5 750/12/5 749/25/5
f 563/21/5 564/24/5 671/24/5 672/21/5
f 642/12/5 639/12/5 748/12/5 750/12/5
f 564/24/5 565/24/5 673/24/5 671/24/5
f 615/34/5 616/35/5 723/35/5 724/34/5
f 565/24/5 566/21/5 674/21/5 673/24/5
f 616/35/5 617/24/5 725/24/5 723/35/5
f 566/21/5 563/21/5 672/21/5 674/21/5
f 617/24/5 618/21/5 726/21/5 725/24/5
f 618/21/5 615/34/5 724/34/5 726/21/5
f 591/123/5 592/124/5 699/124/5 700/123/5
f 592/124/5 593/36/5 701/36/5 699/124/5
f 643/25/5 644/26/5 751/26/5 752/25/5
f 593/36/5 594/33/5 702/33/5 701/36/5
f 644/26/5 645/26/5 753/26/5 751/26/5
f 594/33/5 591/123/5 700/123/5 702/33/5
f 645/26/5 646/25/5 754/25/5 753/26/5
f 567/24/5 568/21/5 675/21/5 676/24/5
f 646/25/5 643/25/5 752/25/5 754/25/5
f 568/21/5 569/21/5 677/21/5 675/21/5
f 619/22/5 620/21/5 727/21/5 728/22/5
f 569/21/5 570/24/5 678/24/5 677/21/5
f 620/21/5 621/21/5 729/21/5 727/21/5
f 570/24/5 567/24/5 676/24/5 678/24/5
f 621/21/5 622/22/5 730/22/5 729/21/5
f 127/116/6 128/117/6 778/117/6 777/116/6
f 183/85/5 113/86/5 771/86/5 774/85/5
f 113/86/5 114/105/5 772/105/5 771/86/5
f 182/89/5 179/90/5 779/90/5 781/89/5
f 775/100/3 781/89/3 779/90/3 778/101/3
f 776/102/3 780/103/3 781/89/3 775/100/3
f 778/101/3 779/90/3 782/85/3 777/104/3
f 785/104/3 786/85/3 783/86/3 784/105/3
f 777/104/5 782/85/5 786/85/5 785/104/5
f 108/113/2 129/50/2 780/50/2 776/113/2
f 107/120/6 108/121/6 776/121/6 775/120/6
f 771/86/4 772/105/4 784/105/4 783/86/4
f 183/85/5 774/85/5 786/85/5 782/85/5
f 128/117/6 107/120/6 775/120/6 778/117/6
f 773/116/5 127/116/5 777/116/5 785/116/5
f 772/118/6 773/116/6 785/116/6 784/118/6
f 791/88/4 794/85/4 802/85/4 799/88/4
f 787/50/2 788/51/2 796/51/2 795/50/2
f 790/91/5 791/88/5 799/88/5 798/91/5
f 176/88/5 183/85/5 794/85/5 791/88/5
f 183/85/5 179/90/5 792/90/5 794/85/5
f 178/91/5 176/88/5 791/88/5 790/91/5
f 182/89/5 129/103/5 787/103/5 793/89/5
f 129/50/5 130/51/5 788/51/5 787/50/5
f 801/89/3 797/92/3 798/91/3 800/90/3
f 795/103/3 796/97/3 797/92/3 801/89/3
f 800/90/3 798/91/3 799/88/3 802/85/3
f 792/90/6 793/89/6 801/89/6 800/90/6
f 788/97/5 789/92/5 797/92/5 796/97/5
f 789/92/5 790/91/5 798/91/5 797/92/5
f 794/85/6 792/90/6 800/90/6 802/85/6
f 793/89/6 787/103/6 795/103/6 801/89/6
f 805/94/4 804/91/4 810/91/4 811/94/4
f 803/92/6 806/97/6 812/97/6 809/92/6
f 180/94/5 178/91/5 804/91/5 805/94/5
f 178/91/5 177/92/5 803/92/5 804/91/5
f 181/93/5 180/94/5 805/94/5 808/93/5
f 109/98/5 181/93/5 808/93/5 807/98/5
f 809/92/3 814/93/3 811/94/3 810/91/3
f 812/97/3 813/98/3 814/93/3 809/92/3
f 808/93/5 805/94/5 811/94/5 814/93/5
f 806/51/2 807/14/2 813/14/2 812/51/2
f 804/91/6 803/92/6 809/92/6 810/91/6
f 807/98/5 808/93/5 814/93/5 813/98/5
f 815/98/3 816/99/3 817/96/3 818/93/3
f 353/96/4 354/93/4 818/93/4 817/96/4
f 351/99/5 353/96/5 817/96/5 816/99/5
f 339/98/2 351/99/2 816/99/2 815/98/2
f 836/55/1 835/58/1 859/58/1 860/55/1
f 825/39/6 821/18/6 845/18/6 849/39/6
f 842/13/1 841/16/1 865/16/1 866/13/1
f 820/19/1 819/62/1 843/62/1 844/19/1
f 826/52/1 834/13/1 858/13/1 850/52/1
f 830/14/3 823/51/3 847/51/3 854/14/3
f 839/14/6 842/13/6 866/13/6 863/14/6
f 819/62/5 832/53/5 856/53/5 843/62/5
f 834/13/5 830/14/5 854/14/5 858/13/5
f 841/16/5 840/15/5 864/15/5 865/16/5
f 207/52/5 206/55/5 836/55/5 837/52/5
f 205/58/5 208/13/5 838/13/5 835/58/5
f 124/19/5 123/62/5 819/62/5 820/19/5
f 129/50/5 108/113/5 831/113/5 822/50/5
f 208/13/5 207/52/5 837/52/5 838/13/5
f 125/18/5 124/19/5 820/19/5 821/18/5
f 162/56/5 163/55/5 828/55/5 827/56/5
f 108/121/5 147/38/5 824/38/5 831/121/5
f 405/14/5 409/13/5 842/13/5 839/14/5
f 123/62/5 191/53/5 832/53/5 819/62/5
f 109/14/5 130/51/5 823/51/5 830/14/5
f 409/13/5 407/16/5 841/16/5 842/13/5
f 857/49/2 850/52/2 847/51/2 846/50/2
f 856/53/2 851/56/2 852/55/2 853/54/2
f 845/110/2 856/53/2 853/54/2 849/111/2
f 844/19/2 843/62/2 856/53/2 845/110/2
f 848/112/2 857/49/2 846/50/2 855/113/2
f 849/111/2 853/54/2 857/49/2 848/112/2
f 853/54/2 852/55/2 850/52/2 857/49/2
f 850/52/2 858/13/2 854/14/2 847/51/2
f 860/55/2 859/58/2 862/13/2 861/52/2
f 866/13/2 865/16/2 864/15/2 863/14/2
f 821/18/6 820/19/6 844/19/6 845/18/6
f 832/53/1 827/56/1 851/56/1 856/53/1
f 822/50/3 831/113/3 855/113/3 846/50/3
f 837/52/6 836/55/6 860/55/6 861/52/6
f 823/51/3 822/50/3 846/50/3 847/51/3
f 831/121/6 824/38/6 848/38/6 855/121/6
f 835/58/5 838/13/5 862/13/5 859/58/5
f 824/38/6 825/39/6 849/39/6 848/38/6
f 828/55/5 826/52/5 850/52/5 852/55/5
f 838/13/3 837/52/3 861/52/3 862/13/3
f 840/99/3 839/98/3 863/98/3 864/99/3
f 827/56/5 828/55/5 852/55/5 851/56/5
f 873/115/6 874/114/6 907/114/6 906/115/6
f 880/73/2 868/74/2 926/74/2 925/73/2
f 874/114/6 867/119/6 903/119/6 907/114/6
f 867/119/6 829/118/6 902/118/6 903/119/6
f 883/20/6 884/47/6 898/47/6 897/20/6
f 878/20/4 882/61/4 896/61/4 894/20/4
f 882/61/5 871/62/5 890/62/5 896/61/5
f 875/66/2 876/47/2 893/47/2 892/66/2
f 185/77/5 174/78/5 877/78/5 879/77/5
f 135/115/5 136/114/5 874/114/5 873/115/5
f 326/47/5 327/66/5 885/66/5 884/47/5
f 123/62/5 124/19/5 872/19/5 871/62/5
f 113/86/5 185/77/5 879/77/5 833/86/5
f 189/61/5 123/62/5 871/62/5 882/61/5
f 114/105/5 113/86/5 833/86/5 829/105/5
f 142/47/5 120/48/5 870/48/5 876/47/5
f 327/66/5 329/61/5 886/61/5 885/66/5
f 115/119/5 114/118/5 829/118/5 867/119/5
f 141/20/5 189/61/5 882/61/5 878/20/5
f 329/61/5 325/20/5 883/20/5 886/61/5
f 119/109/5 135/115/5 873/115/5 869/109/5
f 186/73/5 118/74/5 868/74/5 880/73/5
f 889/48/1 895/65/1 892/66/1 893/47/1
f 888/109/1 912/126/1 887/74/1 895/65/1 889/48/1
f 894/20/1 896/61/1 890/62/1 891/19/1
f 898/47/1 899/66/1 900/61/1 897/20/1
f 876/47/6 870/48/6 889/48/6 893/47/6
f 884/47/4 885/66/4 899/66/4 898/47/4
f 919/126/4 913/74/4 887/74/4 912/126/4
f 885/66/5 886/61/5 900/61/5 899/66/5
f 870/48/6 869/109/6 914/109/6 888/109/6 889/48/6
f 881/65/5 875/66/5 892/66/5 895/65/5
f 872/19/6 878/20/6 894/20/6 891/19/6
f 886/61/2 883/20/2 897/20/2 900/61/2
f 871/62/2 872/19/2 891/19/2 890/62/2
f 887/74/4 913/74/4 924/74/4 922/74/4
f 903/106/4 909/77/4 908/78/4 907/107/4
f 902/105/4 901/86/4 909/77/4 903/106/4
f 906/108/4 910/73/4 904/74/4 915/126/4 905/109/4
f 907/107/4 908/78/4 910/73/4 906/108/4
f 879/77/5 877/78/5 908/78/5 909/77/5
f 918/126/1 917/109/1 905/109/1 915/126/1
f 877/78/5 880/73/5 910/73/5 908/78/5
f 833/86/5 879/77/5 909/77/5 901/86/5
f 869/109/6 873/115/6 906/115/6 905/109/6 917/109/6
f 829/105/3 833/86/3 901/86/3 902/105/3
f 916/74/1 918/126/1 915/126/1 904/74/1
f 868/74/1 911/126/1 918/126/1 916/74/1
f 911/126/1 869/109/1 917/109/1 918/126/1
f 914/109/4 919/126/4 912/126/4 888/109/4
f 869/109/4 911/126/4 919/126/4 914/109/4
f 911/126/4 868/74/4 913/74/4 919/126/4
f 920/74/5 921/65/5 923/65/5 922/74/5 924/74/5
f 913/74/4 868/74/4 920/74/4 924/74/4
f 881/65/2 895/65/2 923/65/2 921/65/2
f 868/74/3 881/65/3 921/65/3 920/74/3
f 895/65/1 887/74/1 922/74/1 923/65/1
f 925/73/5 926/74/5 929/74/5 928/74/5 927/73/5
f 916/74/1 904/74/1 928/74/1 929/74/1
f 868/74/1 916/74/1 929/74/1 926/74/1
f 910/73/3 880/73/3 925/73/3 927/73/3
f 904/74/4 910/73/4 927/73/4 928/74/4
l 107 213
l 108 214
l 109 215
l 110 216
l 111 217
l 112 218
l 113 219
l 114 220
l 115 221
l 116 222
l 117 223
l 118 224
l 119 225
l 120 226
l 121 227
l 122 228
l 123 229
l 124 230
l 125 231
l 126 232
l 127 233
l 128 234
l 129 235
l 130 236
l 131 237
l 132 238
l 133 239
l 134 240
l 135 241
l 136 242
l 137 243
l 138 244
l 139 245
l 140 246
l 141 247
l 142 248
l 143 249
l 144 250
l 145 251
l 146 252
l 147 253
l 148 254
l 149 255
l 150 256
l 151 257
l 152 258
l 153 259
l 154 260
l 155 261
l 156 262
l 157 263
l 158 264
l 159 265
l 160 266
l 161 267
l 162 268
l 163 269
l 164 270
l 165 271
l 166 272
l 167 273
l 168 274
l 169 275
l 170 276
l 171 277
l 172 278
l 173 279
l 174 280
l 175 281
l 176 282
l 177 283
l 178 284
l 179 285
l 180 286
l 181 287
l 182 288
l 183 289
l 184 290
l 185 291
l 186 292
l 187 293
l 188 294
l 189 295
l 190 296
l 191 297
l 192 298
l 193 299
l 194 300
l 195 301
l 196 302
l 197 303
l 198 304
l 199 305
l 200 306
l 201 307
l 202 308
l 203 309
l 204 310
l 205 311
l 206 312
l 207 313
l 208 314
l 209 315
l 210 316
l 211 317
l 212 318
