# Blender 4.1.1
# www.blender.org
mtllib robot.mtl
o Cube
v 1.000000 1.000000 -1.000000
v 1.000000 -1.000000 -1.000000
v 1.000000 1.000000 1.000000
v 1.000000 -1.000000 1.000000
v -1.000000 1.000000 -1.000000
v -1.000000 -1.000000 -1.000000
v -1.000000 1.000000 1.000000
v -1.000000 -1.000000 1.000000
v 1.000000 1.000000 -1.000000
v 1.000000 -1.000000 -1.000000
v 1.000000 1.000000 1.000000
v 1.000000 -1.000000 1.000000
v -1.000000 1.000000 -1.000000
v -1.000000 -1.000000 -1.000000
v -1.000000 1.000000 1.000000
v -1.000000 -1.000000 1.000000
v 1.000000 1.000000 -1.000000
v 1.000000 -1.000000 -1.000000
v 1.000000 1.000000 1.000000
v 1.000000 -1.000000 1.000000
v -1.000000 1.000000 -1.000000
v -1.000000 -1.000000 -1.000000
v -1.000000 1.000000 1.000000
v -1.000000 -1.000000 1.000000
v 1.000000 1.000000 -1.000000
v 1.000000 -1.000000 -1.000000
v 1.000000 1.000000 1.000000
v 1.000000 -1.000000 1.000000
v -1.000000 1.000000 -1.000000
v -1.000000 -1.000000 -1.000000
v -1.000000 1.000000 1.000000
v -1.000000 -1.000000 1.000000
v -1.000000 -1.000000 0.000000
v 0.000000 -1.000000 -1.000000
v 1.000000 0.000000 -1.000000
v -1.000000 0.000000 1.000000
v 1.000000 0.000000 1.000000
v -1.000000 0.000000 -1.000000
v 0.000000 1.000000 1.000000
v 1.000000 1.000000 0.000000
v 0.000000 -1.000000 1.000000
v -1.000000 1.000000 0.000000
v 0.000000 1.000000 -1.000000
v 1.000000 -1.000000 0.000000
v -1.000000 -1.000000 0.000000
v 0.000000 -1.000000 -1.000000
v 1.000000 0.000000 -1.000000
v -1.000000 0.000000 1.000000
v 1.000000 0.000000 1.000000
v -1.000000 0.000000 -1.000000
v 0.000000 1.000000 1.000000
v 1.000000 1.000000 0.000000
v 0.000000 -1.000000 1.000000
v -1.000000 1.000000 0.000000
v 0.000000 1.000000 -1.000000
v 1.000000 -1.000000 0.000000
v 0.000000 0.000000 -1.000000
v 1.000000 0.000000 0.000000
v 0.000000 -1.000000 0.000000
v -1.000000 0.000000 0.000000
v 0.000000 0.000000 1.000000
v 0.000000 1.000000 0.000000
v 0.000000 0.000000 -1.000000
v 1.000000 0.000000 0.000000
v 0.000000 -1.000000 0.000000
v -1.000000 0.000000 0.000000
v 0.000000 0.000000 1.000000
v 0.000000 1.000000 0.000000
v -1.000000 -1.000000 0.500000
v -0.500000 -1.000000 -1.000000
v 1.000000 -0.500000 -1.000000
v -1.000000 0.500000 1.000000
v 1.000000 -0.500000 1.000000
v -1.000000 -0.500000 -1.000000
v -0.500000 1.000000 1.000000
v 1.000000 1.000000 0.500000
v 0.500000 -1.000000 1.000000
v -1.000000 1.000000 -0.500000
v 0.500000 1.000000 -1.000000
v 1.000000 -1.000000 -0.500000
v -1.000000 -1.000000 0.500000
v -0.500000 -1.000000 -1.000000
v 1.000000 -0.500000 -1.000000
v -1.000000 0.500000 1.000000
v 1.000000 -0.500000 1.000000
v -1.000000 -0.500000 -1.000000
v -0.500000 1.000000 1.000000
v 1.000000 1.000000 0.500000
v 0.500000 -1.000000 1.000000
v -1.000000 1.000000 -0.500000
v 0.500000 1.000000 -1.000000
v 1.000000 -1.000000 -0.500000
v -1.000000 -1.000000 -0.500000
v 0.500000 -1.000000 -1.000000
v 1.000000 0.500000 -1.000000
v -1.000000 -0.500000 1.000000
v 1.000000 0.500000 1.000000
v -1.000000 0.500000 -1.000000
v 0.500000 1.000000 1.000000
v 1.000000 1.000000 -0.500000
v -0.500000 -1.000000 1.000000
v -1.000000 1.000000 0.500000
v -0.500000 1.000000 -1.000000
v 1.000000 -1.000000 0.500000
v -1.000000 -1.000000 -0.500000
v 0.500000 -1.000000 -1.000000
v 1.000000 0.500000 -1.000000
v -1.000000 -0.500000 1.000000
v 1.000000 0.500000 1.000000
v -1.000000 0.500000 -1.000000
v 0.500000 1.000000 1.000000
v 1.000000 1.000000 -0.500000
v -0.500000 -1.000000 1.000000
v -1.000000 1.000000 0.500000
v -0.500000 1.000000 -1.000000
v 1.000000 -1.000000 0.500000
v 0.500000 0.000000 -1.000000
v -0.500000 0.000000 -1.000000
v 0.000000 -0.500000 -1.000000
v 0.000000 0.500000 -1.000000
v 1.000000 0.000000 0.500000
v 1.000000 0.000000 -0.500000
v 1.000000 -0.500000 0.000000
v 1.000000 0.500000 0.000000
v 0.000000 -1.000000 0.500000
v 0.000000 -1.000000 -0.500000
v -0.500000 -1.000000 0.000000
v 0.500000 -1.000000 0.000000
v -1.000000 0.000000 -0.500000
v -1.000000 0.000000 0.500000
v -1.000000 -0.500000 0.000000
v -1.000000 0.500000 0.000000
v -0.500000 0.000000 1.000000
v 0.500000 0.000000 1.000000
v 0.000000 -0.500000 1.000000
v 0.000000 0.500000 1.000000
v 0.000000 1.000000 0.500000
v 0.000000 1.000000 -0.500000
v 0.500000 1.000000 0.000000
v -0.500000 1.000000 0.000000
v 0.000000 0.500000 -1.000000
v 0.000000 -0.500000 -1.000000
v -0.500000 0.000000 -1.000000
v 0.500000 0.000000 -1.000000
v 1.000000 0.500000 0.000000
v 1.000000 -0.500000 0.000000
v 1.000000 0.000000 -0.500000
v 1.000000 0.000000 0.500000
v 0.500000 -1.000000 0.000000
v -0.500000 -1.000000 0.000000
v 0.000000 -1.000000 -0.500000
v 0.000000 -1.000000 0.500000
v -1.000000 0.500000 0.000000
v -1.000000 -0.500000 0.000000
v -1.000000 0.000000 0.500000
v -1.000000 0.000000 -0.500000
v 0.000000 0.500000 1.000000
v 0.000000 -0.500000 1.000000
v 0.500000 0.000000 1.000000
v -0.500000 0.000000 1.000000
v -0.500000 1.000000 0.000000
v 0.500000 1.000000 0.000000
v 0.000000 1.000000 -0.500000
v 0.000000 1.000000 0.500000
v 0.500000 1.000000 0.500000
v 0.500000 1.000000 -0.500000
v -0.500000 1.000000 -0.500000
v -0.500000 -0.500000 1.000000
v 0.500000 -0.500000 1.000000
v 0.500000 0.500000 1.000000
v -1.000000 -0.500000 -0.500000
v -1.000000 -0.500000 0.500000
v -1.000000 0.500000 0.500000
v -0.500000 -1.000000 0.500000
v -0.500000 -1.000000 -0.500000
v 0.500000 -1.000000 -0.500000
v 1.000000 -0.500000 0.500000
v 1.000000 -0.500000 -0.500000
v 1.000000 0.500000 -0.500000
v 0.500000 -0.500000 -1.000000
v -0.500000 -0.500000 -1.000000
v -0.500000 0.500000 -1.000000
v -0.500000 1.000000 -0.500000
v 0.500000 1.000000 -0.500000
v 0.500000 1.000000 0.500000
v 0.500000 0.500000 1.000000
v 0.500000 -0.500000 1.000000
v -0.500000 -0.500000 1.000000
v -1.000000 0.500000 0.500000
v -1.000000 -0.500000 0.500000
v -1.000000 -0.500000 -0.500000
v 0.500000 -1.000000 -0.500000
v -0.500000 -1.000000 -0.500000
v -0.500000 -1.000000 0.500000
v 1.000000 0.500000 -0.500000
v 1.000000 -0.500000 -0.500000
v 1.000000 -0.500000 0.500000
v -0.500000 0.500000 -1.000000
v -0.500000 -0.500000 -1.000000
v 0.500000 -0.500000 -1.000000
v 0.500000 0.500000 -1.000000
v 1.000000 0.500000 0.500000
v 0.500000 -1.000000 0.500000
v -1.000000 0.500000 -0.500000
v -0.500000 0.500000 1.000000
v -0.500000 1.000000 0.500000
v 0.500000 0.500000 -1.000000
v 1.000000 0.500000 0.500000
v 0.500000 -1.000000 0.500000
v -1.000000 0.500000 -0.500000
v -0.500000 0.500000 1.000000
v -0.500000 1.000000 0.500000
v 1.000000 1.000000 1.000000
v -1.000000 1.000000 1.000000
v 1.000000 1.000000 -1.000000
v -1.000000 1.000000 -1.000000
v -0.500000 1.000000 1.000000
v -1.000000 1.000000 1.000000
v 1.000000 1.000000 0.500000
v 1.000000 1.000000 1.000000
v -1.000000 1.000000 -0.500000
v -1.000000 1.000000 -1.000000
v 0.500000 1.000000 -1.000000
v 1.000000 1.000000 -1.000000
v 0.500000 1.000000 1.000000
v 0.000000 1.000000 1.000000
v -1.000000 1.000000 0.500000
v -1.000000 1.000000 0.000000
v 1.000000 1.000000 -0.500000
v 1.000000 1.000000 0.000000
v -0.500000 1.000000 -1.000000
v 0.000000 1.000000 -1.000000
v 0.000000 1.000000 -0.500000
v 0.000000 1.000000 0.000000
v 0.500000 1.000000 0.000000
v -0.500000 1.000000 0.000000
v -0.500000 1.000000 0.000000
v 0.500000 1.000000 0.000000
v 0.000000 1.000000 0.000000
v 0.000000 1.000000 0.500000
v -0.500000 1.000000 1.000000
v -1.000000 1.000000 -0.500000
v 0.500000 1.000000 1.000000
v -1.000000 1.000000 0.500000
v 0.000000 1.000000 0.500000
v 0.000000 1.000000 -0.500000
v 0.500000 1.000000 0.500000
v 0.500000 1.000000 -0.500000
v -0.500000 1.000000 -0.500000
v -0.500000 1.000000 -0.500000
v 0.500000 1.000000 -0.500000
v 0.500000 1.000000 0.500000
v -0.500000 1.000000 0.500000
v -0.500000 1.000000 0.500000
v -1.000000 1.000000 -1.000000
v -1.000000 0.500000 -1.000000
v -0.500000 1.000000 -1.000000
v -0.500000 0.500000 -1.000000
v 0.000000 1.876952 0.500000
v 0.000000 1.876952 0.500000
v -0.500000 1.876952 0.000000
v 0.000000 1.876952 0.000000
v 0.000000 1.876952 0.000000
v 0.000000 1.876952 -0.500000
v -0.500000 1.876952 0.000000
v 0.500000 1.876952 0.000000
v 0.000000 1.876952 0.000000
v 0.000000 1.876952 0.500000
v 0.500000 1.876952 0.000000
v -0.500000 1.876952 0.000000
v 0.000000 1.876952 -0.500000
v 0.500000 1.876952 -0.500000
v -0.500000 1.876952 -0.500000
v 0.500000 1.876952 0.500000
v -0.500000 1.876952 0.500000
v 0.500000 1.000000 2.168604
v 0.000000 1.000000 2.168604
v 0.500000 0.000000 2.168604
v 0.000000 0.000000 2.168604
v 0.000000 0.500000 2.168604
v 0.000000 0.500000 2.168604
v -0.500000 0.000000 2.168604
v 0.000000 0.000000 2.168604
v -0.500000 1.000000 2.168604
v 0.500000 0.500000 2.168604
v 0.500000 0.500000 2.168604
v -0.500000 0.500000 2.168604
v -0.500000 1.000000 -2.074423
v 0.000000 1.000000 -2.074423
v -0.500000 0.000000 -2.074423
v 0.000000 0.000000 -2.074423
v 0.000000 0.500000 -2.074423
v 0.000000 0.500000 -2.074423
v 0.500000 0.000000 -2.074423
v 0.000000 0.000000 -2.074423
v 0.500000 1.000000 -2.074423
v -0.500000 0.500000 -2.074423
v -0.500000 0.500000 -2.074423
v 0.500000 0.500000 -2.074423
v 0.000000 -2.860859 -0.500000
v 0.000000 -2.860859 0.000000
v 0.500000 -2.860859 0.000000
v -0.500000 -2.860859 0.000000
v 0.000000 -2.860859 0.000000
v 0.000000 -2.860859 0.500000
v 0.000000 -2.860859 0.500000
v -0.500000 -2.860859 0.000000
v 0.500000 -2.860859 0.000000
v 0.000000 -2.860859 -0.500000
v -0.500000 -2.860859 -0.500000
v 0.500000 -2.860859 -0.500000
v -0.500000 -2.860859 0.500000
v 0.500000 -2.860859 0.500000
v 0.000000 -4.150702 -0.500000
v 0.000000 -4.150702 0.000000
v 0.500000 -4.150702 0.000000
v -0.500000 -4.150702 0.000000
v 0.000000 -4.150702 0.000000
v 0.000000 -4.150702 0.500000
v 0.000000 -4.150702 0.500000
v -0.500000 -4.150702 0.000000
v 0.500000 -4.150702 0.000000
v 0.000000 -4.150702 -0.500000
v -0.500000 -4.150702 -0.500000
v 0.500000 -4.150702 -0.500000
v -0.500000 -4.150702 0.500000
v 0.500000 -4.150702 0.500000
v -0.250000 0.000000 -1.000000
v 0.250000 0.000000 -1.000000
v -0.250000 0.000000 -2.074423
v 0.250000 0.000000 -2.074423
v -0.500000 0.000000 -1.537211
v 0.000000 0.000000 -1.537211
v 0.500000 0.000000 -1.537211
v 0.000000 0.000000 -1.537211
v -0.250000 0.000000 -1.537211
v 0.250000 0.000000 -1.537211
v -0.250000 -2.107107 -2.074423
v 0.000000 -2.107107 -2.074423
v 0.250000 -2.107107 -2.074423
v 0.000000 -2.107107 -2.074423
v 0.000000 -2.107107 -1.537211
v 0.000000 -2.107107 -1.537211
v -0.250000 -2.107107 -1.537211
v 0.250000 -2.107107 -1.537211
v 0.250000 0.000000 1.000000
v -0.250000 0.000000 1.000000
v 0.250000 0.000000 2.168604
v -0.250000 0.000000 2.168604
v 0.000000 0.000000 1.584302
v 0.500000 0.000000 1.584302
v -0.500000 0.000000 1.584302
v 0.000000 0.000000 1.584302
v 0.250000 0.000000 1.584302
v -0.250000 0.000000 1.584302
v 0.250000 0.000000 2.168604
v 0.000000 0.000000 2.168604
v -0.250000 0.000000 2.168604
v 0.000000 0.000000 2.168604
v 0.000000 0.000000 1.584302
v 0.000000 0.000000 1.584302
v 0.250000 0.000000 1.584302
v -0.250000 0.000000 1.584302
v 0.250000 -2.024806 2.168604
v 0.000000 -2.024806 2.168604
v -0.250000 -2.024806 2.168604
v 0.000000 -2.024806 2.168604
v 0.000000 -2.024806 1.584302
v 0.000000 -2.024806 1.584302
v 0.250000 -2.024806 1.584302
v -0.250000 -2.024806 1.584302
v 0.000000 1.876952 -0.500000
v 0.000000 1.876952 0.000000
v -0.500000 1.876952 0.000000
v 0.500000 1.876952 0.000000
v 0.000000 1.876952 0.000000
v 0.000000 1.876952 0.500000
v 0.000000 1.876952 0.500000
v 0.500000 1.876952 0.000000
v -0.500000 1.876952 0.000000
v 0.000000 1.876952 -0.500000
v 0.500000 1.876952 -0.500000
v -0.500000 1.876952 -0.500000
v 0.500000 1.876952 0.500000
v -0.500000 1.876952 0.500000
v 0.000000 -4.150702 -0.250000
v 0.250000 -4.150702 0.000000
v -0.250000 -4.150702 0.000000
v 0.000000 -4.150702 0.250000
v 0.000000 -4.150702 0.250000
v -0.250000 -4.150702 0.000000
v 0.250000 -4.150702 0.000000
v 0.000000 -4.150702 -0.250000
v -0.250000 -4.150702 -0.500000
v -0.500000 -4.150702 -0.250000
v 0.500000 -4.150702 -0.250000
v 0.250000 -4.150702 -0.500000
v -0.500000 -4.150702 0.250000
v -0.250000 -4.150702 0.500000
v 0.250000 -4.150702 0.500000
v 0.500000 -4.150702 0.250000
v -0.500000 -3.505780 0.250000
v 0.250000 -3.505780 -0.500000
v 0.500000 -3.505780 -0.250000
v -0.500000 -3.505780 -0.250000
v -0.250000 -3.505780 -0.500000
v 0.500000 -3.505780 0.250000
v 0.250000 -4.150702 0.250000
v -0.250000 -4.150702 0.250000
v 0.250000 -4.150702 -0.250000
v -0.250000 -4.150702 -0.250000
v -0.250000 -3.505780 0.500000
v 0.250000 -3.505780 0.500000
v 0.500000 1.000000 -0.250000
v 0.500000 1.000000 0.250000
v 0.500000 1.876952 -0.250000
v 0.500000 1.876952 0.250000
v 0.500000 1.438476 0.000000
v 0.500000 1.438476 -0.500000
v 0.500000 1.438476 0.000000
v 0.500000 1.438476 0.500000
v 0.500000 1.438476 0.250000
v 0.500000 1.438476 -0.250000
v 0.500000 1.657714 0.000000
v 0.500000 1.876952 -0.125000
v 0.500000 1.876952 0.125000
v 0.500000 1.657714 0.000000
v 0.500000 1.657714 0.250000
v 0.500000 1.438476 0.125000
v 0.500000 1.657714 -0.250000
v 0.500000 1.438476 -0.125000
v 0.500000 1.657714 0.125000
v 0.500000 1.657714 -0.125000
v 0.500000 1.767333 0.000000
v 0.500000 1.876952 -0.187500
v 0.500000 1.876952 0.187500
v 0.500000 1.767333 0.250000
v 0.500000 1.767333 -0.250000
v 0.500000 1.876952 -0.062500
v 0.500000 1.876952 0.062500
v 0.500000 1.767333 0.000000
v 0.500000 1.767333 0.125000
v 0.500000 1.657714 0.187500
v 0.500000 1.657714 0.062500
v 0.500000 1.767333 -0.125000
v 0.500000 1.657714 -0.187500
v 0.500000 1.657714 -0.062500
v 0.500000 1.767333 -0.187500
v 0.500000 1.767333 0.187500
v 0.500000 1.767333 0.062500
v 0.500000 1.767333 -0.062500
v 0.500000 1.657714 0.125000
v 0.500000 1.767333 0.125000
v 0.500000 1.657714 0.187500
v 0.500000 1.767333 0.187500
v 0.500000 1.767333 0.000000
v 0.500000 1.657714 0.000000
v 0.500000 1.657714 0.187500
v 0.500000 1.657714 0.250000
v 0.500000 1.657714 0.062500
v 0.500000 1.657714 0.125000
v 0.500000 1.657714 -0.187500
v 0.500000 1.657714 -0.250000
v 0.500000 1.657714 -0.062500
v 0.500000 1.657714 -0.125000
v 0.500000 1.657714 0.000000
v 0.500000 1.767333 0.000000
v 0.500000 1.767333 0.250000
v 0.500000 1.767333 -0.250000
v 0.500000 1.767333 0.125000
v 0.500000 1.767333 -0.125000
v 0.500000 1.767333 -0.187500
v 0.500000 1.767333 0.187500
v 0.500000 1.767333 0.062500
v 0.500000 1.767333 -0.062500
v 0.500000 1.657714 0.125000
v 0.500000 1.767333 0.125000
v 0.500000 1.657714 0.187500
v 0.500000 1.767333 0.187500
v 0.500000 1.767333 0.000000
v 0.500000 1.657714 0.000000
v 0.500000 1.657714 0.187500
v 0.500000 1.657714 0.250000
v 0.500000 1.657714 0.062500
v 0.500000 1.657714 0.125000
v 0.500000 1.657714 -0.187500
v 0.500000 1.657714 -0.250000
v 0.500000 1.657714 -0.062500
v 0.500000 1.657714 -0.125000
v 0.500000 1.657714 0.000000
v 0.500000 1.767333 0.000000
v 0.500000 1.767333 0.250000
v 0.500000 1.767333 -0.250000
v 0.500000 1.767333 0.125000
v 0.500000 1.767333 -0.125000
v 0.500000 1.767333 -0.187500
v 0.500000 1.767333 0.187500
v 0.500000 1.767333 0.062500
v 0.500000 1.767333 -0.062500
v 0.500000 1.657714 0.125000
v 0.500000 1.767333 0.125000
v 0.500000 1.657714 0.187500
v 0.500000 1.767333 0.187500
v 0.500000 1.000000 2.168604
v 0.000000 1.000000 2.168604
v 0.000000 0.500000 2.168604
v 0.500000 0.500000 2.168604
v 0.500000 1.000000 1.000000
v 0.000000 1.000000 1.000000
v 0.500000 0.500000 1.000000
v 0.500000 1.000000 2.168604
v 0.000000 1.000000 2.168604
v 0.500000 0.500000 2.168604
v 0.500000 1.000000 2.168604
v 0.000000 1.000000 2.168604
v 0.000000 0.500000 2.168604
v 0.500000 0.500000 2.168604
v 0.000000 0.500000 1.000000
v 0.500000 0.500000 1.000000
v 0.000000 0.500000 2.168604
v 0.500000 0.500000 2.168604
v 0.500000 1.000000 1.000000
v 0.000000 1.000000 1.000000
v 0.500000 0.500000 1.000000
v 0.500000 1.000000 2.168604
v 0.000000 1.000000 2.168604
v 0.500000 0.500000 2.168604
v 0.500000 1.000000 2.168604
v 0.000000 1.000000 2.168604
v 0.000000 0.500000 2.168604
v 0.500000 0.500000 2.168604
v 0.000000 0.500000 1.000000
v 0.500000 0.500000 1.000000
v 0.000000 0.500000 2.168604
v 0.500000 0.500000 2.168604
v 0.500000 1.000000 1.000000
v 0.000000 1.000000 1.000000
v 0.500000 0.500000 1.000000
v 0.500000 1.000000 2.168604
v 0.000000 1.000000 2.168604
v 0.500000 0.500000 2.168604
v 0.500000 1.000000 2.168604
v 0.000000 1.000000 2.168604
v 0.000000 0.500000 2.168604
v 0.500000 0.500000 2.168604
v 0.500000 1.000000 1.000000
v 0.000000 1.000000 1.000000
v 0.000000 0.500000 1.000000
v 0.500000 0.500000 1.000000
v 0.000000 0.500000 1.000000
v 0.500000 0.500000 1.000000
v 0.000000 0.500000 2.168604
v 0.500000 0.500000 2.168604
v 0.500000 1.000000 1.000000
v 0.000000 1.000000 1.000000
v 0.500000 0.500000 1.000000
v 0.500000 1.000000 2.168604
v 0.000000 1.000000 2.168604
v 0.500000 0.500000 2.168604
v 0.500000 1.000000 2.168604
v 0.000000 1.000000 2.168604
v 0.000000 0.500000 2.168604
v 0.500000 0.500000 2.168604
v 0.500000 1.000000 1.000000
v 0.000000 1.000000 1.000000
v 0.000000 0.500000 1.000000
v 0.500000 0.500000 1.000000
v 0.000000 0.500000 1.000000
v 0.500000 0.500000 1.000000
v 0.000000 0.500000 2.168604
v 0.500000 0.500000 2.168604
v 0.500000 1.000000 1.000000
v 0.000000 1.000000 1.000000
v 0.500000 0.500000 1.000000
v 0.500000 1.000000 2.168604
v 0.000000 1.000000 2.168604
v 0.500000 0.500000 2.168604
v 0.500000 1.000000 2.168604
v 0.000000 1.000000 2.168604
v 0.000000 0.500000 2.168604
v 0.500000 0.500000 2.168604
v 0.500000 1.000000 1.000000
v 0.000000 1.000000 1.000000
v 0.000000 0.500000 1.000000
v 0.500000 0.500000 1.000000
v 0.000000 0.500000 1.000000
v 0.500000 0.500000 1.000000
v 0.000000 0.500000 2.168604
v 0.500000 0.500000 2.168604
v 0.500000 1.000000 1.000000
v 0.000000 1.000000 1.000000
v 0.500000 0.500000 1.000000
v 0.500000 1.000000 2.168604
v 0.000000 1.000000 2.168604
v 0.500000 0.500000 2.168604
v 0.500000 1.000000 2.168604
v 0.000000 1.000000 2.168604
v 0.000000 0.500000 2.168604
v 0.500000 0.500000 2.168604
v 0.500000 1.000000 1.000000
v 0.000000 1.000000 1.000000
v 0.000000 0.500000 1.000000
v 0.500000 0.500000 1.000000
v 0.000000 0.500000 1.000000
v 0.500000 0.500000 1.000000
v 0.000000 0.500000 2.168604
v 0.500000 0.500000 2.168604
v 0.500000 1.000000 1.000000
v 0.000000 1.000000 1.000000
v 0.500000 0.500000 1.000000
v 0.500000 1.000000 2.168604
v 0.000000 1.000000 2.168604
v 0.500000 0.500000 2.168604
v 0.500000 1.000000 2.168604
v 0.000000 1.000000 2.168604
v 0.000000 0.500000 2.168604
v 0.500000 0.500000 2.168604
v 0.250000 0.000000 1.584302
v 0.250000 0.000000 2.168604
v 0.250000 -2.024806 1.584302
v 0.250000 -2.024806 2.168604
vn -0.0000 1.0000 -0.0000
vn -0.0000 -0.0000 1.0000
vn -1.0000 -0.0000 -0.0000
vn -0.0000 -1.0000 -0.0000
vn 1.0000 -0.0000 -0.0000
vn -0.0000 -0.0000 -1.0000
vn -0.7071 -0.0000 0.7071
vn 0.7071 -0.0000 -0.7071
vn 0.7071 -0.0000 0.7071
vn -0.7071 -0.0000 -0.7071
vt 0.625000 0.500000
vt 0.875000 0.500000
vt 0.875000 0.750000
vt 0.625000 0.750000
vt 0.375000 0.750000
vt 0.625000 1.000000
vt 0.375000 1.000000
vt 0.375000 0.000000
vt 0.625000 0.000000
vt 0.625000 0.250000
vt 0.375000 0.250000
vt 0.125000 0.500000
vt 0.375000 0.500000
vt 0.125000 0.750000
vt 0.625000 0.562500
vt 0.812500 0.687500
vt 0.812500 0.750000
vt 0.875000 0.687500
vt 0.562500 0.937500
vt 0.562500 1.000000
vt 0.625000 0.937500
vt 0.562500 0.187500
vt 0.562500 0.250000
vt 0.625000 0.187500
vt 0.312500 0.687500
vt 0.312500 0.750000
vt 0.375000 0.687500
vt 0.562500 0.687500
vt 0.562500 0.750000
vt 0.625000 0.687500
vt 0.562500 0.437500
vt 0.562500 0.500000
vt 0.625000 0.437500
vt 0.437500 0.437500
vt 0.500000 0.437500
vt 0.500000 0.500000
vt 0.437500 0.500000
vt 0.437500 0.312500
vt 0.500000 0.312500
vt 0.500000 0.343750
vt 0.500000 0.375000
vt 0.437500 0.375000
vt 0.562500 0.312500
vt 0.625000 0.312500
vt 0.625000 0.375000
vt 0.562500 0.375000
vt 0.437500 0.687500
vt 0.500000 0.687500
vt 0.500000 0.750000
vt 0.437500 0.750000
vt 0.437500 0.562500
vt 0.500000 0.562500
vt 0.500000 0.625000
vt 0.437500 0.625000
vt 0.562500 0.562500
vt 0.625000 0.625000
vt 0.562500 0.625000
vt 0.187500 0.687500
vt 0.250000 0.687500
vt 0.250000 0.750000
vt 0.187500 0.750000
vt 0.187500 0.562500
vt 0.250000 0.562500
vt 0.250000 0.625000
vt 0.187500 0.625000
vt 0.312500 0.562500
vt 0.375000 0.562500
vt 0.375000 0.625000
vt 0.312500 0.625000
vt 0.437500 0.187500
vt 0.500000 0.187500
vt 0.500000 0.250000
vt 0.437500 0.250000
vt 0.437500 0.062500
vt 0.500000 0.062500
vt 0.500000 0.125000
vt 0.437500 0.125000
vt 0.562500 0.062500
vt 0.625000 0.062500
vt 0.625000 0.125000
vt 0.562500 0.125000
vt 0.437500 0.937500
vt 0.500000 0.937500
vt 0.500000 1.000000
vt 0.437500 1.000000
vt 0.437500 0.812500
vt 0.500000 0.812500
vt 0.500000 0.843750
vt 0.500000 0.875000
vt 0.437500 0.875000
vt 0.562500 0.812500
vt 0.562500 0.875000
vt 0.687500 0.687500
vt 0.750000 0.687500
vt 0.750000 0.750000
vt 0.687500 0.750000
vt 0.687500 0.562500
vt 0.750000 0.562500
vt 0.750000 0.625000
vt 0.687500 0.625000
vt 0.812500 0.562500
vt 0.875000 0.562500
vt 0.875000 0.625000
vt 0.812500 0.625000
vt 0.500000 0.906250
vt 0.687500 0.500000
vt 0.750000 0.500000
vt 0.812500 0.500000
vt 0.375000 0.875000
vt 0.375000 0.937500
vt 0.375000 0.812500
vt 0.625000 0.812500
vt 0.375000 0.125000
vt 0.375000 0.187500
vt 0.437500 0.000000
vt 0.500000 0.000000
vt 0.375000 0.062500
vt 0.562500 0.000000
vt 0.125000 0.625000
vt 0.125000 0.687500
vt 0.187500 0.500000
vt 0.250000 0.500000
vt 0.125000 0.562500
vt 0.312500 0.500000
vt 0.500000 0.406250
vt 0.375000 0.375000
vt 0.375000 0.437500
vt 0.375000 0.312500
vt 0.625000 0.875000
vt 0.312500 0.656250
vt 0.687500 0.656250
vt 0.687500 0.617188
vt 0.687500 0.593750
vt 0.687500 0.648438
vt 0.687500 0.640625
vt 0.687500 0.632812
vt 0.250000 0.656250
vt 0.281250 0.687500
vt 0.218750 0.687500
vt 0.187500 0.656250
vt 0.218750 0.593750
vt 0.218750 0.625000
vt 0.250000 0.593750
vt 0.281250 0.593750
vt 0.312500 0.593750
vt 0.281250 0.625000
vt 0.218750 0.656250
vt 0.281250 0.656250
vt 0.281250 0.562500
vt 0.218750 0.562500
vt 0.187500 0.593750
vt 0.687500 0.601562
vt 0.687500 0.609375
s 0
usemtl Material
f 1/1/1 5/2/1 7/3/1 3/4/1
f 4/5/2 3/4/2 7/6/2 8/7/2
f 8/8/3 7/9/3 5/10/3 6/11/3
f 6/12/4 2/13/4 4/5/4 8/14/4
f 2/13/5 1/1/5 3/4/5 4/5/5
f 6/11/6 5/10/6 1/1/6 2/13/6
f 112/15/1 25/1/1 224/1/1 229/15/1
f 12/5/6 16/7/6 15/6/6 11/4/6
f 16/8/5 14/11/5 13/10/5 15/9/5
f 14/12/1 16/14/1 12/5/1 10/13/1
f 10/13/3 12/5/3 11/4/3 9/1/3
f 14/11/2 10/13/2 9/1/2 13/10/2
f 212/16/4 75/17/4 23/3/4 102/18/4
f 211/19/6 72/20/6 23/6/6 75/21/6
f 210/22/5 98/23/5 21/10/5 78/24/5
f 209/25/1 77/26/1 20/5/1 104/27/1
f 208/28/3 97/29/3 19/4/3 76/30/3
f 207/31/2 95/32/2 17/1/2 79/33/2
f 212/16/1 102/18/1 227/18/1 254/16/1
f 205/19/2 87/21/2 31/6/2 84/20/2
f 204/22/3 90/24/3 29/10/3 110/23/3
f 203/25/4 116/27/4 28/5/4 89/26/4
f 202/28/5 88/30/5 27/4/5 109/29/5
f 201/31/6 91/33/6 25/1/6 107/32/6
f 200/34/6 117/35/6 47/36/6 83/37/6
f 199/38/6 118/39/6 328/40/6 57/41/6 119/42/6
f 198/43/6 115/44/6 55/45/6 120/46/6
f 197/47/5 121/48/5 49/49/5 85/50/5
f 196/51/5 122/52/5 58/53/5 123/54/5
f 195/55/5 112/15/5 52/56/5 124/57/5
f 194/58/4 125/59/4 53/60/4 113/61/4
f 193/62/4 126/63/4 59/64/4 127/65/4
f 192/66/4 92/67/4 56/68/4 128/69/4
f 191/70/3 129/71/3 50/72/3 86/73/3
f 190/74/3 130/75/3 60/76/3 131/77/3
f 189/78/3 114/79/3 54/80/3 132/81/3
f 188/82/2 133/83/2 48/84/2 108/85/2
f 187/86/2 134/87/2 346/88/2 61/89/2 135/90/2
f 545/91/1 544/92/1 562/92/1 563/91/1
f 185/93/1 137/94/1 51/95/1 111/96/1
f 184/97/1 138/98/1 62/99/1 139/100/1
f 183/101/1 90/102/1 54/103/1 140/104/1
f 120/46/5 57/41/5 333/41/5 291/41/5 292/46/5
f 181/38/2 142/42/2 63/41/2 143/39/2
f 180/34/2 71/37/2 35/36/2 144/35/2
f 179/55/3 145/57/3 40/56/3 100/15/3
f 178/51/3 146/54/3 64/53/3 147/52/3
f 177/47/3 73/50/3 37/49/3 148/48/3
f 176/66/1 149/69/1 44/68/1 80/67/1
f 149/69/2 65/64/2 304/64/2 308/69/2
f 174/58/1 101/61/1 41/60/1 152/59/1
f 173/78/5 153/81/5 42/80/5 102/79/5
f 172/74/5 154/77/5 66/76/5 155/75/5
f 171/70/5 74/73/5 38/72/5 156/71/5
f 355/105/1 352/83/1 282/83/1 349/105/1
f 169/86/6 158/90/6 67/89/6 159/87/6
f 168/82/6 96/85/6 36/84/6 160/83/6
f 31/6/1 87/21/1 217/21/1 218/6/1
f 164/94/1 165/93/1 247/93/1 240/94/1
f 250/101/3 236/104/3 265/104/3 273/101/3
f 162/100/4 165/93/4 164/94/4 68/99/4
f 40/56/4 76/30/4 165/93/4 162/100/4
f 76/30/4 19/4/4 99/96/4 165/93/4
f 79/106/4 166/97/4 163/98/4 43/107/4
f 17/1/4 100/15/4 166/97/4 79/106/4
f 100/15/4 40/56/4 162/100/4 166/97/4
f 103/108/4 167/101/4 78/102/4 21/2/4
f 43/107/4 163/98/4 167/101/4 103/108/4
f 163/98/4 68/99/4 161/104/4 167/101/4
f 158/90/6 168/82/6 160/83/6 347/105/6 67/89/6
f 41/109/6 101/110/6 168/82/6 158/90/6
f 101/110/6 24/7/6 96/85/6 168/82/6
f 73/50/6 169/86/6 159/87/6 37/49/6
f 20/5/6 77/111/6 169/86/6 73/50/6
f 77/111/6 41/109/6 158/90/6 169/86/6
f 97/29/6 170/91/6 99/112/6 19/4/6
f 37/49/6 159/87/6 170/91/6 97/29/6
f 159/87/6 67/89/6 157/92/6 170/91/6
f 154/77/5 171/70/5 156/71/5 66/76/5
f 33/113/5 93/114/5 171/70/5 154/77/5
f 93/114/5 22/11/5 74/73/5 171/70/5
f 96/115/5 172/74/5 155/75/5 36/116/5
f 24/8/5 69/117/5 172/74/5 96/115/5
f 69/117/5 33/113/5 154/77/5 172/74/5
f 72/118/5 173/78/5 102/79/5 23/9/5
f 36/116/5 155/75/5 173/78/5 72/118/5
f 155/75/5 66/76/5 153/81/5 173/78/5
f 150/65/1 174/58/1 152/59/1 65/64/1
f 33/119/1 69/120/1 174/58/1 150/65/1
f 69/120/1 24/14/1 101/61/1 174/58/1
f 70/121/1 175/62/1 151/63/1 34/122/1
f 22/12/1 93/123/1 175/62/1 70/121/1
f 93/123/1 33/119/1 150/65/1 175/62/1
f 94/124/1 176/66/1 80/67/1 18/13/1
f 34/122/1 151/63/1 176/66/1 94/124/1
f 151/63/1 65/64/1 149/69/1 176/66/1
f 146/54/3 177/47/3 148/48/3 64/53/3
f 44/68/3 104/27/3 177/47/3 146/54/3
f 104/27/3 20/5/3 73/50/3 177/47/3
f 71/37/3 178/51/3 147/52/3 35/36/3
f 18/13/3 80/67/3 178/51/3 71/37/3
f 80/67/3 44/68/3 146/54/3 178/51/3
f 95/32/3 179/55/3 100/15/3 17/1/3
f 35/36/3 147/52/3 179/55/3 95/32/3
f 147/52/3 64/53/3 145/57/3 179/55/3
f 142/42/2 180/34/2 144/35/2 329/125/2 63/41/2
f 34/126/2 94/127/2 180/34/2 142/42/2
f 94/127/2 18/13/2 71/37/2 180/34/2
f 74/73/2 181/38/2 143/39/2 38/72/2
f 22/11/2 70/128/2 181/38/2 74/73/2
f 70/128/2 34/126/2 142/42/2 181/38/2
f 98/23/2 182/43/2 103/44/2 21/10/2
f 38/72/2 143/39/2 182/43/2 98/23/2
f 143/39/2 63/41/2 141/46/2 182/43/2
f 111/112/1 27/4/1 220/4/1 243/112/1
f 185/93/1 111/96/1 243/96/1 252/93/1
f 99/112/1 39/129/1 226/129/1 225/112/1
f 239/99/5 246/98/5 271/98/5 267/99/5
f 138/98/1 184/97/1 251/97/1 233/98/1
f 52/56/1 112/15/1 229/15/1 230/56/1
f 68/99/1 163/98/1 246/98/1 239/99/1
f 62/99/1 138/98/1 233/98/1 234/99/1
f 167/101/1 161/104/1 237/104/1 249/101/1
f 134/87/5 186/91/5 286/91/5 278/87/5 351/87/5
f 49/49/2 109/29/2 186/91/2 134/87/2
f 109/29/2 27/4/2 111/112/2 186/91/2
f 89/111/2 187/86/2 135/90/2 53/109/2
f 28/5/2 85/50/2 187/86/2 89/111/2
f 85/50/2 49/49/2 134/87/2 187/86/2
f 113/110/2 188/82/2 108/85/2 32/7/2
f 53/109/2 135/90/2 188/82/2 113/110/2
f 135/90/2 61/89/2 133/83/2 188/82/2
f 130/75/3 189/78/3 132/81/3 60/76/3
f 48/116/3 84/118/3 189/78/3 130/75/3
f 84/118/3 31/9/3 114/79/3 189/78/3
f 81/117/3 190/74/3 131/77/3 45/113/3
f 32/8/3 108/115/3 190/74/3 81/117/3
f 108/115/3 48/116/3 130/75/3 190/74/3
f 105/114/3 191/70/3 86/73/3 30/11/3
f 45/113/3 131/77/3 191/70/3 105/114/3
f 131/77/3 60/76/3 129/71/3 191/70/3
f 407/130/3 401/130/3 327/25/3
f 46/122/4 106/124/4 192/66/4 126/63/4
f 106/124/4 26/13/4 92/67/4 192/66/4
f 105/123/4 193/62/4 127/65/4 45/119/4
f 30/12/4 82/121/4 193/62/4 105/123/4
f 82/121/4 46/122/4 126/63/4 193/62/4
f 81/120/4 194/58/4 113/61/4 32/14/4
f 45/119/4 127/65/4 194/58/4 81/120/4
f 122/52/5 195/55/5 124/57/5 58/53/5
f 47/36/5 107/32/5 195/55/5 122/52/5
f 107/32/5 25/1/5 112/15/5 195/55/5
f 92/67/5 196/51/5 123/54/5 56/68/5
f 26/13/5 83/37/5 196/51/5 92/67/5
f 83/37/5 47/36/5 122/52/5 196/51/5
f 116/27/5 197/47/5 85/50/5 28/5/5
f 56/68/5 123/54/5 197/47/5 116/27/5
f 123/54/5 58/53/5 121/48/5 197/47/5
f 43/107/4 103/108/4 288/108/4 289/107/4
f 50/72/6 110/23/6 198/43/6 118/39/6
f 110/23/1 29/10/1 255/10/1 256/23/1
f 82/128/6 199/38/6 119/42/6 46/126/6
f 30/11/6 86/73/6 199/38/6 82/128/6
f 86/73/6 50/72/6 118/39/6 199/38/6
f 106/127/6 200/34/6 83/37/6 26/13/6
f 46/126/6 119/42/6 200/34/6 106/127/6
f 119/42/6 57/41/6 117/35/6 200/34/6
f 117/35/6 201/31/6 107/32/6 47/36/6
f 57/41/6 120/46/6 201/31/6 117/35/6
f 120/46/6 55/45/6 91/33/6 201/31/6
f 121/48/5 202/28/5 109/29/5 49/49/5
f 58/53/5 124/57/5 202/28/5 121/48/5
f 124/57/5 52/56/5 88/30/5 202/28/5
f 125/59/4 203/25/4 89/26/4 53/60/4
f 59/64/4 128/69/4 203/25/4 125/59/4
f 128/69/4 56/68/4 116/27/4 203/25/4
f 129/71/3 204/22/3 110/23/3 50/72/3
f 60/76/3 132/81/3 204/22/3 129/71/3
f 132/81/3 54/80/3 90/24/3 204/22/3
f 133/83/2 205/19/2 84/20/2 48/84/2
f 61/89/2 136/92/2 205/19/2 133/83/2
f 136/92/2 51/129/2 87/21/2 205/19/2
f 137/94/1 206/16/1 87/17/1 51/95/1
f 62/99/1 140/104/1 206/16/1 137/94/1
f 140/104/1 54/103/1 114/18/1 206/16/1
f 118/39/3 198/43/3 298/43/3 290/39/3 332/39/3
f 207/31/3 79/33/3 296/33/3 299/31/3
f 144/35/2 35/36/2 95/32/2 207/31/2
f 145/57/3 208/28/3 76/30/3 40/56/3
f 64/53/3 148/48/3 208/28/3 145/57/3
f 148/48/3 37/49/3 97/29/3 208/28/3
f 149/69/1 209/25/1 104/27/1 44/68/1
f 59/64/3 126/63/3 300/63/3 301/64/3
f 152/59/1 41/60/1 77/26/1 209/25/1
f 153/81/5 210/22/5 78/24/5 42/80/5
f 66/76/5 156/71/5 210/22/5 153/81/5
f 156/71/5 38/72/5 98/23/5 210/22/5
f 136/92/3 61/89/3 350/89/3 279/89/3 280/92/3
f 211/19/5 75/21/5 284/21/5 287/19/5
f 160/83/6 36/84/6 72/20/6 211/19/6
f 68/99/1 164/94/1 240/94/1 239/99/1
f 161/104/1 68/99/1 239/99/1 237/104/1
f 184/97/1 139/100/1 235/100/1 251/97/1
f 215/1/4 213/4/4 214/3/4 216/2/4
f 253/16/1 244/18/1 218/3/1 217/17/1
f 249/101/4 237/104/4 228/103/4 242/102/4
f 237/104/2 239/99/2 267/99/2 270/104/2
f 247/93/4 225/96/4 226/95/4 240/94/4
f 235/100/6 234/99/6 263/99/6 269/100/6 441/100/6 427/100/6 420/100/6
f 232/107/1 231/108/1 250/101/1 233/98/1
f 231/108/1 222/2/1 221/102/1 250/101/1
f 229/15/1 251/97/1 235/100/1 230/56/1
f 224/1/1 223/106/1 251/97/1 229/15/1
f 223/106/1 232/107/1 233/98/1 251/97/1
f 219/30/1 252/93/1 243/96/1 220/4/1
f 230/56/1 235/100/1 415/131/1 252/93/1 219/30/1
f 451/132/3 434/100/3 266/100/3 439/132/3
f 237/104/4 254/16/4 227/18/4 228/103/4
f 140/104/2 62/99/2 262/99/2 261/104/2
f 240/94/4 226/95/4 241/17/4 254/16/4
f 139/100/1 62/99/1 234/99/1 235/100/1
f 27/4/1 88/30/1 219/30/1 220/4/1
f 55/45/1 115/44/1 231/44/1 232/45/1
f 102/79/1 42/80/1 228/80/1 227/79/1
f 137/94/1 185/93/1 252/93/1 245/94/1
f 114/79/1 31/9/1 218/9/1 244/79/1
f 165/93/1 99/96/1 225/96/1 247/93/1
f 11/4/1 15/6/1 214/6/1 213/4/1
f 87/17/1 206/16/1 253/16/1 217/17/1
f 29/10/1 90/24/1 221/24/1 222/10/1
f 75/17/1 212/16/1 254/16/1 241/17/1
f 88/30/1 52/56/1 230/56/1 219/30/1
f 115/44/1 29/10/1 222/10/1 231/44/1
f 39/129/1 75/21/1 241/21/1 226/129/1
f 163/98/1 166/97/1 248/97/1 246/98/1
f 9/1/1 11/4/1 213/4/1 215/1/1
f 25/1/1 91/33/1 223/33/1 224/1/1
f 183/101/1 140/104/1 236/104/1 250/101/1
f 15/9/1 13/10/1 216/10/1 214/9/1
f 206/16/1 114/18/1 244/18/1 253/16/1
f 91/33/1 55/45/1 232/45/1 223/33/1
f 42/80/1 78/24/1 242/24/1 228/80/1
f 166/97/1 162/100/1 238/100/1 414/133/1 248/97/1
f 13/10/1 9/1/1 215/1/1 216/10/1
f 90/102/1 183/101/1 250/101/1 221/102/1
f 78/102/1 167/101/1 249/101/1 242/102/1
f 162/100/1 68/99/1 239/99/1 238/100/1
f 256/23/6 255/10/6 257/44/6 258/43/6
f 29/10/1 115/44/1 257/44/1 255/10/1
f 115/44/1 198/43/1 258/43/1 257/44/1
f 198/43/1 110/23/1 256/23/1 258/43/1
f 261/104/1 262/99/1 263/99/1 265/104/1
f 262/99/1 259/94/1 260/94/1 263/99/1
f 269/100/1 263/99/1 373/99/1 379/100/1
f 274/93/5 417/131/5 436/134/5 426/135/5 440/136/5 269/100/5 379/100/5 384/93/5
f 263/99/1 260/94/1 378/94/1 373/99/1
f 264/98/1 273/101/1 383/101/1 372/98/1
f 240/94/6 254/16/6 275/16/6 268/94/6
f 238/100/6 239/99/6 267/99/6 266/100/6 434/100/6 424/100/6 418/100/6
f 236/104/1 140/104/1 261/104/1 265/104/1
f 62/99/3 137/94/3 259/94/3 262/99/3
f 254/16/5 237/104/5 270/104/5 275/16/5
f 239/99/3 240/94/3 268/94/3 267/99/3
f 450/136/5 441/100/5 269/100/5 440/136/5
f 233/98/6 250/101/6 273/101/6 264/98/6
f 137/94/1 245/94/1 260/94/1 259/94/1
f 246/98/2 248/97/2 419/97/2 272/97/2 271/98/2
f 245/94/2 252/93/2 421/93/2 274/93/2 260/94/2
f 234/99/5 233/98/5 264/98/5 263/99/5
f 281/92/1 277/129/1 505/129/1 506/92/1
f 278/87/2 286/91/2 280/92/2 279/89/2 348/88/2
f 281/92/6 287/19/6 284/21/6 277/129/6
f 283/89/6 349/105/6 282/83/6 287/19/6 281/92/6
f 507/91/1 506/92/1 516/92/1 517/91/1
f 160/83/5 211/19/5 287/19/5 282/83/5 352/83/5
f 75/21/4 39/129/4 277/129/4 284/21/4
f 157/92/3 67/89/3 353/89/3 283/89/3 281/92/3
f 354/88/4 351/87/4 278/87/4 348/88/4
f 186/91/1 136/92/1 280/92/1 286/91/1
f 517/91/1 516/92/1 530/92/1 531/91/1
f 514/112/1 517/91/1 531/91/1 528/112/1
f 297/43/2 293/46/2 289/45/2 288/44/2
f 290/39/6 298/43/6 292/46/6 291/41/6 330/40/6
f 293/46/2 299/31/2 296/33/2 289/45/2
f 295/41/2 331/125/2 294/35/2 299/31/2 293/46/2
f 337/125/1 334/35/1 294/35/1 331/125/1
f 144/35/3 207/31/3 299/31/3 294/35/3 334/35/3
f 79/106/4 43/107/4 289/107/4 296/106/4
f 198/43/1 120/46/1 292/46/1 298/43/1
f 182/43/1 141/46/1 293/46/1 297/43/1
f 141/46/5 63/41/5 335/41/5 295/41/5 293/46/5
f 336/40/4 332/39/4 290/39/4 330/40/4
f 103/44/5 182/43/5 297/43/5 288/44/5
f 304/64/5 305/59/5 389/137/5 318/64/5
f 400/138/6 413/138/6 327/25/6
f 301/64/5 306/59/5 390/137/5 315/64/5
f 399/139/2 412/139/2 326/58/2
f 127/65/6 59/64/6 301/64/6 307/65/6
f 150/65/6 65/64/6 304/64/6 303/65/6
f 128/69/2 59/64/2 301/64/2 302/69/2
f 402/140/3 398/140/3 326/58/3
f 152/59/6 209/25/6 313/25/6 305/59/6
f 65/64/3 151/63/3 309/63/3 304/64/3
f 65/64/5 152/59/5 305/59/5 304/64/5
f 59/64/5 125/59/5 306/59/5 301/64/5
f 411/141/1 388/142/1 318/64/1 393/143/1
f 410/144/4 396/145/4 316/69/4 387/146/4
f 409/147/4 390/137/4 320/59/4 399/139/4
f 408/148/1 400/138/1 327/25/1 401/130/1
f 403/149/6 397/149/6 314/63/6
f 394/150/2 406/150/2 324/62/2
f 407/130/7 308/69/7 392/146/7 322/69/7
f 302/69/2 301/64/2 315/64/2 387/146/2
f 395/151/5 405/151/5 317/65/5
f 397/149/6 403/149/6 325/66/6
f 388/142/8 317/65/8 405/151/8 303/65/8
f 404/145/9 302/69/9 387/146/9 316/69/9
f 389/137/8 305/59/8 413/138/8 319/59/8
f 403/149/8 311/66/8 404/145/8 325/66/8
f 390/137/9 306/59/9 412/139/9 320/59/9
f 402/140/10 307/65/10 391/142/10 321/65/10
f 330/40/6 291/41/6 339/41/6 338/40/6
f 57/41/4 328/40/4 336/40/4 333/41/4
f 328/40/4 118/39/4 332/39/4 336/40/4
f 295/41/5 335/41/5 343/41/5 341/41/5
f 63/41/1 329/125/1 337/125/1 335/41/1
f 329/125/1 144/35/1 334/35/1 337/125/1
f 342/41/4 344/40/4 338/40/4 339/41/4
f 343/41/1 345/125/1 340/125/1 341/41/1
f 335/41/6 337/125/6 345/125/6 343/41/6
f 337/125/3 331/125/3 340/125/3 345/125/3
f 333/41/2 336/40/2 344/40/2 342/41/2
f 336/40/3 330/40/3 338/40/3 344/40/3
f 331/125/2 295/41/2 341/41/2 340/125/2
f 291/41/5 333/41/5 342/41/5 339/41/5
f 279/89/1 350/89/1 360/89/1 357/89/1
f 61/89/4 346/88/4 354/88/4 350/89/4
f 346/88/4 134/87/4 351/87/4 354/88/4
f 354/88/1 348/88/1 356/88/1 362/88/1
f 67/89/1 347/105/1 355/105/1 353/89/1
f 347/105/1 160/83/1 352/83/1 355/105/1
f 358/105/6 359/89/6 367/89/6 366/105/6
f 359/89/3 361/89/3 369/89/3 367/89/3
f 348/88/1 279/89/1 357/89/1 356/88/1
f 349/105/1 283/89/1 359/89/1 358/105/1
f 283/89/1 353/89/1 361/89/1 359/89/1
f 353/89/1 355/105/1 363/105/1 361/89/1
f 355/105/1 349/105/1 358/105/1 363/105/1
f 350/89/1 354/88/1 362/88/1 360/89/1
f 368/89/4 370/88/4 364/88/4 365/89/4
f 369/89/1 371/105/1 366/105/1 367/89/1
f 363/105/5 358/105/5 366/105/5 371/105/5
f 356/88/1 364/88/1 621/88/1 619/88/1
f 357/89/3 360/89/3 368/89/3 365/89/3
f 356/88/2 357/89/2 365/89/2 364/88/2
f 361/89/2 363/105/2 371/105/2 369/89/2
f 360/89/6 362/88/6 370/88/6 368/89/6
f 382/97/4 375/100/4 376/99/4 381/98/4
f 372/98/1 383/101/1 374/104/1 373/99/1
f 379/100/1 373/99/1 378/94/1 384/93/1
f 376/99/4 377/94/4 385/16/4 380/104/4
f 260/94/1 274/93/1 384/93/1 378/94/1
f 270/104/1 267/99/1 376/99/1 380/104/1
f 268/94/1 275/16/1 385/16/1 377/94/1
f 267/99/1 271/98/1 381/98/1 376/99/1
f 263/99/1 264/98/1 372/98/1 373/99/1
f 275/16/1 270/104/1 380/104/1 385/16/1
f 271/98/1 272/97/1 382/97/1 381/98/1
f 265/104/1 263/99/1 373/99/1 374/104/1
f 272/97/3 416/133/3 435/152/3 425/153/3 439/132/3 266/100/3 375/100/3 382/97/3
f 266/100/1 267/99/1 376/99/1 375/100/1
f 273/101/1 265/104/1 374/104/1 383/101/1
f 267/99/1 268/94/1 377/94/1 376/99/1
f 402/140/7 326/58/7 412/139/7 312/58/7
f 125/59/2 194/58/2 312/58/2 306/59/2
f 401/130/3 407/130/3 322/69/3
f 403/149/10 314/63/10 386/143/10 300/63/10
f 194/58/3 127/65/3 307/65/3 312/58/3
f 126/63/6 192/66/6 311/66/6 300/63/6
f 405/151/9 324/62/9 406/150/9 310/62/9
f 192/66/5 128/69/5 302/69/5 311/66/5
f 404/145/5 396/145/5 325/66/5
f 406/150/7 323/63/7 393/143/7 309/63/7
f 175/62/5 150/65/5 303/65/5 310/62/5
f 407/130/10 327/25/10 413/138/10 313/25/10
f 307/65/6 301/64/6 315/64/6 391/142/6
f 398/140/3 402/140/3 321/65/3
f 396/145/5 404/145/5 316/69/5
f 405/151/5 395/151/5 324/62/5
f 392/146/1 408/148/1 401/130/1 322/69/1
f 318/64/1 389/137/1 408/148/1 392/146/1
f 389/137/1 319/59/1 400/138/1 408/148/1
f 398/140/4 409/147/4 399/139/4 326/58/4
f 321/65/4 391/142/4 409/147/4 398/140/4
f 391/142/4 315/64/4 390/137/4 409/147/4
f 386/143/4 410/144/4 387/146/4 315/64/4
f 314/63/4 397/149/4 410/144/4 386/143/4
f 397/149/4 325/66/4 396/145/4 410/144/4
f 394/150/1 411/141/1 393/143/1 323/63/1
f 324/62/1 395/151/1 411/141/1 394/150/1
f 395/151/1 317/65/1 388/142/1 411/141/1
f 412/139/2 399/139/2 320/59/2
f 308/69/2 304/64/2 318/64/2 392/146/2
f 304/64/3 309/63/3 393/143/3 318/64/3
f 301/64/3 300/63/3 386/143/3 315/64/3
f 413/138/6 400/138/6 319/59/6
f 406/150/2 394/150/2 323/63/2
f 209/25/3 149/69/3 308/69/3 313/25/3
f 151/63/2 175/62/2 310/62/2 309/63/2
f 303/65/6 304/64/6 318/64/6 388/142/6
f 309/63/2 310/62/2 406/150/2
f 310/62/5 303/65/5 405/151/5
f 311/66/5 302/69/5 404/145/5
f 300/63/6 311/66/6 403/149/6
f 312/58/3 307/65/3 402/140/3
f 312/58/2 412/139/2 306/59/2
f 313/25/6 413/138/6 305/59/6
f 313/25/3 308/69/3 407/130/3
f 421/93/5 422/131/5 428/131/5 437/131/5 417/131/5 274/93/5
f 252/93/5 415/131/5 422/131/5 421/93/5
f 415/131/5 235/100/5 420/100/5 429/135/5 422/131/5
f 419/97/3 423/133/3 430/133/3 438/133/3 416/133/3 272/97/3
f 248/97/3 414/133/3 423/133/3 419/97/3
f 414/133/3 238/100/3 418/100/3 431/153/3 423/133/3
f 449/134/5 442/135/5 426/135/5 436/134/5
f 422/131/5 429/135/5 432/135/5 443/134/5 428/131/5
f 429/135/5 420/100/5 427/100/5 444/136/5 432/135/5
f 448/152/3 445/153/3 425/153/3 435/152/3
f 423/133/3 431/153/3 433/153/3 446/152/3 430/133/3
f 431/153/3 418/100/3 424/100/3 447/132/3 433/153/3
f 438/133/3 448/152/3 435/152/3 416/133/3
f 437/131/1 428/131/1 459/131/1 468/131/1
f 441/100/1 450/136/1 474/136/1 456/100/1
f 437/131/5 449/134/5 436/134/5 417/131/5
f 444/136/1 427/100/1 457/100/1 460/136/1
f 443/134/1 432/135/1 452/135/1 454/134/1
f 442/135/5 450/136/5 440/136/5 426/135/5
f 432/135/1 444/136/1 460/136/1 461/135/1
f 445/153/1 448/152/1 472/152/1 471/153/1
f 445/153/3 451/132/3 439/132/3 425/153/3
f 427/100/1 441/100/1 456/100/1 457/100/1
f 450/136/1 442/135/1 470/135/1 474/136/1
f 428/131/1 443/134/1 458/134/1 459/131/1
f 442/135/1 449/134/1 455/134/1 453/135/1
f 454/134/1 452/135/1 476/135/1 478/134/1
f 448/152/1 438/133/1 469/133/1 472/152/1
f 463/133/1 462/152/1 486/152/1 487/133/1
f 478/134/1 476/135/1 500/135/1 502/134/1
f 473/134/1 468/131/1 492/131/1 497/134/1
f 461/135/1 460/136/1 484/136/1 485/135/1
f 460/136/1 457/100/1 481/100/1 484/136/1
f 470/135/1 477/135/1 501/135/1 494/135/1
f 459/131/1 458/134/1 482/134/1 483/131/1
f 467/100/1 475/132/1 499/132/1 491/100/1
f 479/134/1 473/134/1 497/134/1 503/134/1
f 471/153/1 472/152/1 496/152/1 495/153/1
f 453/135/1 455/134/1 479/134/1 477/135/1
f 438/133/1 430/133/1 463/133/1 469/133/1
f 452/135/1 432/135/1 461/135/1 476/135/1
f 446/152/1 433/153/1 465/153/1 462/152/1
f 449/134/1 437/131/1 468/131/1 473/134/1
f 443/134/1 454/134/1 478/134/1 458/134/1
f 430/133/1 446/152/1 462/152/1 463/133/1
f 447/132/1 424/100/1 466/100/1 464/132/1
f 451/132/1 445/153/1 471/153/1 475/132/1
f 455/134/1 449/134/1 473/134/1 479/134/1
f 433/153/1 447/132/1 464/132/1 465/153/1
f 434/100/1 451/132/1 475/132/1 467/100/1
f 442/135/1 453/135/1 477/135/1 470/135/1
f 424/100/1 434/100/1 467/100/1 466/100/1
f 487/133/3 486/152/3 496/152/3 493/133/3
f 486/152/3 489/153/3 495/153/3 496/152/3
f 483/131/5 482/134/5 497/134/5 492/131/5
f 485/135/5 484/136/5 498/136/5 494/135/5
f 484/136/5 481/100/5 480/100/5 498/136/5
f 489/153/3 488/132/3 499/132/3 495/153/3
f 488/132/3 490/100/3 491/100/3 499/132/3
f 502/134/5 500/135/5 501/135/5 503/134/5
f 485/135/1 494/135/1 501/135/1 500/135/1
f 497/134/1 482/134/1 502/134/1 503/134/1
f 462/152/1 465/153/1 489/153/1 486/152/1
f 465/153/1 464/132/1 488/132/1 489/153/1
f 474/136/1 470/135/1 494/135/1 498/136/1
f 464/132/1 466/100/1 490/100/1 488/132/1
f 477/135/1 479/134/1 503/134/1 501/135/1
f 466/100/1 467/100/1 491/100/1 490/100/1
f 456/100/1 474/136/1 498/136/1 480/100/1
f 476/135/1 461/135/1 485/135/1 500/135/1
f 468/131/1 459/131/1 483/131/1 492/131/1
f 472/152/1 469/133/1 493/133/1 496/152/1
f 458/134/1 478/134/1 502/134/1 482/134/1
f 469/133/1 463/133/1 487/133/1 493/133/1
f 475/132/1 471/153/1 495/153/1 499/132/1
f 457/100/1 456/100/1 480/100/1 481/100/1
f 39/129/1 99/112/1 508/112/1 509/129/1
f 285/91/1 281/92/1 506/92/1 507/91/1
f 504/112/1 507/91/1 517/91/1 514/112/1
f 276/112/1 285/91/1 507/91/1 504/112/1
f 508/112/1 510/91/1 524/91/1 522/112/1
f 516/92/1 515/129/1 529/129/1 530/92/1
f 510/91/1 170/91/1 519/91/1 524/91/1
f 509/129/1 508/112/1 522/112/1 523/129/1
f 276/112/1 504/112/1 514/112/1 511/112/1
f 285/91/1 276/112/1 511/112/1 513/91/1
f 505/129/1 277/129/1 512/129/1 515/129/1
f 99/112/1 170/91/1 510/91/1 508/112/1
f 277/129/1 39/129/1 509/129/1 512/129/1
f 506/92/1 505/129/1 515/129/1 516/92/1
f 522/112/1 524/91/1 538/91/1 536/112/1
f 530/92/1 529/129/1 543/129/1 544/92/1
f 523/129/1 522/112/1 536/112/1 537/129/1
f 524/91/1 519/91/1 533/91/1 538/91/1
f 521/91/1 527/91/1 541/91/1 535/91/1
f 518/92/1 520/92/1 534/92/1 532/92/1
f 513/91/1 511/112/1 525/112/1 527/91/1
f 170/91/1 157/92/1 518/92/1 519/91/1
f 515/129/1 512/129/1 526/129/1 529/129/1
f 511/112/1 514/112/1 528/112/1 525/112/1
f 512/129/1 509/129/1 523/129/1 526/129/1
f 157/92/1 281/92/1 520/92/1 518/92/1
f 285/91/1 513/91/1 527/91/1 521/91/1
f 281/92/1 285/91/1 521/91/1 520/92/1
f 542/112/1 545/91/1 563/91/1 560/112/1
f 536/112/1 538/91/1 556/91/1 554/112/1
f 544/92/1 543/129/1 561/129/1 562/92/1
f 186/91/1 111/112/1 546/112/1 549/91/1
f 111/96/1 51/95/1 547/95/1 546/96/1
f 537/129/1 536/112/1 554/112/1 555/129/1
f 528/112/1 531/91/1 545/91/1 542/112/1
f 531/91/1 530/92/1 544/92/1 545/91/1
f 527/91/1 525/112/1 539/112/1 541/91/1
f 519/91/1 518/92/1 532/92/1 533/91/1
f 529/129/1 526/129/1 540/129/1 543/129/1
f 520/92/1 521/91/1 535/91/1 534/92/1
f 525/112/1 528/112/1 542/112/1 539/112/1
f 526/129/1 523/129/1 537/129/1 540/129/1
f 555/129/1 554/112/1 572/112/1 573/129/1
f 546/96/1 547/95/1 565/95/1 564/96/1
f 556/91/1 551/91/1 569/91/1 574/91/1
f 553/91/1 559/91/1 577/91/1 571/91/1
f 550/92/1 552/92/1 570/92/1 568/92/1
f 558/129/1 555/129/1 573/129/1 576/129/1
f 557/112/1 560/112/1 578/112/1 575/112/1
f 51/129/1 136/92/1 548/92/1 547/129/1
f 541/91/1 539/112/1 557/112/1 559/91/1
f 533/91/1 532/92/1 550/92/1 551/91/1
f 543/129/1 540/129/1 558/129/1 561/129/1
f 534/92/1 535/91/1 553/91/1 552/92/1
f 539/112/1 542/112/1 560/112/1 557/112/1
f 136/92/1 186/91/1 549/91/1 548/92/1
f 540/129/1 537/129/1 555/129/1 558/129/1
f 532/92/1 534/92/1 552/92/1 550/92/1
f 535/91/1 541/91/1 559/91/1 553/91/1
f 538/91/1 533/91/1 551/91/1 556/91/1
f 572/112/1 574/91/1 592/91/1 590/112/1
f 580/92/1 579/129/1 597/129/1 598/92/1
f 565/129/1 566/92/1 584/92/1 583/129/1
f 573/129/1 572/112/1 590/112/1 591/129/1
f 564/96/1 565/95/1 583/95/1 582/96/1
f 574/91/1 569/91/1 587/91/1 592/91/1
f 571/91/1 577/91/1 595/91/1 589/91/1
f 547/129/1 548/92/1 566/92/1 565/129/1
f 562/92/1 561/129/1 579/129/1 580/92/1
f 554/112/1 556/91/1 574/91/1 572/112/1
f 548/92/1 549/91/1 567/91/1 566/92/1
f 560/112/1 563/91/1 581/91/1 578/112/1
f 549/91/1 546/112/1 564/112/1 567/91/1
f 563/91/1 562/92/1 580/92/1 581/91/1
f 559/91/1 557/112/1 575/112/1 577/91/1
f 551/91/1 550/92/1 568/92/1 569/91/1
f 561/129/1 558/129/1 576/129/1 579/129/1
f 552/92/1 553/91/1 571/91/1 570/92/1
f 584/92/1 585/91/1 603/91/1 602/92/1
f 590/112/1 592/91/1 610/91/1 608/112/1
f 598/92/1 597/129/1 615/129/1 616/92/1
f 583/129/1 584/92/1 602/92/1 601/129/1
f 591/129/1 590/112/1 608/112/1 609/129/1
f 582/96/1 583/95/1 601/95/1 600/96/1
f 592/91/1 587/91/1 605/91/1 610/91/1
f 566/92/1 567/91/1 585/91/1 584/92/1
f 578/112/1 581/91/1 599/91/1 596/112/1
f 567/91/1 564/112/1 582/112/1 585/91/1
f 581/91/1 580/92/1 598/92/1 599/91/1
f 577/91/1 575/112/1 593/112/1 595/91/1
f 569/91/1 568/92/1 586/92/1 587/91/1
f 579/129/1 576/129/1 594/129/1 597/129/1
f 570/92/1 571/91/1 589/91/1 588/92/1
f 575/112/1 578/112/1 596/112/1 593/112/1
f 576/129/1 573/129/1 591/129/1 594/129/1
f 568/92/1 570/92/1 588/92/1 586/92/1
f 603/91/2 600/112/2 601/129/2 602/92/2
f 605/91/1 604/92/1 606/92/1 607/91/1
f 605/91/1 607/91/1 613/91/1 610/91/1
f 609/129/4 608/112/4 611/112/4 612/129/4
f 608/112/3 610/91/3 613/91/3 611/112/3
f 617/91/6 616/92/6 615/129/6 614/112/6
f 612/129/1 611/112/1 614/112/1 615/129/1
f 596/112/1 599/91/1 617/91/1 614/112/1
f 585/91/1 582/112/1 600/112/1 603/91/1
f 599/91/1 598/92/1 616/92/1 617/91/1
f 595/91/1 593/112/1 611/112/1 613/91/1
f 587/91/1 586/92/1 604/92/1 605/91/1
f 597/129/1 594/129/1 612/129/1 615/129/1
f 588/92/1 589/91/1 607/91/1 606/92/1
f 593/112/1 596/112/1 614/112/1 611/112/1
f 594/129/1 591/129/1 609/129/1 612/129/1
f 586/92/1 588/92/1 606/92/1 604/92/1
f 589/91/1 595/91/1 613/91/1 607/91/1
f 618/88/5 619/88/5 621/88/5 620/88/5
f 362/88/1 356/88/1 619/88/1 618/88/1
f 364/88/1 370/88/1 620/88/1 621/88/1
f 370/88/1 362/88/1 618/88/1 620/88/1
