# Blender 5.1.2
# www.blender.org
o room_doorways
v -5.000000 0.000000 5.000000
v 5.000000 0.000000 5.000000
v 5.000000 0.000000 -5.000000
v -5.000000 0.000000 -5.000000
v -5.000000 0.000000 5.000000
v 5.000000 0.000000 5.000000
v 5.000000 0.000000 4.800000
v -5.000000 0.000000 4.800000
v -5.000000 2.000000 5.000000
v 5.000000 2.000000 5.000000
v 5.000000 2.000000 4.800000
v -5.000000 2.000000 4.800000
v -5.000000 0.000000 -4.800000
v 5.000000 0.000000 -4.800000
v 5.000000 0.000000 -5.000000
v -5.000000 0.000000 -5.000000
v -5.000000 2.000000 -4.800000
v 5.000000 2.000000 -4.800000
v 5.000000 2.000000 -5.000000
v -5.000000 2.000000 -5.000000
v -5.000000 0.000000 5.000000
v -4.800000 0.000000 5.000000
v -4.800000 0.000000 1.750000
v -5.000000 0.000000 1.750000
v -5.000000 2.000000 5.000000
v -4.800000 2.000000 5.000000
v -4.800000 2.000000 1.750000
v -5.000000 2.000000 1.750000
v -5.000000 0.000000 -1.750000
v -4.800000 0.000000 -1.750000
v -4.800000 0.000000 -5.000000
v -5.000000 0.000000 -5.000000
v -5.000000 2.000000 -1.750000
v -4.800000 2.000000 -1.750000
v -4.800000 2.000000 -5.000000
v -5.000000 2.000000 -5.000000
v 4.800000 0.000000 5.000000
v 5.000000 0.000000 5.000000
v 5.000000 0.000000 0.750000
v 4.800000 0.000000 0.750000
v 4.800000 2.000000 5.000000
v 5.000000 2.000000 5.000000
v 5.000000 2.000000 0.750000
v 4.800000 2.000000 0.750000
v 4.800000 0.000000 -0.750000
v 5.000000 0.000000 -0.750000
v 5.000000 0.000000 -5.000000
v 4.800000 0.000000 -5.000000
v 4.800000 2.000000 -0.750000
v 5.000000 2.000000 -0.750000
v 5.000000 2.000000 -5.000000
v 4.800000 2.000000 -5.000000
vn -0.0000 1.0000 -0.0000
vn -0.0000 -1.0000 -0.0000
vn -0.0000 -0.0000 1.0000
vn 1.0000 -0.0000 -0.0000
vn -0.0000 -0.0000 -1.0000
vn -1.0000 -0.0000 -0.0000
s 0
f 2//1 4//1 1//1
f 10//1 12//1 9//1
f 7//2 5//2 8//2
f 6//3 9//3 5//3
f 7//4 10//4 6//4
f 8//5 11//5 7//5
f 5//6 12//6 8//6
f 18//1 20//1 17//1
f 15//2 13//2 16//2
f 14//3 17//3 13//3
f 15//4 18//4 14//4
f 16//5 19//5 15//5
f 13//6 20//6 16//6
f 26//1 28//1 25//1
f 23//2 21//2 24//2
f 22//3 25//3 21//3
f 23//4 26//4 22//4
f 24//5 27//5 23//5
f 21//6 28//6 24//6
f 34//1 36//1 33//1
f 31//2 29//2 32//2
f 30//3 33//3 29//3
f 31//4 34//4 30//4
f 32//5 35//5 31//5
f 29//6 36//6 32//6
f 42//1 44//1 41//1
f 39//2 37//2 40//2
f 38//3 41//3 37//3
f 39//4 42//4 38//4
f 40//5 43//5 39//5
f 37//6 44//6 40//6
f 50//1 52//1 49//1
f 47//2 45//2 48//2
f 46//3 49//3 45//3
f 47//4 50//4 46//4
f 48//5 51//5 47//5
f 45//6 52//6 48//6
f 2//1 3//1 4//1
f 10//1 11//1 12//1
f 7//2 6//2 5//2
f 6//3 10//3 9//3
f 7//4 11//4 10//4
f 8//5 12//5 11//5
f 5//6 9//6 12//6
f 18//1 19//1 20//1
f 15//2 14//2 13//2
f 14//3 18//3 17//3
f 15//4 19//4 18//4
f 16//5 20//5 19//5
f 13//6 17//6 20//6
f 26//1 27//1 28//1
f 23//2 22//2 21//2
f 22//3 26//3 25//3
f 23//4 27//4 26//4
f 24//5 28//5 27//5
f 21//6 25//6 28//6
f 34//1 35//1 36//1
f 31//2 30//2 29//2
f 30//3 34//3 33//3
f 31//4 35//4 34//4
f 32//5 36//5 35//5
f 29//6 33//6 36//6
f 42//1 43//1 44//1
f 39//2 38//2 37//2
f 38//3 42//3 41//3
f 39//4 43//4 42//4
f 40//5 44//5 43//5
f 37//6 41//6 44//6
f 50//1 51//1 52//1
f 47//2 46//2 45//2
f 46//3 50//3 49//3
f 47//4 51//4 50//4
f 48//5 52//5 51//5
f 45//6 49//6 52//6
