{
  "accessors": [
    {
      "bufferView": 2,
      "componentType": 5126,
      "count": 65534,
      "max": [
        34.69882583618164,
        0.7388359904289246,
        46.579986572265625
      ],
      "min": [
        -66.35984802246094,
        -51.47635269165039,
        -60.65961456298828
      ],
      "type": "VEC3"
    },
    {
      "bufferView": 2,
      "byteOffset": 786408,
      "componentType": 5126,
      "count": 65534,
      "max": [
        0.9999664425849915,
        0.9999788999557495,
        0.9999932646751404
      ],
      "min": [
        -0.9999916553497314,
        -0.9999995231628418,
        -0.9999588131904602
      ],
      "type": "VEC3"
    },
    {
      "bufferView": 1,
      "componentType": 5126,
      "count": 65534,
      "max": [
        0.9985281825065613,
        0.9985350370407104
      ],
      "min": [
        0.0014648436335846782,
        0.0014701081672683358
      ],
      "type": "VEC2"
    },
    {
      "bufferView": 0,
      "componentType": 5125,
      "count": 197628,
      "type": "SCALAR"
    },
    {
      "bufferView": 2,
      "byteOffset": 1572816,
      "componentType": 5126,
      "count": 65532,
      "max": [
        33.10118865966797,
        0.7388359904289246,
        46.78255081176758
      ],
      "min": [
        -66.42636108398438,
        -51.36713409423828,
        -61.54008865356445
      ],
      "type": "VEC3"
    },
    {
      "bufferView": 2,
      "byteOffset": 2359200,
      "componentType": 5126,
      "count": 65532,
      "max": [
        0.9999746680259705,
        0.9999141693115234,
        0.9999179840087891
      ],
      "min": [
        -0.9999940991401672,
        -0.9999994039535522,
        -0.9999902844429016
      ],
      "type": "VEC3"
    },
    {
      "bufferView": 1,
      "byteOffset": 524272,
      "componentType": 5126,
      "count": 65532,
      "max": [
        0.9984054565429688,
        0.9985350370407104
      ],
      "min": [
        0.0014648435171693563,
        0.0014655186096206307
      ],
      "type": "VEC2"
    },
    {
      "bufferView": 0,
      "byteOffset": 790512,
      "componentType": 5125,
      "count": 155787,
      "type": "SCALAR"
    },
    {
      "bufferView": 2,
      "byteOffset": 3145584,
      "componentType": 5126,
      "count": 7454,
      "max": [
        32.8234748840332,
        0.3932340145111084,
        46.70478057861328
      ],
      "min": [
        -66.25828552246094,
        -50.14630126953125,
        -60.24229049682617
      ],
      "type": "VEC3"
    },
    {
      "bufferView": 2,
      "byteOffset": 3235032,
      "componentType": 5126,
      "count": 7454,
      "max": [
        0.9927176237106323,
        0.9969766736030579,
        0.9990463256835938
      ],
      "min": [
        -0.9992303848266602,
        -0.9999958276748657,
        -0.9991995096206665
      ],
      "type": "VEC3"
    },
    {
      "bufferView": 1,
      "byteOffset": 1048528,
      "componentType": 5126,
      "count": 7454,
      "max": [
        0.996888279914856,
        0.9985350370407104
      ],
      "min": [
        0.00146484375,
        0.0015006257453933358
      ],
      "type": "VEC2"
    },
    {
      "bufferView": 0,
      "byteOffset": 1413660,
      "componentType": 5125,
      "count": 14868,
      "type": "SCALAR"
    },
    {
      "bufferView": 2,
      "byteOffset": 3324480,
      "componentType": 5126,
      "count": 65532,
      "max": [
        32.95261001586914,
        0.7829020023345947,
        47.05889129638672
      ],
      "min": [
        -65.61795043945313,
        -51.314308166503906,
        -59.233367919921875
      ],
      "type": "VEC3"
    },
    {
      "bufferView": 2,
      "byteOffset": 4110864,
      "componentType": 5126,
      "count": 65532,
      "max": [
        0.9998519420623779,
        0.9999873042106628,
        0.9999908804893494
      ],
      "min": [
        -0.9999911785125732,
        -0.9999997615814209,
        -0.9999993443489075
      ],
      "type": "VEC3"
    },
    {
      "bufferView": 1,
      "byteOffset": 1108160,
      "componentType": 5126,
      "count": 65532,
      "max": [
        0.9981041550636292,
        1.9985350370407104
      ],
      "min": [
        0.00146484375,
        1.0015835762023926
      ],
      "type": "VEC2"
    },
    {
      "bufferView": 0,
      "byteOffset": 1473132,
      "componentType": 5125,
      "count": 220962,
      "type": "SCALAR"
    },
    {
      "bufferView": 2,
      "byteOffset": 4897248,
      "componentType": 5126,
      "count": 46759,
      "max": [
        34.17476272583008,
        0.5935720205307007,
        47.261173248291016
      ],
      "min": [
        -63.93344497680664,
        -51.20655822753906,
        -60.272274017333984
      ],
      "type": "VEC3"
    },
    {
      "bufferView": 2,
      "byteOffset": 5458356,
      "componentType": 5126,
      "count": 46759,
      "max": [
        0.9999200701713562,
        0.999998152256012,
        0.9999893307685852
      ],
      "min": [
        -0.9999924302101135,
        -0.9999998807907104,
        -0.9999933242797852
      ],
      "type": "VEC3"
    },
    {
      "bufferView": 1,
      "byteOffset": 1632416,
      "componentType": 5126,
      "count": 46759,
      "max": [
        0.9985197186470032,
        1.9985350370407104
      ],
      "min": [
        0.00146484375,
        1.0019068717956543
      ],
      "type": "VEC2"
    },
    {
      "bufferView": 0,
      "byteOffset": 2356980,
      "componentType": 5125,
      "count": 146904,
      "type": "SCALAR"
    },
    {
      "bufferView": 2,
      "byteOffset": 6019464,
      "componentType": 5126,
      "count": 65532,
      "max": [
        33.30787658691406,
        0.79236900806427,
        47.41864013671875
      ],
      "min": [
        -65.39950561523438,
        -51.490509033203125,
        -61.32649230957031
      ],
      "type": "VEC3"
    },
    {
      "bufferView": 2,
      "byteOffset": 6805848,
      "componentType": 5126,
      "count": 65532,
      "max": [
        0.9999843835830688,
        0.9999954104423523,
        0.9999774098396301
      ],
      "min": [
        -0.9999881386756897,
        -0.9999996423721313,
        -0.9999296069145203
      ],
      "type": "VEC3"
    },
    {
      "bufferView": 1,
      "byteOffset": 2006488,
      "componentType": 5126,
      "count": 65532,
      "max": [
        0.9984238743782043,
        2.99853515625
      ],
      "min": [
        0.00146484375,
        2.0019285678863525
      ],
      "type": "VEC2"
    },
    {
      "bufferView": 0,
      "byteOffset": 2944596,
      "componentType": 5125,
      "count": 138765,
      "type": "SCALAR"
    },
    {
      "bufferView": 2,
      "byteOffset": 7592232,
      "componentType": 5126,
      "count": 25391,
      "max": [
        34.30607604980469,
        0.6493359804153442,
        46.661258697509766
      ],
      "min": [
        -64.39993286132813,
        -51.435569763183594,
        -59.51235580444336
      ],
      "type": "VEC3"
    },
    {
      "bufferView": 2,
      "byteOffset": 7896924,
      "componentType": 5126,
      "count": 25391,
      "max": [
        0.9998018741607666,
        0.9999261498451233,
        0.9999755620956421
      ],
      "min": [
        -0.9999227523803711,
        -0.9999994039535522,
        -0.9999575614929199
      ],
      "type": "VEC3"
    },
    {
      "bufferView": 1,
      "byteOffset": 2530744,
      "componentType": 5126,
      "count": 25391,
      "max": [
        0.9981793165206909,
        2.99853515625
      ],
      "min": [
        0.00146484375,
        2.0017073154449463
      ],
      "type": "VEC2"
    },
    {
      "bufferView": 0,
      "byteOffset": 3499656,
      "componentType": 5125,
      "count": 42372,
      "type": "SCALAR"
    },
    {
      "bufferView": 2,
      "byteOffset": 8201616,
      "componentType": 5126,
      "count": 65532,
      "max": [
        34.61628723144531,
        0.8290150165557861,
        46.69917297363281
      ],
      "min": [
        -64.98848724365234,
        -51.281314849853516,
        -58.03340148925781
      ],
      "type": "VEC3"
    },
    {
      "bufferView": 2,
      "byteOffset": 8988000,
      "componentType": 5126,
      "count": 65532,
      "max": [
        0.9999557137489319,
        0.9999966621398926,
        0.9999728798866272
      ],
      "min": [
        -0.999971330165863,
        -0.9999997615814209,
        -0.9999988079071045
      ],
      "type": "VEC3"
    },
    {
      "bufferView": 1,
      "byteOffset": 2733872,
      "componentType": 5126,
      "count": 65532,
      "max": [
        1.9985278844833374,
        0.9985350370407104
      ],
      "min": [
        1.00146484375,
        0.001469512120820582
      ],
      "type": "VEC2"
    },
    {
      "bufferView": 0,
      "byteOffset": 3669144,
      "componentType": 5125,
      "count": 211515,
      "type": "SCALAR"
    },
    {
      "bufferView": 2,
      "byteOffset": 9774384,
      "componentType": 5126,
      "count": 41232,
      "max": [
        34.46554183959961,
        0.37200498580932617,
        46.78255081176758
      ],
      "min": [
        -64.0931396484375,
        -50.604164123535156,
        -61.60222244262695
      ],
      "type": "VEC3"
    },
    {
      "bufferView": 2,
      "byteOffset": 10269168,
      "componentType": 5126,
      "count": 41232,
      "max": [
        0.9995980262756348,
        0.9999902248382568,
        0.9998664855957031
      ],
      "min": [
        -0.9999678730964661,
        -0.999999463558197,
        -0.9998993277549744
      ],
      "type": "VEC3"
    },
    {
      "bufferView": 1,
      "byteOffset": 3258128,
      "componentType": 5126,
      "count": 41232,
      "max": [
        1.9980542659759521,
        0.9985350370407104
      ],
      "min": [
        1.00146484375,
        0.001665909425355494
      ],
      "type": "VEC2"
    },
    {
      "bufferView": 0,
      "byteOffset": 4515204,
      "componentType": 5125,
      "count": 117465,
      "type": "SCALAR"
    },
    {
      "bufferView": 2,
      "byteOffset": 10763952,
      "componentType": 5126,
      "count": 65533,
      "max": [
        34.94098663330078,
        0.8964549899101257,
        45.80605697631836
      ],
      "min": [
        -66.88721466064453,
        -51.03135681152344,
        -60.20176315307617
      ],
      "type": "VEC3"
    },
    {
      "bufferView": 2,
      "byteOffset": 11550348,
      "componentType": 5126,
      "count": 65533,
      "max": [
        0.9998106360435486,
        0.9999997615814209,
        0.9999920725822449
      ],
      "min": [
        -0.9999969601631165,
        -0.999999463558197,
        -0.9999767541885376
      ],
      "type": "VEC3"
    },
    {
      "bufferView": 1,
      "byteOffset": 3587984,
      "componentType": 5126,
      "count": 65533,
      "max": [
        1.9985288381576538,
        1.9985350370407104
      ],
      "min": [
        1.00146484375,
        1.0014989376068115
      ],
      "type": "VEC2"
    },
    {
      "bufferView": 0,
      "byteOffset": 4985064,
      "componentType": 5125,
      "count": 217752,
      "type": "SCALAR"
    },
    {
      "bufferView": 2,
      "byteOffset": 12336744,
      "componentType": 5126,
      "count": 53513,
      "max": [
        33.06827926635742,
        0.8758370280265808,
        46.63764572143555
      ],
      "min": [
        -66.37893676757813,
        -50.717166900634766,
        -59.363868713378906
      ],
      "type": "VEC3"
    },
    {
      "bufferView": 2,
      "byteOffset": 12978900,
      "componentType": 5126,
      "count": 53513,
      "max": [
        0.999918520450592,
        0.9999963641166687,
        0.9998757839202881
      ],
      "min": [
        -0.9999739527702332,
        -0.9999999403953552,
        -0.9999816417694092
      ],
      "type": "VEC3"
    },
    {
      "bufferView": 1,
      "byteOffset": 4112248,
      "componentType": 5126,
      "count": 53513,
      "max": [
        1.9981106519699097,
        1.9985350370407104
      ],
      "min": [
        1.00146484375,
        1.0017330646514893
      ],
      "type": "VEC2"
    },
    {
      "bufferView": 0,
      "byteOffset": 5856072,
      "componentType": 5125,
      "count": 159696,
      "type": "SCALAR"
    },
    {
      "bufferView": 2,
      "byteOffset": 13621056,
      "componentType": 5126,
      "count": 65534,
      "max": [
        35.181678771972656,
        0.8568140268325806,
        47.202701568603516
      ],
      "min": [
        -67.0576171875,
        -51.506587982177734,
        -58.76371765136719
      ],
      "type": "VEC3"
    },
    {
      "bufferView": 2,
      "byteOffset": 14407464,
      "componentType": 5126,
      "count": 65534,
      "max": [
        0.9999547600746155,
        0.9999526739120483,
        0.999962568283081
      ],
      "min": [
        -0.9999264478683472,
        -0.9999996423721313,
        -0.9999711513519287
      ],
      "type": "VEC3"
    },
    {
      "bufferView": 1,
      "byteOffset": 4540352,
      "componentType": 5126,
      "count": 65534,
      "max": [
        1.9985228776931763,
        2.98681640625
      ],
      "min": [
        1.00146484375,
        2.001530170440674
      ],
      "type": "VEC2"
    },
    {
      "bufferView": 0,
      "byteOffset": 6494856,
      "componentType": 5125,
      "count": 127218,
      "type": "SCALAR"
    },
    {
      "bufferView": 2,
      "byteOffset": 15193872,
      "componentType": 5126,
      "count": 20809,
      "max": [
        34.395179748535156,
        0.8568140268325806,
        45.68878936767578
      ],
      "min": [
        -64.86919403076172,
        -51.474544525146484,
        -58.0561637878418
      ],
      "type": "VEC3"
    },
    {
      "bufferView": 2,
      "byteOffset": 15443580,
      "componentType": 5126,
      "count": 20809,
      "max": [
        0.9998916387557983,
        0.9999725818634033,
        0.9999223351478577
      ],
      "min": [
        -0.9999890923500061,
        -0.9999882578849792,
        -0.9998262524604797
      ],
      "type": "VEC3"
    },
    {
      "bufferView": 1,
      "byteOffset": 5064624,
      "componentType": 5126,
      "count": 20809,
      "max": [
        1.9983551502227783,
        2.96728515625
      ],
      "min": [
        1.00146484375,
        2.0020947456359863
      ],
      "type": "VEC2"
    },
    {
      "bufferView": 0,
      "byteOffset": 7003728,
      "componentType": 5125,
      "count": 40794,
      "type": "SCALAR"
    },
    {
      "bufferView": 2,
      "byteOffset": 15693288,
      "componentType": 5126,
      "count": 65532,
      "max": [
        35.16972351074219,
        0.9023720026016235,
        46.59767532348633
      ],
      "min": [
        -65.8531494140625,
        -51.53532028198242,
        -60.911983489990234
      ],
      "type": "VEC3"
    },
    {
      "bufferView": 2,
      "byteOffset": 16479672,
      "componentType": 5126,
      "count": 65532,
      "max": [
        0.9999297857284546,
        0.9999967813491821,
        0.9999957084655762
      ],
      "min": [
        -0.9999452829360962,
        -1.0,
        -0.9999935626983643
      ],
      "type": "VEC3"
    },
    {
      "bufferView": 1,
      "byteOffset": 5231096,
      "componentType": 5126,
      "count": 65532,
      "max": [
        2.9981048107147217,
        0.9985350370407104
      ],
      "min": [
        2.00146484375,
        0.0018236233154311776
      ],
      "type": "VEC2"
    },
    {
      "bufferView": 0,
      "byteOffset": 7166904,
      "componentType": 5125,
      "count": 221733,
      "type": "SCALAR"
    },
    {
      "bufferView": 2,
      "byteOffset": 17266056,
      "componentType": 5126,
      "count": 44716,
      "max": [
        34.42900085449219,
        -0.033771999180316925,
        47.053924560546875
      ],
      "min": [
        -65.59261322021484,
        -50.659915924072266,
        -61.06061935424805
      ],
      "type": "VEC3"
    },
    {
      "bufferView": 2,
      "byteOffset": 17802648,
      "componentType": 5126,
      "count": 44716,
      "max": [
        0.9997140169143677,
        0.9999997019767761,
        0.9999855160713196
      ],
      "min": [
        -0.9999896883964539,
        -1.0,
        -0.9999163746833801
      ],
      "type": "VEC3"
    },
    {
      "bufferView": 1,
      "byteOffset": 5755352,
      "componentType": 5126,
      "count": 44716,
      "max": [
        2.998101234436035,
        0.9985350370407104
      ],
      "min": [
        2.00146484375,
        0.001935084001161158
      ],
      "type": "VEC2"
    },
    {
      "bufferView": 0,
      "byteOffset": 8053836,
      "componentType": 5125,
      "count": 140046,
      "type": "SCALAR"
    },
    {
      "bufferView": 2,
      "byteOffset": 18339240,
      "componentType": 5126,
      "count": 65532,
      "max": [
        33.349090576171875,
        0.5506100058555603,
        47.49043273925781
      ],
      "min": [
        -66.51400756835938,
        -51.45623779296875,
        -59.314517974853516
      ],
      "type": "VEC3"
    },
    {
      "bufferView": 2,
      "byteOffset": 19125624,
      "componentType": 5126,
      "count": 65532,
      "max": [
        0.9999536275863647,
        0.9999924302101135,
        0.9999794363975525
      ],
      "min": [
        -0.9999733567237854,
        -0.9999975562095642,
        -0.9999615550041199
      ],
      "type": "VEC3"
    },
    {
      "bufferView": 1,
      "byteOffset": 6113080,
      "componentType": 5126,
      "count": 65532,
      "max": [
        2.998485803604126,
        1.9985350370407104
      ],
      "min": [
        2.00146484375,
        1.0016173124313354
      ],
      "type": "VEC2"
    },
    {
      "bufferView": 0,
      "byteOffset": 8614020,
      "componentType": 5125,
      "count": 156891,
      "type": "SCALAR"
    },
    {
      "bufferView": 2,
      "byteOffset": 19912008,
      "componentType": 5126,
      "count": 36690,
      "max": [
        31.233564376831055,
        0.5379830002784729,
        47.034732818603516
      ],
      "min": [
        -64.79993438720703,
        -51.4063606262207,
        -59.684391021728516
      ],
      "type": "VEC3"
    },
    {
      "bufferView": 2,
      "byteOffset": 20352288,
      "componentType": 5126,
      "count": 36690,
      "max": [
        0.9999486804008484,
        0.9999955296516418,
        0.9998936057090759
      ],
      "min": [
        -0.999988317489624,
        -0.9999992251396179,
        -0.9999961256980896
      ],
      "type": "VEC3"
    },
    {
      "bufferView": 1,
      "byteOffset": 6637336,
      "componentType": 5126,
      "count": 36690,
      "max": [
        2.9984076023101807,
        1.9985350370407104
      ],
      "min": [
        2.00146484375,
        1.0015161037445068
      ],
      "type": "VEC2"
    },
    {
      "bufferView": 0,
      "byteOffset": 9241584,
      "componentType": 5125,
      "count": 81054,
      "type": "SCALAR"
    }
  ],
  "asset": {
    "extras": {
      "author": "Global Digital Heritage and GDH-Afrika (https://sketchfab.com/GlobalDigitalHeritage)",
      "license": "CC-BY-NC-4.0 (http://creativecommons.org/licenses/by-nc/4.0/)",
      "source": "https://sketchfab.com/3d-models/ad-deir-monastery-petra-jordan-b1bb4d6d9bfa4bd2a85621186016734e",
      "title": "Ad-Deir Monastery, Petra, Jordan"
    },
    "generator": "Sketchfab-16.85.0",
    "version": "2.0"
  },
  "bufferViews": [
    {
      "buffer": 0,
      "byteLength": 9565800,
      "name": "floatBufferViews",
      "target": 34963
    },
    {
      "buffer": 0,
      "byteLength": 6930856,
      "byteOffset": 9565800,
      "byteStride": 8,
      "name": "floatBufferViews",
      "target": 34962
    },
    {
      "buffer": 0,
      "byteLength": 20792568,
      "byteOffset": 16496656,
      "byteStride": 12,
      "name": "floatBufferViews",
      "target": 34962
    }
  ],
  "buffers": [
    {
      "byteLength": 37289224,
      "uri": "scene.bin"
    }
  ],
  "extensionsUsed": [
    "KHR_materials_unlit"
  ],
  "images": [
    {
      "uri": "textures/Ad-Deir_Monastery_colour_layer_11-4k_cl4_u1_v1_baseColor.jpeg"
    },
    {
      "uri": "textures/Ad-Deir_Monastery_colour_layer_11-4k_cl4_u1_v2_baseColor.jpeg"
    },
    {
      "uri": "textures/Ad-Deir_Monastery_colour_layer_11-4k_cl4_u1_v3_baseColor.jpeg"
    },
    {
      "uri": "textures/Ad-Deir_Monastery_colour_layer_11-4k_cl4_u2_v1_baseColor.jpeg"
    },
    {
      "uri": "textures/Ad-Deir_Monastery_colour_layer_11-4k_cl4_u2_v2_baseColor.jpeg"
    },
    {
      "uri": "textures/Ad-Deir_Monastery_colour_layer_11-4k_cl4_u2_v3_baseColor.jpeg"
    },
    {
      "uri": "textures/Ad-Deir_Monastery_colour_layer_11-4k_cl4_u3_v1_baseColor.jpeg"
    },
    {
      "uri": "textures/Ad-Deir_Monastery_colour_layer_11-4k_cl4_u3_v2_baseColor.jpeg"
    }
  ],
  "materials": [
    {
      "doubleSided": true,
      "extensions": {
        "KHR_materials_unlit": {}
      },
      "name": "Ad-Deir_Monastery_colour_layer_11-4k_cl4_u1_v1",
      "pbrMetallicRoughness": {
        "baseColorTexture": {
          "index": 0
        },
        "metallicFactor": 0.0
      }
    },
    {
      "doubleSided": true,
      "extensions": {
        "KHR_materials_unlit": {}
      },
      "name": "Ad-Deir_Monastery_colour_layer_11-4k_cl4_u1_v2",
      "pbrMetallicRoughness": {
        "baseColorTexture": {
          "index": 1
        },
        "metallicFactor": 0.0
      }
    },
    {
      "doubleSided": true,
      "extensions": {
        "KHR_materials_unlit": {}
      },
      "name": "Ad-Deir_Monastery_colour_layer_11-4k_cl4_u1_v3",
      "pbrMetallicRoughness": {
        "baseColorTexture": {
          "index": 2
        },
        "metallicFactor": 0.0
      }
    },
    {
      "doubleSided": true,
      "extensions": {
        "KHR_materials_unlit": {}
      },
      "name": "Ad-Deir_Monastery_colour_layer_11-4k_cl4_u2_v1",
      "pbrMetallicRoughness": {
        "baseColorTexture": {
          "index": 3
        },
        "metallicFactor": 0.0
      }
    },
    {
      "doubleSided": true,
      "extensions": {
        "KHR_materials_unlit": {}
      },
      "name": "Ad-Deir_Monastery_colour_layer_11-4k_cl4_u2_v2",
      "pbrMetallicRoughness": {
        "baseColorTexture": {
          "index": 4
        },
        "metallicFactor": 0.0
      }
    },
    {
      "doubleSided": true,
      "extensions": {
        "KHR_materials_unlit": {}
      },
      "name": "Ad-Deir_Monastery_colour_layer_11-4k_cl4_u2_v3",
      "pbrMetallicRoughness": {
        "baseColorTexture": {
          "index": 5
        },
        "metallicFactor": 0.0
      }
    },
    {
      "doubleSided": true,
      "extensions": {
        "KHR_materials_unlit": {}
      },
      "name": "Ad-Deir_Monastery_colour_layer_11-4k_cl4_u3_v1",
      "pbrMetallicRoughness": {
        "baseColorTexture": {
          "index": 6
        },
        "metallicFactor": 0.0
      }
    },
    {
      "doubleSided": true,
      "extensions": {
        "KHR_materials_unlit": {}
      },
      "name": "Ad-Deir_Monastery_colour_layer_11-4k_cl4_u3_v2",
      "pbrMetallicRoughness": {
        "baseColorTexture": {
          "index": 7
        },
        "metallicFactor": 0.0
      }
    }
  ],
  "meshes": [
    {
      "name": "Object_0",
      "primitives": [
        {
          "attributes": {
            "NORMAL": 1,
            "POSITION": 0,
            "TEXCOORD_0": 2
          },
          "indices": 3,
          "material": 0,
          "mode": 4
        }
      ]
    },
    {
      "name": "Object_1",
      "primitives": [
        {
          "attributes": {
            "NORMAL": 5,
            "POSITION": 4,
            "TEXCOORD_0": 6
          },
          "indices": 7,
          "material": 0,
          "mode": 4
        }
      ]
    },
    {
      "name": "Object_2",
      "primitives": [
        {
          "attributes": {
            "NORMAL": 9,
            "POSITION": 8,
            "TEXCOORD_0": 10
          },
          "indices": 11,
          "material": 0,
          "mode": 4
        }
      ]
    },
    {
      "name": "Object_3",
      "primitives": [
        {
          "attributes": {
            "NORMAL": 13,
            "POSITION": 12,
            "TEXCOORD_0": 14
          },
          "indices": 15,
          "material": 1,
          "mode": 4
        }
      ]
    },
    {
      "name": "Object_4",
      "primitives": [
        {
          "attributes": {
            "NORMAL": 17,
            "POSITION": 16,
            "TEXCOORD_0": 18
          },
          "indices": 19,
          "material": 1,
          "mode": 4
        }
      ]
    },
    {
      "name": "Object_5",
      "primitives": [
        {
          "attributes": {
            "NORMAL": 21,
            "POSITION": 20,
            "TEXCOORD_0": 22
          },
          "indices": 23,
          "material": 2,
          "mode": 4
        }
      ]
    },
    {
      "name": "Object_6",
      "primitives": [
        {
          "attributes": {
            "NORMAL": 25,
            "POSITION": 24,
            "TEXCOORD_0": 26
          },
          "indices": 27,
          "material": 2,
          "mode": 4
        }
      ]
    },
    {
      "name": "Object_7",
      "primitives": [
        {
          "attributes": {
            "NORMAL": 29,
            "POSITION": 28,
            "TEXCOORD_0": 30
          },
          "indices": 31,
          "material": 3,
          "mode": 4
        }
      ]
    },
    {
      "name": "Object_8",
      "primitives": [
        {
          "attributes": {
            "NORMAL": 33,
            "POSITION": 32,
            "TEXCOORD_0": 34
          },
          "indices": 35,
          "material": 3,
          "mode": 4
        }
      ]
    },
    {
      "name": "Object_9",
      "primitives": [
        {
          "attributes": {
            "NORMAL": 37,
            "POSITION": 36,
            "TEXCOORD_0": 38
          },
          "indices": 39,
          "material": 4,
          "mode": 4
        }
      ]
    },
    {
      "name": "Object_10",
      "primitives": [
        {
          "attributes": {
            "NORMAL": 41,
            "POSITION": 40,
            "TEXCOORD_0": 42
          },
          "indices": 43,
          "material": 4,
          "mode": 4
        }
      ]
    },
    {
      "name": "Object_11",
      "primitives": [
        {
          "attributes": {
            "NORMAL": 45,
            "POSITION": 44,
            "TEXCOORD_0": 46
          },
          "indices": 47,
          "material": 5,
          "mode": 4
        }
      ]
    },
    {
      "name": "Object_12",
      "primitives": [
        {
          "attributes": {
            "NORMAL": 49,
            "POSITION": 48,
            "TEXCOORD_0": 50
          },
          "indices": 51,
          "material": 5,
          "mode": 4
        }
      ]
    },
    {
      "name": "Object_13",
      "primitives": [
        {
          "attributes": {
            "NORMAL": 53,
            "POSITION": 52,
            "TEXCOORD_0": 54
          },
          "indices": 55,
          "material": 6,
          "mode": 4
        }
      ]
    },
    {
      "name": "Object_14",
      "primitives": [
        {
          "attributes": {
            "NORMAL": 57,
            "POSITION": 56,
            "TEXCOORD_0": 58
          },
          "indices": 59,
          "material": 6,
          "mode": 4
        }
      ]
    },
    {
      "name": "Object_15",
      "primitives": [
        {
          "attributes": {
            "NORMAL": 61,
            "POSITION": 60,
            "TEXCOORD_0": 62
          },
          "indices": 63,
          "material": 7,
          "mode": 4
        }
      ]
    },
    {
      "name": "Object_16",
      "primitives": [
        {
          "attributes": {
            "NORMAL": 65,
            "POSITION": 64,
            "TEXCOORD_0": 66
          },
          "indices": 67,
          "material": 7,
          "mode": 4
        }
      ]
    }
  ],
  "nodes": [
    {
      "children": [
        1
      ],
      "matrix": [
        1.0,
        0.0,
        0.0,
        0.0,
        0.0,
        -1.0,
        -4.440892098500626e-16,
        0.0,
        0.0,
        4.440892098500626e-16,
        -1.0,
        0.0,
        0.0,
        0.0,
        0.0,
        1.0
      ],
      "name": "Sketchfab_model"
    },
    {
      "children": [
        2,
        3,
        4,
        5,
        6,
        7,
        8,
        9,
        10,
        11,
        12,
        13,
        14,
        15,
        16,
        17,
        18
      ],
      "name": "Ad-Deir_Monastery_colour_layer_11-4k_cl4.obj.cleaner.materialmerger.gles"
    },
    {
      "mesh": 0,
      "name": "Object_2"
    },
    {
      "mesh": 1,
      "name": "Object_3"
    },
    {
      "mesh": 2,
      "name": "Object_4"
    },
    {
      "mesh": 3,
      "name": "Object_5"
    },
    {
      "mesh": 4,
      "name": "Object_6"
    },
    {
      "mesh": 5,
      "name": "Object_7"
    },
    {
      "mesh": 6,
      "name": "Object_8"
    },
    {
      "mesh": 7,
      "name": "Object_9"
    },
    {
      "mesh": 8,
      "name": "Object_10"
    },
    {
      "mesh": 9,
      "name": "Object_11"
    },
    {
      "mesh": 10,
      "name": "Object_12"
    },
    {
      "mesh": 11,
      "name": "Object_13"
    },
    {
      "mesh": 12,
      "name": "Object_14"
    },
    {
      "mesh": 13,
      "name": "Object_15"
    },
    {
      "mesh": 14,
      "name": "Object_16"
    },
    {
      "mesh": 15,
      "name": "Object_17"
    },
    {
      "mesh": 16,
      "name": "Object_18"
    }
  ],
  "samplers": [
    {
      "magFilter": 9729,
      "minFilter": 9987,
      "wrapS": 10497,
      "wrapT": 10497
    }
  ],
  "scene": 0,
  "scenes": [
    {
      "name": "Sketchfab_Scene",
      "nodes": [
        0
      ]
    }
  ],
  "textures": [
    {
      "sampler": 0,
      "source": 0
    },
    {
      "sampler": 0,
      "source": 1
    },
    {
      "sampler": 0,
      "source": 2
    },
    {
      "sampler": 0,
      "source": 3
    },
    {
      "sampler": 0,
      "source": 4
    },
    {
      "sampler": 0,
      "source": 5
    },
    {
      "sampler": 0,
      "source": 6
    },
    {
      "sampler": 0,
      "source": 7
    }
  ]
}
